<?xml version="1.0"?>
<svg xmlns="http://www.w3.org/2000/svg"
xmlns:xlink="http://www.w3.org/1999/xlink" xmlns:cml="http://www.xml-cml.org/schema" width="474.665" height="284.848" x="0" y="0" font-family="sans-serif" stroke="rgb(0,0,0)" stroke-width="1"  stroke-linecap="round">
<rect x="0%" y="0%" width="100%" height="100%" stroke-width="0" fill="rgb(255,255,255)"  />
<line x1="319.6" y1="83.4" x2="311.5" y2="121.5" stroke="rgb(0,0,0)"  stroke-width="1.0"/>
<line x1="264.7" y1="130.8" x2="208.5" y2="98.4" stroke="rgb(0,0,0)"  stroke-width="1.0"/>
<line x1="208.5" y1="98.4" x2="174.8" y2="117.8" stroke="rgb(0,0,0)"  stroke-width="1.0"/>
<line x1="141.1" y1="98.4" x2="141.1" y2="72.5" stroke="rgb(0,0,0)"  stroke-width="1.0"/>
<line x1="107.4" y1="156.8" x2="73.7" y2="176.2" stroke="rgb(0,0,0)"  stroke-width="1.0"/>
<line x1="337.5" y1="150.4" x2="376.2" y2="146.3" stroke="rgb(0,0,0)"  stroke-width="1.0"/>
<line x1="376.2" y1="146.3" x2="399.1" y2="177.8" stroke="rgb(0,0,0)"  stroke-width="1.0"/>
<line x1="399.1" y1="177.8" x2="388.6" y2="201.5" stroke="rgb(0,0,0)"  stroke-width="1.0"/>
<line x1="319.6" y1="83.4" x2="311.6" y2="58.7" stroke="rgb(0,0,0)"  stroke-width="1.0"/>
<line x1="319.6" y1="83.4" x2="294.2" y2="78.0" stroke="rgb(0,0,0)"  stroke-width="1.0"/>
<line x1="319.6" y1="83.4" x2="344.2" y2="75.4" stroke="rgb(0,0,0)"  stroke-width="1.0"/>
<line x1="376.2" y1="146.3" x2="397.2" y2="131.1" stroke="rgb(0,0,0)"  stroke-width="1.0"/>
<line x1="376.2" y1="146.3" x2="373.5" y2="120.5" stroke="rgb(0,0,0)"  stroke-width="1.0"/>
<line x1="399.1" y1="177.8" x2="422.8" y2="188.4" stroke="rgb(0,0,0)"  stroke-width="1.0"/>
<line x1="399.1" y1="177.8" x2="420.1" y2="162.6" stroke="rgb(0,0,0)"  stroke-width="1.0"/>
<line x1="390.9" y1="223.9" x2="398.5" y2="234.3" stroke="rgb(0,0,0)"  stroke-width="1.0"/>
<line x1="280.0" y1="176.0" x2="260.7" y2="193.3" stroke="rgb(0,0,0)"  stroke-width="1.0"/>
<line x1="208.5" y1="98.4" x2="195.6" y2="75.9" stroke="rgb(0,0,0)"  stroke-width="1.0"/>
<line x1="208.5" y1="98.4" x2="221.5" y2="75.9" stroke="rgb(0,0,0)"  stroke-width="1.0"/>
<line x1="174.8" y1="156.8" x2="197.3" y2="169.7" stroke="rgb(0,0,0)"  stroke-width="1.0"/>
<line x1="73.7" y1="176.2" x2="60.7" y2="198.7" stroke="rgb(0,0,0)"  stroke-width="1.0"/>
<line x1="73.7" y1="176.2" x2="86.7" y2="198.7" stroke="rgb(0,0,0)"  stroke-width="1.0"/>
<line x1="73.7" y1="176.2" x2="51.3" y2="163.3" stroke="rgb(0,0,0)"  stroke-width="1.0"/>
<line x1="152.4" y1="53.0" x2="163.6" y2="46.5" stroke="rgb(0,0,0)"  stroke-width="1.0"/>
<line x1="129.9" y1="53.0" x2="118.7" y2="46.5" stroke="rgb(0,0,0)"  stroke-width="1.0"/>
<line x1="311.5" y1="121.5" x2="337.5" y2="150.4" stroke="rgb(0,0,0)"  stroke-width="1.0"/>
<line x1="310.2" y1="130.7" x2="328.2" y2="150.7" stroke="rgb(0,0,0)"  stroke-width="1.0"/>
<line x1="337.5" y1="150.4" x2="324.6" y2="172.8" stroke="rgb(0,0,0)"  stroke-width="1.0"/>
<line x1="305.4" y1="181.4" x2="280.0" y2="176.0" stroke="rgb(0,0,0)"  stroke-width="1.0"/>
<line x1="280.0" y1="176.0" x2="277.3" y2="150.1" stroke="rgb(0,0,0)"  stroke-width="1.0"/>
<line x1="286.5" y1="169.3" x2="284.7" y2="151.4" stroke="rgb(0,0,0)"  stroke-width="1.0"/>
<line x1="287.8" y1="132.0" x2="311.5" y2="121.5" stroke="rgb(0,0,0)"  stroke-width="1.0"/>
<line x1="174.8" y1="117.8" x2="174.8" y2="156.8" stroke="rgb(0,0,0)"  stroke-width="1.0"/>
<line x1="167.6" y1="123.8" x2="167.6" y2="150.8" stroke="rgb(0,0,0)"  stroke-width="1.0"/>
<line x1="174.8" y1="156.8" x2="152.4" y2="169.7" stroke="rgb(0,0,0)"  stroke-width="1.0"/>
<line x1="130.0" y1="169.8" x2="107.4" y2="156.8" stroke="rgb(0,0,0)"  stroke-width="1.0"/>
<line x1="131.8" y1="162.5" x2="116.2" y2="153.5" stroke="rgb(0,0,0)"  stroke-width="1.0"/>
<line x1="107.4" y1="156.8" x2="107.4" y2="130.8" stroke="rgb(0,0,0)"  stroke-width="1.0"/>
<line x1="118.5" y1="111.4" x2="141.1" y2="98.4" stroke="rgb(0,0,0)"  stroke-width="1.0"/>
<line x1="124.0" y1="116.6" x2="139.5" y2="107.6" stroke="rgb(0,0,0)"  stroke-width="1.0"/>
<line x1="141.1" y1="98.4" x2="174.8" y2="117.8" stroke="rgb(0,0,0)"  stroke-width="1.0"/>
<text x="377.281382" y="221.362074" fill="rgb(255,12,12)"  stroke="rgb(255,12,12)" stroke-width="1" font-size="16" >O</text>
<text x="312.069989" y="192.094713" fill="rgb(178,178,0)"  stroke="rgb(178,178,0)" stroke-width="1" font-size="16" >S</text>
<text x="280.733407" y="133.265297" fill="rgb(12,12,255)"  stroke="rgb(12,12,255)" stroke-width="1" font-size="16" >+</text>
<text x="269.933407" y="145.297297" fill="rgb(12,12,255)"  stroke="rgb(12,12,255)" stroke-width="1" font-size="16" >N</text>
<text x="135.114317" y="184.216216" fill="rgb(12,12,255)"  stroke="rgb(12,12,255)" stroke-width="1" font-size="16" >N</text>
<text x="101.409545" y="125.837838" fill="rgb(12,12,255)"  stroke="rgb(12,12,255)" stroke-width="1" font-size="16" >N</text>
<text x="135.114317" y="67.459459" fill="rgb(12,12,255)"  stroke="rgb(12,12,255)" stroke-width="1" font-size="16" >N</text>
<text x="301.552700" y="54.385008" fill="rgb(191,191,191)"  stroke="rgb(191,191,191)" stroke-width="1" font-size="16" >H</text>
<text x="275.510860" y="83.307401" fill="rgb(191,191,191)"  stroke="rgb(191,191,191)" stroke-width="1" font-size="16" >H</text>
<text x="350.593399" y="79.372492" fill="rgb(191,191,191)"  stroke="rgb(191,191,191)" stroke-width="1" font-size="16" >H</text>
<text x="401.721233" y="131.445839" fill="rgb(191,191,191)"  stroke="rgb(191,191,191)" stroke-width="1" font-size="16" >H</text>
<text x="366.167031" y="115.616088" fill="rgb(191,191,191)"  stroke="rgb(191,191,191)" stroke-width="1" font-size="16" >H</text>
<text x="428.665334" y="201.637623" fill="rgb(191,191,191)"  stroke="rgb(191,191,191)" stroke-width="1" font-size="16" >H</text>
<text x="424.597199" y="162.931906" fill="rgb(191,191,191)"  stroke="rgb(191,191,191)" stroke-width="1" font-size="16" >H</text>
<text x="400.157348" y="252.848140" fill="rgb(191,191,191)"  stroke="rgb(191,191,191)" stroke-width="1" font-size="16" >H</text>
<text x="245.079149" y="210.044854" fill="rgb(191,191,191)"  stroke="rgb(191,191,191)" stroke-width="1" font-size="16" >H</text>
<text x="183.064403" y="72.673606" fill="rgb(191,191,191)"  stroke="rgb(191,191,191)" stroke-width="1" font-size="16" >H</text>
<text x="221.983322" y="72.673606" fill="rgb(191,191,191)"  stroke="rgb(191,191,191)" stroke-width="1" font-size="16" >H</text>
<text x="202.523862" y="184.216216" fill="rgb(191,191,191)"  stroke="rgb(191,191,191)" stroke-width="1" font-size="16" >H</text>
<text x="48.245313" y="217.920989" fill="rgb(191,191,191)"  stroke="rgb(191,191,191)" stroke-width="1" font-size="16" >H</text>
<text x="87.164232" y="217.920989" fill="rgb(191,191,191)"  stroke="rgb(191,191,191)" stroke-width="1" font-size="16" >H</text>
<text x="34.000000" y="164.756757" fill="rgb(191,191,191)"  stroke="rgb(191,191,191)" stroke-width="1" font-size="16" >H</text>
<text x="168.819090" y="48.000000" fill="rgb(191,191,191)"  stroke="rgb(191,191,191)" stroke-width="1" font-size="16" >H</text>
<text x="101.409545" y="48.000000" fill="rgb(191,191,191)"  stroke="rgb(191,191,191)" stroke-width="1" font-size="16" >H</text>
<text font-size="18.000000" fill ="black" font-family="sans-serif"
x="10.000000" y="20.000000" >aneurin</text>
<title>aneurin - OBDepict</title>
</svg>
