<?xml version="1.0"?>
<svg xmlns="http://www.w3.org/2000/svg"
xmlns:xlink="http://www.w3.org/1999/xlink" xmlns:cml="http://www.xml-cml.org/schema" width="223.452" height="238.135" x="0" y="0" font-family="sans-serif" stroke="rgb(0,0,0)" stroke-width="1"  stroke-linecap="round">
<rect x="0%" y="0%" width="100%" height="100%" stroke-width="0" fill="rgb(255,255,255)"  />
<line x1="159.1" y1="176.4" x2="162.7" y2="163.6" stroke="rgb(0,0,0)"  stroke-width="1.0"/>
<line x1="159.9" y1="135.4" x2="156.2" y2="136.9" stroke="rgb(0,0,0)"  stroke-width="1.0"/>
<line x1="159.9" y1="135.4" x2="176.4" y2="131.9" stroke="rgb(0,0,0)"  stroke-width="1.0"/>
<line x1="155.2" y1="148.9" x2="138.4" y2="150.6" stroke="rgb(0,0,0)"  stroke-width="1.0"/>
<line x1="138.0" y1="153.6" x2="129.5" y2="152.3" stroke="rgb(0,0,0)"  stroke-width="1.0"/>
<line x1="138.9" y1="147.6" x2="130.4" y2="146.3" stroke="rgb(0,0,0)"  stroke-width="1.0"/>
<line x1="49.0" y1="161.9" x2="113.2" y2="150.3" stroke="rgb(0,0,0)"  stroke-width="1.0"/>
<line x1="102.8" y1="192.9" x2="97.5" y2="71.8" stroke="rgb(0,0,0)"  stroke-width="1.0"/>
<line x1="92.2" y1="158.7" x2="93.8" y2="159.2" stroke="rgb(0,0,0)"  stroke-width="1.0"/>
<line x1="98.2" y1="139.6" x2="100.9" y2="140.5" stroke="rgb(0,0,0)"  stroke-width="1.0"/>
<line x1="104.1" y1="120.4" x2="108.0" y2="121.8" stroke="rgb(0,0,0)"  stroke-width="1.0"/>
<line x1="110.0" y1="101.3" x2="115.2" y2="103.1" stroke="rgb(0,0,0)"  stroke-width="1.0"/>
<line x1="116.0" y1="82.2" x2="122.3" y2="84.4" stroke="rgb(0,0,0)"  stroke-width="1.0"/>
<line x1="121.9" y1="63.1" x2="129.4" y2="65.7" stroke="rgb(0,0,0)"  stroke-width="1.0"/>
<line x1="67.6" y1="157.8" x2="68.6" y2="159.0" stroke="rgb(0,0,0)"  stroke-width="1.0"/>
<line x1="75.3" y1="150.3" x2="77.2" y2="152.5" stroke="rgb(0,0,0)"  stroke-width="1.0"/>
<line x1="83.0" y1="142.8" x2="85.7" y2="146.0" stroke="rgb(0,0,0)"  stroke-width="1.0"/>
<line x1="90.7" y1="135.4" x2="94.3" y2="139.5" stroke="rgb(0,0,0)"  stroke-width="1.0"/>
<line x1="98.4" y1="127.9" x2="102.8" y2="133.0" stroke="rgb(0,0,0)"  stroke-width="1.0"/>
<line x1="106.1" y1="120.5" x2="111.3" y2="126.6" stroke="rgb(0,0,0)"  stroke-width="1.0"/>
<line x1="155.2" y1="148.9" x2="159.9" y2="135.4" stroke="rgb(0,0,0)"  stroke-width="1.0"/>
<line x1="155.2" y1="148.9" x2="162.7" y2="163.6" stroke="rgb(0,0,0)"  stroke-width="1.0"/>
<line x1="113.2" y1="150.3" x2="108.6" y2="164.6" stroke="rgb(0,0,0)"  stroke-width="1.0"/>
<line x1="113.2" y1="150.3" x2="130.0" y2="149.3" stroke="rgb(0,0,0)"  stroke-width="1.0"/>
<line x1="159.1" y1="176.4" x2="158.4" y2="175.5" stroke="rgb(0,0,0)"  stroke-width="1.0"/>
<line x1="159.1" y1="176.4" x2="159.9" y2="176.2" stroke="rgb(0,0,0)"  stroke-width="1.0"/>
<line x1="159.1" y1="176.4" x2="153.4" y2="183.8" stroke="rgb(0,0,0)"  stroke-width="1.0"/>
<line x1="162.7" y1="163.6" x2="168.7" y2="157.5" stroke="rgb(0,0,0)"  stroke-width="1.0"/>
<line x1="162.7" y1="163.6" x2="161.8" y2="163.7" stroke="rgb(0,0,0)"  stroke-width="1.0"/>
<line x1="155.2" y1="147.9" x2="156.1" y2="149.2" stroke="rgb(0,0,0)"  stroke-width="1.0"/>
<line x1="155.2" y1="147.1" x2="156.8" y2="149.5" stroke="rgb(0,0,0)"  stroke-width="1.0"/>
<line x1="155.2" y1="146.3" x2="157.6" y2="149.8" stroke="rgb(0,0,0)"  stroke-width="1.0"/>
<line x1="155.3" y1="145.5" x2="158.3" y2="150.0" stroke="rgb(0,0,0)"  stroke-width="1.0"/>
<line x1="155.3" y1="144.7" x2="159.1" y2="150.3" stroke="rgb(0,0,0)"  stroke-width="1.0"/>
<line x1="155.3" y1="144.0" x2="159.8" y2="150.5" stroke="rgb(0,0,0)"  stroke-width="1.0"/>
<line x1="138.4" y1="150.6" x2="145.0" y2="147.7" stroke="rgb(0,0,0)"  stroke-width="1.0"/>
<line x1="130.0" y1="149.3" x2="123.2" y2="152.0" stroke="rgb(0,0,0)"  stroke-width="1.0"/>
<polygon points="113.178992 150.346979 112.119998 155.076907 109.153409 147.647280 " stroke-width="1.000000" fill="rgb(0,0,0)"  stroke="rgb(0,0,0)" />
<line x1="108.6" y1="164.6" x2="99.5" y2="164.1" stroke="rgb(0,0,0)"  stroke-width="1.0"/>
<line x1="108.6" y1="164.6" x2="107.7" y2="162.6" stroke="rgb(0,0,0)"  stroke-width="1.0"/>
<line x1="108.6" y1="164.6" x2="109.5" y2="164.5" stroke="rgb(0,0,0)"  stroke-width="1.0"/>
<line x1="54.5" y1="158.2" x2="55.2" y2="159.6" stroke="rgb(0,0,0)"  stroke-width="1.0"/>
<line x1="58.9" y1="155.2" x2="60.2" y2="157.7" stroke="rgb(0,0,0)"  stroke-width="1.0"/>
<line x1="63.3" y1="152.2" x2="65.2" y2="155.9" stroke="rgb(0,0,0)"  stroke-width="1.0"/>
<line x1="67.8" y1="149.2" x2="70.2" y2="154.0" stroke="rgb(0,0,0)"  stroke-width="1.0"/>
<line x1="72.2" y1="146.2" x2="75.3" y2="152.1" stroke="rgb(0,0,0)"  stroke-width="1.0"/>
<line x1="76.6" y1="143.2" x2="80.3" y2="150.3" stroke="rgb(0,0,0)"  stroke-width="1.0"/>
<line x1="40.0" y1="167.1" x2="87.8" y2="138.0" stroke="rgb(0,0,0)"  stroke-width="1.0"/>
<line x1="40.0" y1="167.1" x2="103.0" y2="145.8" stroke="rgb(0,0,0)"  stroke-width="1.0"/>
<line x1="40.0" y1="177.4" x2="102.1" y2="118.5" stroke="rgb(0,0,0)"  stroke-width="1.0"/>
<line x1="40.0" y1="177.4" x2="117.4" y2="126.6" stroke="rgb(0,0,0)"  stroke-width="1.0"/>
<line x1="67.2" y1="169.3" x2="68.2" y2="170.5" stroke="rgb(0,0,0)"  stroke-width="1.0"/>
<line x1="74.6" y1="162.7" x2="76.4" y2="165.0" stroke="rgb(0,0,0)"  stroke-width="1.0"/>
<line x1="82.0" y1="156.2" x2="84.6" y2="159.5" stroke="rgb(0,0,0)"  stroke-width="1.0"/>
<line x1="89.5" y1="149.7" x2="92.8" y2="154.0" stroke="rgb(0,0,0)"  stroke-width="1.0"/>
<line x1="96.9" y1="143.2" x2="101.0" y2="148.5" stroke="rgb(0,0,0)"  stroke-width="1.0"/>
<line x1="104.3" y1="136.6" x2="109.2" y2="143.0" stroke="rgb(0,0,0)"  stroke-width="1.0"/>
<polygon points="66.898121 182.603942 107.267776 121.488020 113.692231 126.255240 " stroke-width="1.000000" fill="rgb(0,0,0)"  stroke="rgb(0,0,0)" />
<line x1="66.9" y1="193.0" x2="124.1" y2="117.5" stroke="rgb(0,0,0)"  stroke-width="1.0"/>
<line x1="66.9" y1="193.0" x2="137.1" y2="107.7" stroke="rgb(0,0,0)"  stroke-width="1.0"/>
<line x1="75.9" y1="198.1" x2="130.9" y2="95.5" stroke="rgb(0,0,0)"  stroke-width="1.0"/>
<line x1="93.8" y1="198.1" x2="128.1" y2="63.8" stroke="rgb(0,0,0)"  stroke-width="1.0"/>
<line x1="93.8" y1="198.1" x2="122.5" y2="74.8" stroke="rgb(0,0,0)"  stroke-width="1.0"/>
<polygon points="102.763511 192.949496 103.087934 90.363512 111.080824 90.700723 " stroke-width="1.000000" fill="rgb(0,0,0)"  stroke="rgb(0,0,0)" />
<line x1="98.0" y1="71.8" x2="96.7" y2="56.2" stroke="rgb(0,0,0)"  stroke-width="1.0"/>
<line x1="102.8" y1="182.6" x2="92.6" y2="54.9" stroke="rgb(0,0,0)"  stroke-width="1.0"/>
<line x1="102.8" y1="182.6" x2="109.4" y2="53.0" stroke="rgb(0,0,0)"  stroke-width="1.0"/>
<line x1="93.8" y1="177.4" x2="96.5" y2="72.3" stroke="rgb(0,0,0)"  stroke-width="1.0"/>
<line x1="93.8" y1="177.4" x2="91.7" y2="80.8" stroke="rgb(0,0,0)"  stroke-width="1.0"/>
<line x1="125.7" y1="64.4" x2="124.9" y2="63.9" stroke="rgb(0,0,0)"  stroke-width="1.0"/>
<line x1="125.7" y1="64.4" x2="133.7" y2="65.3" stroke="rgb(0,0,0)"  stroke-width="1.0"/>
<line x1="125.7" y1="64.4" x2="125.3" y2="65.6" stroke="rgb(0,0,0)"  stroke-width="1.0"/>
<line x1="79.4" y1="165.0" x2="80.9" y2="165.5" stroke="rgb(0,0,0)"  stroke-width="1.0"/>
<line x1="82.2" y1="155.1" x2="84.9" y2="156.1" stroke="rgb(0,0,0)"  stroke-width="1.0"/>
<line x1="85.0" y1="145.2" x2="89.0" y2="146.6" stroke="rgb(0,0,0)"  stroke-width="1.0"/>
<line x1="87.9" y1="135.2" x2="93.0" y2="137.1" stroke="rgb(0,0,0)"  stroke-width="1.0"/>
<line x1="90.7" y1="125.3" x2="97.0" y2="127.6" stroke="rgb(0,0,0)"  stroke-width="1.0"/>
<line x1="93.5" y1="115.4" x2="101.0" y2="118.1" stroke="rgb(0,0,0)"  stroke-width="1.0"/>
<line x1="75.9" y1="167.1" x2="85.2" y2="101.4" stroke="rgb(0,0,0)"  stroke-width="1.0"/>
<line x1="75.9" y1="167.1" x2="94.1" y2="106.4" stroke="rgb(0,0,0)"  stroke-width="1.0"/>
<line x1="66.9" y1="161.9" x2="85.0" y2="122.7" stroke="rgb(0,0,0)"  stroke-width="1.0"/>
<line x1="66.9" y1="161.9" x2="79.6" y2="127.1" stroke="rgb(0,0,0)"  stroke-width="1.0"/>
<line x1="108.7" y1="123.5" x2="108.7" y2="126.0" stroke="rgb(0,0,0)"  stroke-width="1.0"/>
<line x1="108.7" y1="123.5" x2="110.1" y2="122.6" stroke="rgb(0,0,0)"  stroke-width="1.0"/>
<line x1="108.7" y1="123.5" x2="107.6" y2="122.9" stroke="rgb(0,0,0)"  stroke-width="1.0"/>
<line x1="159.9" y1="135.4" x2="160.7" y2="136.7" stroke="rgb(0,0,0)"  stroke-width="1.0"/>
<line x1="176.4" y1="131.9" x2="175.2" y2="130.4" stroke="rgb(0,0,0)"  stroke-width="1.0"/>
<line x1="176.4" y1="131.9" x2="167.3" y2="135.3" stroke="rgb(0,0,0)"  stroke-width="1.0"/>
<line x1="176.4" y1="131.9" x2="175.9" y2="134.0" stroke="rgb(0,0,0)"  stroke-width="1.0"/>
<line x1="156.2" y1="136.9" x2="155.2" y2="135.2" stroke="rgb(0,0,0)"  stroke-width="1.0"/>
<line x1="156.2" y1="136.9" x2="155.4" y2="139.2" stroke="rgb(0,0,0)"  stroke-width="1.0"/>
<line x1="156.2" y1="136.9" x2="157.2" y2="136.8" stroke="rgb(0,0,0)"  stroke-width="1.0"/>
<line x1="40.0" y1="167.1" x2="40.0" y2="177.4" stroke="rgb(0,0,0)"  stroke-width="1.0"/>
<line x1="40.0" y1="177.4" x2="57.9" y2="177.4" stroke="rgb(0,0,0)"  stroke-width="1.0"/>
<line x1="57.9" y1="177.4" x2="57.9" y2="167.1" stroke="rgb(0,0,0)"  stroke-width="1.0"/>
<line x1="57.9" y1="167.1" x2="49.0" y2="161.9" stroke="rgb(0,0,0)"  stroke-width="1.0"/>
<line x1="49.0" y1="161.9" x2="40.0" y2="167.1" stroke="rgb(0,0,0)"  stroke-width="1.0"/>
<line x1="57.9" y1="177.4" x2="66.9" y2="182.6" stroke="rgb(0,0,0)"  stroke-width="1.0"/>
<line x1="66.9" y1="182.6" x2="75.9" y2="177.4" stroke="rgb(0,0,0)"  stroke-width="1.0"/>
<line x1="75.9" y1="177.4" x2="75.9" y2="167.1" stroke="rgb(0,0,0)"  stroke-width="1.0"/>
<line x1="75.9" y1="167.1" x2="66.9" y2="161.9" stroke="rgb(0,0,0)"  stroke-width="1.0"/>
<line x1="66.9" y1="161.9" x2="57.9" y2="167.1" stroke="rgb(0,0,0)"  stroke-width="1.0"/>
<line x1="66.9" y1="193.0" x2="66.9" y2="182.6" stroke="rgb(0,0,0)"  stroke-width="1.0"/>
<line x1="75.9" y1="177.4" x2="84.8" y2="182.6" stroke="rgb(0,0,0)"  stroke-width="1.0"/>
<line x1="84.8" y1="182.6" x2="84.8" y2="193.0" stroke="rgb(0,0,0)"  stroke-width="1.0"/>
<line x1="84.8" y1="193.0" x2="75.9" y2="198.1" stroke="rgb(0,0,0)"  stroke-width="1.0"/>
<line x1="76.0" y1="189.7" x2="77.5" y2="188.9" stroke="rgb(0,0,0)"  stroke-width="1.0"/>
<line x1="75.9" y1="198.1" x2="66.9" y2="193.0" stroke="rgb(0,0,0)"  stroke-width="1.0"/>
<line x1="102.8" y1="182.6" x2="102.8" y2="192.9" stroke="rgb(0,0,0)"  stroke-width="1.0"/>
<line x1="102.8" y1="192.9" x2="93.8" y2="198.1" stroke="rgb(0,0,0)"  stroke-width="1.0"/>
<line x1="93.8" y1="198.1" x2="84.8" y2="193.0" stroke="rgb(0,0,0)"  stroke-width="1.0"/>
<line x1="84.8" y1="182.6" x2="93.8" y2="177.4" stroke="rgb(0,0,0)"  stroke-width="1.0"/>
<line x1="93.8" y1="177.4" x2="102.8" y2="182.6" stroke="rgb(0,0,0)"  stroke-width="1.0"/>
<text x="90.950734" y="66.836992" fill="rgb(255,12,12)"  stroke="rgb(255,12,12)" stroke-width="1" font-size="16" >O</text>
<text x="159.832492" y="194.097987" fill="rgb(191,191,191)"  stroke="rgb(191,191,191)" stroke-width="1" font-size="16" >H</text>
<text x="141.420705" y="187.727700" fill="rgb(191,191,191)"  stroke="rgb(191,191,191)" stroke-width="1" font-size="16" >H</text>
<text x="155.333211" y="181.489023" fill="rgb(191,191,191)"  stroke="rgb(191,191,191)" stroke-width="1" font-size="16" >H</text>
<text x="153.552294" y="174.744246" fill="rgb(191,191,191)"  stroke="rgb(191,191,191)" stroke-width="1" font-size="16" >H</text>
<text x="168.755583" y="170.163987" fill="rgb(191,191,191)"  stroke="rgb(191,191,191)" stroke-width="1" font-size="16" >H</text>
<text x="152.769464" y="154.424150" fill="rgb(191,191,191)"  stroke="rgb(191,191,191)" stroke-width="1" font-size="16" >H</text>
<text x="127.129155" y="160.957028" fill="rgb(191,191,191)"  stroke="rgb(191,191,191)" stroke-width="1" font-size="16" >H</text>
<text x="129.258637" y="155.226411" fill="rgb(191,191,191)"  stroke="rgb(191,191,191)" stroke-width="1" font-size="16" >H</text>
<text x="103.384532" y="159.862076" fill="rgb(191,191,191)"  stroke="rgb(191,191,191)" stroke-width="1" font-size="16" >H</text>
<text x="106.523752" y="172.768766" fill="rgb(191,191,191)"  stroke="rgb(191,191,191)" stroke-width="1" font-size="16" >H</text>
<text x="107.219392" y="182.335583" fill="rgb(191,191,191)"  stroke="rgb(191,191,191)" stroke-width="1" font-size="16" >H</text>
<text x="90.537567" y="173.792798" fill="rgb(191,191,191)"  stroke="rgb(191,191,191)" stroke-width="1" font-size="16" >H</text>
<text x="86.958462" y="147.226086" fill="rgb(191,191,191)"  stroke="rgb(191,191,191)" stroke-width="1" font-size="16" >H</text>
<text x="92.881830" y="139.217906" fill="rgb(191,191,191)"  stroke="rgb(191,191,191)" stroke-width="1" font-size="16" >H</text>
<text x="109.274177" y="149.584081" fill="rgb(191,191,191)"  stroke="rgb(191,191,191)" stroke-width="1" font-size="16" >H</text>
<text x="105.496064" y="117.508943" fill="rgb(191,191,191)"  stroke="rgb(191,191,191)" stroke-width="1" font-size="16" >H</text>
<text x="122.245108" y="127.467921" fill="rgb(191,191,191)"  stroke="rgb(191,191,191)" stroke-width="1" font-size="16" >H</text>
<text x="124.764783" y="129.264379" fill="rgb(191,191,191)"  stroke="rgb(191,191,191)" stroke-width="1" font-size="16" >H</text>
<text x="125.945707" y="102.943775" fill="rgb(191,191,191)"  stroke="rgb(191,191,191)" stroke-width="1" font-size="16" >H</text>
<text x="125.968628" y="115.119262" fill="rgb(191,191,191)"  stroke="rgb(191,191,191)" stroke-width="1" font-size="16" >H</text>
<text x="139.324240" y="105.670282" fill="rgb(191,191,191)"  stroke="rgb(191,191,191)" stroke-width="1" font-size="16" >H</text>
<text x="131.004095" y="92.025782" fill="rgb(191,191,191)"  stroke="rgb(191,191,191)" stroke-width="1" font-size="16" >H</text>
<text x="125.267862" y="59.247616" fill="rgb(191,191,191)"  stroke="rgb(191,191,191)" stroke-width="1" font-size="16" >H</text>
<text x="119.421870" y="70.110875" fill="rgb(191,191,191)"  stroke="rgb(191,191,191)" stroke-width="1" font-size="16" >H</text>
<text x="103.212568" y="48.087737" fill="rgb(191,191,191)"  stroke="rgb(191,191,191)" stroke-width="1" font-size="16" >H</text>
<text x="91.798511" y="77.187736" fill="rgb(191,191,191)"  stroke="rgb(191,191,191)" stroke-width="1" font-size="16" >H</text>
<text x="85.592398" y="49.900229" fill="rgb(191,191,191)"  stroke="rgb(191,191,191)" stroke-width="1" font-size="16" >H</text>
<text x="104.064180" y="48.000000" fill="rgb(191,191,191)"  stroke="rgb(191,191,191)" stroke-width="1" font-size="16" >H</text>
<text x="90.788238" y="67.262845" fill="rgb(191,191,191)"  stroke="rgb(191,191,191)" stroke-width="1" font-size="16" >H</text>
<text x="85.406506" y="75.812884" fill="rgb(191,191,191)"  stroke="rgb(191,191,191)" stroke-width="1" font-size="16" >H</text>
<text x="130.128819" y="78.458953" fill="rgb(191,191,191)"  stroke="rgb(191,191,191)" stroke-width="1" font-size="16" >H</text>
<text x="114.804856" y="71.801651" fill="rgb(191,191,191)"  stroke="rgb(191,191,191)" stroke-width="1" font-size="16" >H</text>
<text x="122.553002" y="61.049722" fill="rgb(191,191,191)"  stroke="rgb(191,191,191)" stroke-width="1" font-size="16" >H</text>
<text x="101.806145" y="94.826411" fill="rgb(191,191,191)"  stroke="rgb(191,191,191)" stroke-width="1" font-size="16" >H</text>
<text x="81.087020" y="96.524613" fill="rgb(191,191,191)"  stroke="rgb(191,191,191)" stroke-width="1" font-size="16" >H</text>
<text x="91.813149" y="101.917114" fill="rgb(191,191,191)"  stroke="rgb(191,191,191)" stroke-width="1" font-size="16" >H</text>
<text x="84.445394" y="118.886852" fill="rgb(191,191,191)"  stroke="rgb(191,191,191)" stroke-width="1" font-size="16" >H</text>
<text x="78.115425" y="122.872100" fill="rgb(191,191,191)"  stroke="rgb(191,191,191)" stroke-width="1" font-size="16" >H</text>
<text x="102.865309" y="121.033347" fill="rgb(191,191,191)"  stroke="rgb(191,191,191)" stroke-width="1" font-size="16" >H</text>
<text x="93.406451" y="137.930470" fill="rgb(191,191,191)"  stroke="rgb(191,191,191)" stroke-width="1" font-size="16" >H</text>
<text x="112.943680" y="137.269724" fill="rgb(191,191,191)"  stroke="rgb(191,191,191)" stroke-width="1" font-size="16" >H</text>
<text x="147.844896" y="133.662066" fill="rgb(191,191,191)"  stroke="rgb(191,191,191)" stroke-width="1" font-size="16" >H</text>
<text x="177.452238" y="148.435333" fill="rgb(191,191,191)"  stroke="rgb(191,191,191)" stroke-width="1" font-size="16" >H</text>
<text x="173.475997" y="138.706389" fill="rgb(191,191,191)"  stroke="rgb(191,191,191)" stroke-width="1" font-size="16" >H</text>
<text x="173.138449" y="129.371136" fill="rgb(191,191,191)"  stroke="rgb(191,191,191)" stroke-width="1" font-size="16" >H</text>
<text x="155.930798" y="154.321016" fill="rgb(191,191,191)"  stroke="rgb(191,191,191)" stroke-width="1" font-size="16" >H</text>
<text x="153.627017" y="134.915487" fill="rgb(191,191,191)"  stroke="rgb(191,191,191)" stroke-width="1" font-size="16" >H</text>
<text x="138.298012" y="146.221599" fill="rgb(191,191,191)"  stroke="rgb(191,191,191)" stroke-width="1" font-size="16" >H</text>
<text font-size="18.000000" fill ="black" font-family="sans-serif"
x="10.000000" y="20.000000" >Phytosterol</text>
<title>Phytosterol - OBDepict</title>
</svg>
