<?xml version="1.0"?>
<svg xmlns="http://www.w3.org/2000/svg"
xmlns:xlink="http://www.w3.org/1999/xlink" xmlns:cml="http://www.xml-cml.org/schema" width="525.221" height="704.987" x="0" y="0" font-family="sans-serif" stroke="rgb(0,0,0)" stroke-width="1"  stroke-linecap="round">
<rect x="0%" y="0%" width="100%" height="100%" stroke-width="0" fill="rgb(255,255,255)"  />
<line x1="169.8" y1="583.4" x2="146.2" y2="510.8" stroke="rgb(0,0,0)"  stroke-width="1.0"/>
<line x1="142.5" y1="470.1" x2="174.6" y2="449.3" stroke="rgb(0,0,0)"  stroke-width="1.0"/>
<line x1="145.8" y1="475.1" x2="177.8" y2="454.4" stroke="rgb(0,0,0)"  stroke-width="1.0"/>
<line x1="80.1" y1="514.2" x2="68.7" y2="536.7" stroke="rgb(0,0,0)"  stroke-width="1.0"/>
<line x1="111.1" y1="417.0" x2="113.1" y2="455.1" stroke="rgb(0,0,0)"  stroke-width="1.0"/>
<line x1="105.2" y1="417.3" x2="107.2" y2="455.5" stroke="rgb(0,0,0)"  stroke-width="1.0"/>
<line x1="140.2" y1="396.4" x2="108.2" y2="417.2" stroke="rgb(0,0,0)"  stroke-width="1.0"/>
<line x1="137.2" y1="396.5" x2="135.2" y2="358.4" stroke="rgb(0,0,0)"  stroke-width="1.0"/>
<line x1="143.2" y1="396.2" x2="141.2" y2="358.1" stroke="rgb(0,0,0)"  stroke-width="1.0"/>
<polygon points="168.200547 299.318665 129.968155 233.094129 137.096208 229.462205 " stroke-width="1.000000" fill="rgb(0,0,0)"  stroke="rgb(0,0,0)" />
<line x1="203.8" y1="285.6" x2="257.8" y2="231.6" stroke="rgb(0,0,0)"  stroke-width="1.0"/>
<line x1="257.8" y1="231.6" x2="311.8" y2="177.6" stroke="rgb(0,0,0)"  stroke-width="1.0"/>
<line x1="230.8" y1="204.6" x2="257.8" y2="231.6" stroke="rgb(0,0,0)"  stroke-width="1.0"/>
<line x1="240.7" y1="167.8" x2="230.8" y2="204.6" stroke="rgb(0,0,0)"  stroke-width="1.0"/>
<line x1="213.7" y1="140.8" x2="240.7" y2="167.8" stroke="rgb(0,0,0)"  stroke-width="1.0"/>
<line x1="223.6" y1="103.9" x2="213.7" y2="140.8" stroke="rgb(0,0,0)"  stroke-width="1.0"/>
<line x1="223.6" y1="103.9" x2="233.5" y2="67.0" stroke="rgb(0,0,0)"  stroke-width="1.0"/>
<line x1="186.7" y1="94.0" x2="223.6" y2="103.9" stroke="rgb(0,0,0)"  stroke-width="1.0"/>
<line x1="169.8" y1="583.4" x2="207.1" y2="591.3" stroke="rgb(0,0,0)"  stroke-width="1.0"/>
<line x1="207.1" y1="591.3" x2="215.1" y2="554.0" stroke="rgb(0,0,0)"  stroke-width="1.0"/>
<line x1="215.1" y1="554.0" x2="251.4" y2="542.2" stroke="rgb(0,0,0)"  stroke-width="1.0"/>
<line x1="251.4" y1="542.2" x2="259.3" y2="504.8" stroke="rgb(0,0,0)"  stroke-width="1.0"/>
<line x1="259.3" y1="504.8" x2="331.9" y2="481.2" stroke="rgb(0,0,0)"  stroke-width="1.0"/>
<line x1="331.9" y1="481.2" x2="320.1" y2="444.9" stroke="rgb(0,0,0)"  stroke-width="1.0"/>
<polygon points="355.013194 429.391600 396.659114 493.524449 389.730911 497.524449 " stroke-width="1.000000" fill="rgb(0,0,0)"  stroke="rgb(0,0,0)" />
<line x1="378.9" y1="369.3" x2="374.9" y2="331.3" stroke="rgb(0,0,0)"  stroke-width="1.0"/>
<line x1="384.9" y1="368.7" x2="380.9" y2="330.7" stroke="rgb(0,0,0)"  stroke-width="1.0"/>
<line x1="377.9" y1="331.0" x2="408.8" y2="308.6" stroke="rgb(0,0,0)"  stroke-width="1.0"/>
<line x1="405.8" y1="308.9" x2="401.8" y2="270.9" stroke="rgb(0,0,0)"  stroke-width="1.0"/>
<line x1="411.8" y1="308.2" x2="407.8" y2="270.3" stroke="rgb(0,0,0)"  stroke-width="1.0"/>
<line x1="371.7" y1="257.5" x2="340.8" y2="279.9" stroke="rgb(0,0,0)"  stroke-width="1.0"/>
<line x1="368.2" y1="252.6" x2="337.3" y2="275.1" stroke="rgb(0,0,0)"  stroke-width="1.0"/>
<line x1="431.7" y1="210.2" x2="442.0" y2="187.2" stroke="rgb(0,0,0)"  stroke-width="1.0"/>
<line x1="331.9" y1="481.2" x2="355.5" y2="553.9" stroke="rgb(0,0,0)"  stroke-width="1.0"/>
<line x1="207.1" y1="591.3" x2="199.2" y2="628.7" stroke="rgb(0,0,0)"  stroke-width="1.0"/>
<line x1="169.8" y1="583.4" x2="145.8" y2="591.2" stroke="rgb(0,0,0)"  stroke-width="1.0"/>
<line x1="169.8" y1="583.4" x2="164.5" y2="608.0" stroke="rgb(0,0,0)"  stroke-width="1.0"/>
<line x1="207.1" y1="591.3" x2="231.7" y2="596.6" stroke="rgb(0,0,0)"  stroke-width="1.0"/>
<line x1="199.2" y1="628.7" x2="207.0" y2="652.6" stroke="rgb(0,0,0)"  stroke-width="1.0"/>
<line x1="199.2" y1="628.7" x2="223.8" y2="633.9" stroke="rgb(0,0,0)"  stroke-width="1.0"/>
<line x1="199.2" y1="628.7" x2="175.2" y2="636.5" stroke="rgb(0,0,0)"  stroke-width="1.0"/>
<line x1="215.1" y1="554.0" x2="190.4" y2="548.7" stroke="rgb(0,0,0)"  stroke-width="1.0"/>
<line x1="215.1" y1="554.0" x2="207.3" y2="530.0" stroke="rgb(0,0,0)"  stroke-width="1.0"/>
<line x1="251.4" y1="542.2" x2="259.1" y2="566.1" stroke="rgb(0,0,0)"  stroke-width="1.0"/>
<line x1="251.4" y1="542.2" x2="276.0" y2="547.4" stroke="rgb(0,0,0)"  stroke-width="1.0"/>
<line x1="259.3" y1="504.8" x2="234.7" y2="499.6" stroke="rgb(0,0,0)"  stroke-width="1.0"/>
<line x1="259.3" y1="504.8" x2="251.5" y2="480.9" stroke="rgb(0,0,0)"  stroke-width="1.0"/>
<line x1="336.5" y1="478.9" x2="337.0" y2="480.4" stroke="rgb(0,0,0)"  stroke-width="1.0"/>
<line x1="340.2" y1="477.0" x2="341.1" y2="479.8" stroke="rgb(0,0,0)"  stroke-width="1.0"/>
<line x1="343.9" y1="475.1" x2="345.2" y2="479.1" stroke="rgb(0,0,0)"  stroke-width="1.0"/>
<line x1="347.6" y1="473.3" x2="349.3" y2="478.4" stroke="rgb(0,0,0)"  stroke-width="1.0"/>
<line x1="351.3" y1="471.4" x2="353.4" y2="477.8" stroke="rgb(0,0,0)"  stroke-width="1.0"/>
<line x1="355.0" y1="469.5" x2="357.5" y2="477.1" stroke="rgb(0,0,0)"  stroke-width="1.0"/>
<line x1="355.5" y1="553.9" x2="350.3" y2="578.5" stroke="rgb(0,0,0)"  stroke-width="1.0"/>
<line x1="355.5" y1="553.9" x2="331.6" y2="561.6" stroke="rgb(0,0,0)"  stroke-width="1.0"/>
<line x1="355.5" y1="553.9" x2="380.2" y2="559.1" stroke="rgb(0,0,0)"  stroke-width="1.0"/>
<polygon points="320.132368 444.921544 305.987370 466.609063 300.042211 461.256018 " stroke-width="1.000000" fill="rgb(0,0,0)"  stroke="rgb(0,0,0)" />
<line x1="294.6" y1="416.5" x2="274.2" y2="431.3" stroke="rgb(0,0,0)"  stroke-width="1.0"/>
<line x1="294.6" y1="416.5" x2="271.6" y2="406.3" stroke="rgb(0,0,0)"  stroke-width="1.0"/>
<line x1="313.7" y1="383.5" x2="293.3" y2="368.7" stroke="rgb(0,0,0)"  stroke-width="1.0"/>
<line x1="313.7" y1="383.5" x2="316.3" y2="358.4" stroke="rgb(0,0,0)"  stroke-width="1.0"/>
<line x1="351.0" y1="391.4" x2="358.8" y2="367.5" stroke="rgb(0,0,0)"  stroke-width="1.0"/>
<line x1="416.8" y1="384.5" x2="427.0" y2="361.5" stroke="rgb(0,0,0)"  stroke-width="1.0"/>
<line x1="416.8" y1="384.5" x2="441.8" y2="381.9" stroke="rgb(0,0,0)"  stroke-width="1.0"/>
<line x1="420.8" y1="422.5" x2="445.8" y2="419.8" stroke="rgb(0,0,0)"  stroke-width="1.0"/>
<line x1="420.8" y1="422.5" x2="435.6" y2="442.9" stroke="rgb(0,0,0)"  stroke-width="1.0"/>
<line x1="389.9" y1="444.9" x2="404.7" y2="465.3" stroke="rgb(0,0,0)"  stroke-width="1.0"/>
<line x1="389.9" y1="444.9" x2="379.7" y2="467.9" stroke="rgb(0,0,0)"  stroke-width="1.0"/>
<line x1="393.2" y1="495.5" x2="393.2" y2="520.7" stroke="rgb(0,0,0)"  stroke-width="1.0"/>
<line x1="393.2" y1="495.5" x2="371.4" y2="508.1" stroke="rgb(0,0,0)"  stroke-width="1.0"/>
<line x1="393.2" y1="495.5" x2="418.4" y2="495.5" stroke="rgb(0,0,0)"  stroke-width="1.0"/>
<line x1="377.9" y1="331.0" x2="354.9" y2="320.8" stroke="rgb(0,0,0)"  stroke-width="1.0"/>
<line x1="408.8" y1="308.6" x2="431.8" y2="318.8" stroke="rgb(0,0,0)"  stroke-width="1.0"/>
<line x1="435.7" y1="248.1" x2="460.8" y2="245.5" stroke="rgb(0,0,0)"  stroke-width="1.0"/>
<line x1="435.7" y1="248.1" x2="450.5" y2="268.5" stroke="rgb(0,0,0)"  stroke-width="1.0"/>
<line x1="436.7" y1="208.8" x2="436.9" y2="210.4" stroke="rgb(0,0,0)"  stroke-width="1.0"/>
<line x1="440.7" y1="207.8" x2="441.0" y2="210.6" stroke="rgb(0,0,0)"  stroke-width="1.0"/>
<line x1="444.7" y1="206.7" x2="445.2" y2="210.9" stroke="rgb(0,0,0)"  stroke-width="1.0"/>
<line x1="448.7" y1="205.6" x2="449.3" y2="211.1" stroke="rgb(0,0,0)"  stroke-width="1.0"/>
<line x1="452.7" y1="204.6" x2="453.4" y2="211.3" stroke="rgb(0,0,0)"  stroke-width="1.0"/>
<line x1="456.7" y1="203.5" x2="457.6" y2="211.5" stroke="rgb(0,0,0)"  stroke-width="1.0"/>
<line x1="460.2" y1="173.9" x2="472.3" y2="172.7" stroke="rgb(0,0,0)"  stroke-width="1.0"/>
<line x1="396.8" y1="194.6" x2="382.0" y2="174.3" stroke="rgb(0,0,0)"  stroke-width="1.0"/>
<line x1="396.8" y1="194.6" x2="407.1" y2="171.6" stroke="rgb(0,0,0)"  stroke-width="1.0"/>
<line x1="365.9" y1="217.1" x2="340.9" y2="219.7" stroke="rgb(0,0,0)"  stroke-width="1.0"/>
<line x1="365.9" y1="217.1" x2="351.1" y2="196.7" stroke="rgb(0,0,0)"  stroke-width="1.0"/>
<line x1="339.0" y1="277.5" x2="341.7" y2="302.5" stroke="rgb(0,0,0)"  stroke-width="1.0"/>
<line x1="339.0" y1="277.5" x2="316.0" y2="267.3" stroke="rgb(0,0,0)"  stroke-width="1.0"/>
<line x1="186.7" y1="94.0" x2="168.9" y2="76.2" stroke="rgb(0,0,0)"  stroke-width="1.0"/>
<line x1="186.7" y1="94.0" x2="193.2" y2="69.7" stroke="rgb(0,0,0)"  stroke-width="1.0"/>
<line x1="186.7" y1="94.0" x2="168.9" y2="111.8" stroke="rgb(0,0,0)"  stroke-width="1.0"/>
<line x1="223.6" y1="103.9" x2="247.9" y2="110.4" stroke="rgb(0,0,0)"  stroke-width="1.0"/>
<line x1="233.5" y1="67.0" x2="251.3" y2="49.2" stroke="rgb(0,0,0)"  stroke-width="1.0"/>
<line x1="233.5" y1="67.0" x2="257.8" y2="73.5" stroke="rgb(0,0,0)"  stroke-width="1.0"/>
<line x1="233.5" y1="67.0" x2="215.7" y2="49.2" stroke="rgb(0,0,0)"  stroke-width="1.0"/>
<line x1="213.7" y1="140.8" x2="189.4" y2="134.2" stroke="rgb(0,0,0)"  stroke-width="1.0"/>
<line x1="213.7" y1="140.8" x2="195.9" y2="158.6" stroke="rgb(0,0,0)"  stroke-width="1.0"/>
<line x1="240.7" y1="167.8" x2="258.5" y2="150.0" stroke="rgb(0,0,0)"  stroke-width="1.0"/>
<line x1="240.7" y1="167.8" x2="265.1" y2="174.3" stroke="rgb(0,0,0)"  stroke-width="1.0"/>
<line x1="230.8" y1="204.6" x2="206.5" y2="198.1" stroke="rgb(0,0,0)"  stroke-width="1.0"/>
<line x1="230.8" y1="204.6" x2="213.0" y2="222.4" stroke="rgb(0,0,0)"  stroke-width="1.0"/>
<polygon points="257.843590 231.638280 278.761094 246.898930 273.104240 252.555785 " stroke-width="1.000000" fill="rgb(0,0,0)"  stroke="rgb(0,0,0)" />
<line x1="311.8" y1="177.6" x2="318.4" y2="153.3" stroke="rgb(0,0,0)"  stroke-width="1.0"/>
<line x1="311.8" y1="177.6" x2="294.0" y2="159.8" stroke="rgb(0,0,0)"  stroke-width="1.0"/>
<line x1="311.8" y1="177.6" x2="336.2" y2="184.2" stroke="rgb(0,0,0)"  stroke-width="1.0"/>
<polygon points="203.846345 285.635526 193.361580 261.960663 201.088987 259.890111 " stroke-width="1.000000" fill="rgb(0,0,0)"  stroke="rgb(0,0,0)" />
<line x1="227.9" y1="315.3" x2="250.3" y2="326.7" stroke="rgb(0,0,0)"  stroke-width="1.0"/>
<line x1="227.9" y1="315.3" x2="249.0" y2="301.6" stroke="rgb(0,0,0)"  stroke-width="1.0"/>
<line x1="207.1" y1="347.3" x2="203.1" y2="372.2" stroke="rgb(0,0,0)"  stroke-width="1.0"/>
<line x1="207.1" y1="347.3" x2="226.6" y2="363.2" stroke="rgb(0,0,0)"  stroke-width="1.0"/>
<line x1="170.2" y1="337.4" x2="161.2" y2="361.0" stroke="rgb(0,0,0)"  stroke-width="1.0"/>
<line x1="104.2" y1="340.9" x2="79.0" y2="342.2" stroke="rgb(0,0,0)"  stroke-width="1.0"/>
<line x1="104.2" y1="340.9" x2="92.7" y2="363.3" stroke="rgb(0,0,0)"  stroke-width="1.0"/>
<line x1="102.2" y1="302.8" x2="88.4" y2="281.7" stroke="rgb(0,0,0)"  stroke-width="1.0"/>
<line x1="102.2" y1="302.8" x2="77.0" y2="304.1" stroke="rgb(0,0,0)"  stroke-width="1.0"/>
<line x1="134.2" y1="282.0" x2="145.6" y2="259.5" stroke="rgb(0,0,0)"  stroke-width="1.0"/>
<line x1="134.2" y1="282.0" x2="120.5" y2="260.9" stroke="rgb(0,0,0)"  stroke-width="1.0"/>
<line x1="133.5" y1="231.3" x2="134.9" y2="206.1" stroke="rgb(0,0,0)"  stroke-width="1.0"/>
<line x1="133.5" y1="231.3" x2="156.0" y2="219.8" stroke="rgb(0,0,0)"  stroke-width="1.0"/>
<line x1="133.5" y1="231.3" x2="108.4" y2="230.0" stroke="rgb(0,0,0)"  stroke-width="1.0"/>
<line x1="140.2" y1="396.4" x2="162.6" y2="407.8" stroke="rgb(0,0,0)"  stroke-width="1.0"/>
<line x1="108.2" y1="417.2" x2="85.7" y2="405.7" stroke="rgb(0,0,0)"  stroke-width="1.0"/>
<line x1="78.1" y1="476.1" x2="53.0" y2="477.4" stroke="rgb(0,0,0)"  stroke-width="1.0"/>
<line x1="78.1" y1="476.1" x2="64.4" y2="455.0" stroke="rgb(0,0,0)"  stroke-width="1.0"/>
<line x1="75.1" y1="515.3" x2="75.0" y2="513.7" stroke="rgb(0,0,0)"  stroke-width="1.0"/>
<line x1="71.0" y1="516.1" x2="70.9" y2="513.3" stroke="rgb(0,0,0)"  stroke-width="1.0"/>
<line x1="67.0" y1="517.0" x2="66.7" y2="512.8" stroke="rgb(0,0,0)"  stroke-width="1.0"/>
<line x1="62.9" y1="517.8" x2="62.6" y2="512.4" stroke="rgb(0,0,0)"  stroke-width="1.0"/>
<line x1="58.8" y1="518.7" x2="58.5" y2="512.0" stroke="rgb(0,0,0)"  stroke-width="1.0"/>
<line x1="54.8" y1="519.6" x2="54.4" y2="511.6" stroke="rgb(0,0,0)"  stroke-width="1.0"/>
<line x1="69.9" y1="559.1" x2="76.5" y2="569.4" stroke="rgb(0,0,0)"  stroke-width="1.0"/>
<line x1="114.1" y1="531.6" x2="127.9" y2="552.7" stroke="rgb(0,0,0)"  stroke-width="1.0"/>
<line x1="114.1" y1="531.6" x2="102.7" y2="554.0" stroke="rgb(0,0,0)"  stroke-width="1.0"/>
<line x1="146.2" y1="510.8" x2="165.3" y2="494.4" stroke="rgb(0,0,0)"  stroke-width="1.0"/>
<line x1="176.2" y1="451.8" x2="174.9" y2="426.7" stroke="rgb(0,0,0)"  stroke-width="1.0"/>
<line x1="176.2" y1="451.8" x2="198.6" y2="463.3" stroke="rgb(0,0,0)"  stroke-width="1.0"/>
<line x1="294.6" y1="416.5" x2="313.7" y2="383.5" stroke="rgb(0,0,0)"  stroke-width="1.0"/>
<line x1="313.7" y1="383.5" x2="351.0" y2="391.4" stroke="rgb(0,0,0)"  stroke-width="1.0"/>
<line x1="351.0" y1="391.4" x2="355.0" y2="429.4" stroke="rgb(0,0,0)"  stroke-width="1.0"/>
<line x1="355.0" y1="429.4" x2="320.1" y2="444.9" stroke="rgb(0,0,0)"  stroke-width="1.0"/>
<line x1="320.1" y1="444.9" x2="294.6" y2="416.5" stroke="rgb(0,0,0)"  stroke-width="1.0"/>
<line x1="227.9" y1="315.3" x2="207.1" y2="347.3" stroke="rgb(0,0,0)"  stroke-width="1.0"/>
<line x1="207.1" y1="347.3" x2="170.2" y2="337.4" stroke="rgb(0,0,0)"  stroke-width="1.0"/>
<line x1="170.2" y1="337.4" x2="168.2" y2="299.3" stroke="rgb(0,0,0)"  stroke-width="1.0"/>
<line x1="168.2" y1="299.3" x2="203.8" y2="285.6" stroke="rgb(0,0,0)"  stroke-width="1.0"/>
<line x1="203.8" y1="285.6" x2="227.9" y2="315.3" stroke="rgb(0,0,0)"  stroke-width="1.0"/>
<line x1="351.0" y1="391.4" x2="381.9" y2="369.0" stroke="rgb(0,0,0)"  stroke-width="1.0"/>
<line x1="381.9" y1="369.0" x2="416.8" y2="384.5" stroke="rgb(0,0,0)"  stroke-width="1.0"/>
<line x1="416.8" y1="384.5" x2="420.8" y2="422.5" stroke="rgb(0,0,0)"  stroke-width="1.0"/>
<line x1="420.8" y1="422.5" x2="389.9" y2="444.9" stroke="rgb(0,0,0)"  stroke-width="1.0"/>
<line x1="389.9" y1="444.9" x2="355.0" y2="429.4" stroke="rgb(0,0,0)"  stroke-width="1.0"/>
<line x1="170.2" y1="337.4" x2="138.2" y2="358.2" stroke="rgb(0,0,0)"  stroke-width="1.0"/>
<line x1="138.2" y1="358.2" x2="104.2" y2="340.9" stroke="rgb(0,0,0)"  stroke-width="1.0"/>
<line x1="104.2" y1="340.9" x2="102.2" y2="302.8" stroke="rgb(0,0,0)"  stroke-width="1.0"/>
<line x1="102.2" y1="302.8" x2="134.2" y2="282.0" stroke="rgb(0,0,0)"  stroke-width="1.0"/>
<line x1="134.2" y1="282.0" x2="168.2" y2="299.3" stroke="rgb(0,0,0)"  stroke-width="1.0"/>
<line x1="404.8" y1="270.6" x2="435.7" y2="248.1" stroke="rgb(0,0,0)"  stroke-width="1.0"/>
<line x1="435.7" y1="248.1" x2="431.7" y2="210.2" stroke="rgb(0,0,0)"  stroke-width="1.0"/>
<line x1="431.7" y1="210.2" x2="396.8" y2="194.6" stroke="rgb(0,0,0)"  stroke-width="1.0"/>
<line x1="396.8" y1="194.6" x2="365.9" y2="217.1" stroke="rgb(0,0,0)"  stroke-width="1.0"/>
<line x1="365.9" y1="217.1" x2="369.9" y2="255.1" stroke="rgb(0,0,0)"  stroke-width="1.0"/>
<line x1="369.9" y1="255.1" x2="404.8" y2="270.6" stroke="rgb(0,0,0)"  stroke-width="1.0"/>
<line x1="80.1" y1="514.2" x2="114.1" y2="531.6" stroke="rgb(0,0,0)"  stroke-width="1.0"/>
<line x1="114.1" y1="531.6" x2="146.2" y2="510.8" stroke="rgb(0,0,0)"  stroke-width="1.0"/>
<line x1="146.2" y1="510.8" x2="144.2" y2="472.6" stroke="rgb(0,0,0)"  stroke-width="1.0"/>
<line x1="144.2" y1="472.6" x2="110.2" y2="455.3" stroke="rgb(0,0,0)"  stroke-width="1.0"/>
<line x1="110.2" y1="455.3" x2="78.1" y2="476.1" stroke="rgb(0,0,0)"  stroke-width="1.0"/>
<line x1="78.1" y1="476.1" x2="80.1" y2="514.2" stroke="rgb(0,0,0)"  stroke-width="1.0"/>
<text x="441.248011" y="183.292028" fill="rgb(255,12,12)"  stroke="rgb(255,12,12)" stroke-width="1" font-size="16" >O</text>
<text x="56.793591" y="556.242806" fill="rgb(255,12,12)"  stroke="rgb(255,12,12)" stroke-width="1" font-size="16" >O</text>
<text x="127.454584" y="603.186395" fill="rgb(191,191,191)"  stroke="rgb(191,191,191)" stroke-width="1" font-size="16" >H</text>
<text x="155.829205" y="628.735019" fill="rgb(191,191,191)"  stroke="rgb(191,191,191)" stroke-width="1" font-size="16" >H</text>
<text x="238.462559" y="607.264457" fill="rgb(191,191,191)"  stroke="rgb(191,191,191)" stroke-width="1" font-size="16" >H</text>
<text x="204.975489" y="672.986532" fill="rgb(191,191,191)"  stroke="rgb(191,191,191)" stroke-width="1" font-size="16" >H</text>
<text x="230.524112" y="644.611911" fill="rgb(191,191,191)"  stroke="rgb(191,191,191)" stroke-width="1" font-size="16" >H</text>
<text x="156.863591" y="648.472296" fill="rgb(191,191,191)"  stroke="rgb(191,191,191)" stroke-width="1" font-size="16" >H</text>
<text x="171.706097" y="554.040111" fill="rgb(191,191,191)"  stroke="rgb(191,191,191)" stroke-width="1" font-size="16" >H</text>
<text x="197.254720" y="525.665490" fill="rgb(191,191,191)"  stroke="rgb(191,191,191)" stroke-width="1" font-size="16" >H</text>
<text x="257.165449" y="586.492794" fill="rgb(191,191,191)"  stroke="rgb(191,191,191)" stroke-width="1" font-size="16" >H</text>
<text x="282.714072" y="558.118173" fill="rgb(191,191,191)"  stroke="rgb(191,191,191)" stroke-width="1" font-size="16" >H</text>
<text x="215.957611" y="504.893826" fill="rgb(191,191,191)"  stroke="rgb(191,191,191)" stroke-width="1" font-size="16" >H</text>
<text x="241.506234" y="476.519206" fill="rgb(191,191,191)"  stroke="rgb(191,191,191)" stroke-width="1" font-size="16" >H</text>
<text x="362.244265" y="477.435781" fill="rgb(191,191,191)"  stroke="rgb(191,191,191)" stroke-width="1" font-size="16" >H</text>
<text x="341.590413" y="599.208199" fill="rgb(191,191,191)"  stroke="rgb(191,191,191)" stroke-width="1" font-size="16" >H</text>
<text x="313.215793" y="573.659576" fill="rgb(191,191,191)"  stroke="rgb(191,191,191)" stroke-width="1" font-size="16" >H</text>
<text x="386.876314" y="569.799192" fill="rgb(191,191,191)"  stroke="rgb(191,191,191)" stroke-width="1" font-size="16" >H</text>
<text x="288.583745" y="481.296165" fill="rgb(191,191,191)"  stroke="rgb(191,191,191)" stroke-width="1" font-size="16" >H</text>
<text x="257.694005" y="446.989633" fill="rgb(191,191,191)"  stroke="rgb(191,191,191)" stroke-width="1" font-size="16" >H</text>
<text x="253.702918" y="409.016979" fill="rgb(191,191,191)"  stroke="rgb(191,191,191)" stroke-width="1" font-size="16" >H</text>
<text x="276.784914" y="369.037790" fill="rgb(191,191,191)"  stroke="rgb(191,191,191)" stroke-width="1" font-size="16" >H</text>
<text x="311.665741" y="353.507845" fill="rgb(191,191,191)"  stroke="rgb(191,191,191)" stroke-width="1" font-size="16" >H</text>
<text x="356.820938" y="363.105879" fill="rgb(191,191,191)"  stroke="rgb(191,191,191)" stroke-width="1" font-size="16" >H</text>
<text x="426.322618" y="357.625354" fill="rgb(191,191,191)"  stroke="rgb(191,191,191)" stroke-width="1" font-size="16" >H</text>
<text x="448.765328" y="388.515094" fill="rgb(191,191,191)"  stroke="rgb(191,191,191)" stroke-width="1" font-size="16" >H</text>
<text x="452.756415" y="426.487748" fill="rgb(191,191,191)"  stroke="rgb(191,191,191)" stroke-width="1" font-size="16" >H</text>
<text x="437.226470" y="461.368574" fill="rgb(191,191,191)"  stroke="rgb(191,191,191)" stroke-width="1" font-size="16" >H</text>
<text x="406.336731" y="483.811284" fill="rgb(191,191,191)"  stroke="rgb(191,191,191)" stroke-width="1" font-size="16" >H</text>
<text x="368.364076" y="487.802371" fill="rgb(191,191,191)"  stroke="rgb(191,191,191)" stroke-width="1" font-size="16" >H</text>
<text x="387.195013" y="541.706267" fill="rgb(191,191,191)"  stroke="rgb(191,191,191)" stroke-width="1" font-size="16" >H</text>
<text x="354.128588" y="522.615358" fill="rgb(191,191,191)"  stroke="rgb(191,191,191)" stroke-width="1" font-size="16" >H</text>
<text x="425.376831" y="503.524449" fill="rgb(191,191,191)"  stroke="rgb(191,191,191)" stroke-width="1" font-size="16" >H</text>
<text x="337.039934" y="323.473637" fill="rgb(191,191,191)"  stroke="rgb(191,191,191)" stroke-width="1" font-size="16" >H</text>
<text x="437.691327" y="332.090817" fill="rgb(191,191,191)"  stroke="rgb(191,191,191)" stroke-width="1" font-size="16" >H</text>
<text x="467.681808" y="252.154422" fill="rgb(191,191,191)"  stroke="rgb(191,191,191)" stroke-width="1" font-size="16" >H</text>
<text x="452.151863" y="287.035248" fill="rgb(191,191,191)"  stroke="rgb(191,191,191)" stroke-width="1" font-size="16" >H</text>
<text x="463.690721" y="214.181767" fill="rgb(191,191,191)"  stroke="rgb(191,191,191)" stroke-width="1" font-size="16" >H</text>
<text x="479.220665" y="179.300941" fill="rgb(191,191,191)"  stroke="rgb(191,191,191)" stroke-width="1" font-size="16" >H</text>
<text x="368.394530" y="171.753170" fill="rgb(191,191,191)"  stroke="rgb(191,191,191)" stroke-width="1" font-size="16" >H</text>
<text x="406.367185" y="167.762083" fill="rgb(191,191,191)"  stroke="rgb(191,191,191)" stroke-width="1" font-size="16" >H</text>
<text x="321.974846" y="229.076706" fill="rgb(191,191,191)"  stroke="rgb(191,191,191)" stroke-width="1" font-size="16" >H</text>
<text x="337.504791" y="194.195879" fill="rgb(191,191,191)"  stroke="rgb(191,191,191)" stroke-width="1" font-size="16" >H</text>
<text x="337.039934" y="323.473637" fill="rgb(191,191,191)"  stroke="rgb(191,191,191)" stroke-width="1" font-size="16" >H</text>
<text x="298.168021" y="269.971038" fill="rgb(191,191,191)"  stroke="rgb(191,191,191)" stroke-width="1" font-size="16" >H</text>
<text x="153.731282" y="74.998623" fill="rgb(191,191,191)"  stroke="rgb(191,191,191)" stroke-width="1" font-size="16" >H</text>
<text x="190.612086" y="65.116441" fill="rgb(191,191,191)"  stroke="rgb(191,191,191)" stroke-width="1" font-size="16" >H</text>
<text x="153.731282" y="128.995868" fill="rgb(191,191,191)"  stroke="rgb(191,191,191)" stroke-width="1" font-size="16" >H</text>
<text x="254.491513" y="121.761609" fill="rgb(191,191,191)"  stroke="rgb(191,191,191)" stroke-width="1" font-size="16" >H</text>
<text x="254.491513" y="48.000000" fill="rgb(191,191,191)"  stroke="rgb(191,191,191)" stroke-width="1" font-size="16" >H</text>
<text x="264.373694" y="84.880804" fill="rgb(191,191,191)"  stroke="rgb(191,191,191)" stroke-width="1" font-size="16" >H</text>
<text x="200.494268" y="48.000000" fill="rgb(191,191,191)"  stroke="rgb(191,191,191)" stroke-width="1" font-size="16" >H</text>
<text x="170.847722" y="138.878049" fill="rgb(191,191,191)"  stroke="rgb(191,191,191)" stroke-width="1" font-size="16" >H</text>
<text x="180.729904" y="175.758854" fill="rgb(191,191,191)"  stroke="rgb(191,191,191)" stroke-width="1" font-size="16" >H</text>
<text x="261.725772" y="148.760231" fill="rgb(191,191,191)"  stroke="rgb(191,191,191)" stroke-width="1" font-size="16" >H</text>
<text x="271.607954" y="185.641035" fill="rgb(191,191,191)"  stroke="rgb(191,191,191)" stroke-width="1" font-size="16" >H</text>
<text x="187.964163" y="202.757476" fill="rgb(191,191,191)"  stroke="rgb(191,191,191)" stroke-width="1" font-size="16" >H</text>
<text x="197.846345" y="239.638280" fill="rgb(191,191,191)"  stroke="rgb(191,191,191)" stroke-width="1" font-size="16" >H</text>
<text x="278.842213" y="266.636903" fill="rgb(191,191,191)"  stroke="rgb(191,191,191)" stroke-width="1" font-size="16" >H</text>
<text x="315.723017" y="148.760231" fill="rgb(191,191,191)"  stroke="rgb(191,191,191)" stroke-width="1" font-size="16" >H</text>
<text x="278.842213" y="158.642413" fill="rgb(191,191,191)"  stroke="rgb(191,191,191)" stroke-width="1" font-size="16" >H</text>
<text x="342.721639" y="195.523217" fill="rgb(191,191,191)"  stroke="rgb(191,191,191)" stroke-width="1" font-size="16" >H</text>
<text x="187.964163" y="256.754721" fill="rgb(191,191,191)"  stroke="rgb(191,191,191)" stroke-width="1" font-size="16" >H</text>
<text x="255.895191" y="340.642554" fill="rgb(191,191,191)"  stroke="rgb(191,191,191)" stroke-width="1" font-size="16" >H</text>
<text x="253.896909" y="302.513063" fill="rgb(191,191,191)"  stroke="rgb(191,191,191)" stroke-width="1" font-size="16" >H</text>
<text x="195.106681" y="393.042075" fill="rgb(191,191,191)"  stroke="rgb(191,191,191)" stroke-width="1" font-size="16" >H</text>
<text x="230.752479" y="379.358935" fill="rgb(191,191,191)"  stroke="rgb(191,191,191)" stroke-width="1" font-size="16" >H</text>
<text x="150.515689" y="381.093955" fill="rgb(191,191,191)"  stroke="rgb(191,191,191)" stroke-width="1" font-size="16" >H</text>
<text x="60.027121" y="350.907565" fill="rgb(191,191,191)"  stroke="rgb(191,191,191)" stroke-width="1" font-size="16" >H</text>
<text x="80.822430" y="382.929532" fill="rgb(191,191,191)"  stroke="rgb(191,191,191)" stroke-width="1" font-size="16" >H</text>
<text x="75.363022" y="278.757824" fill="rgb(191,191,191)"  stroke="rgb(191,191,191)" stroke-width="1" font-size="16" >H</text>
<text x="58.028839" y="312.778073" fill="rgb(191,191,191)"  stroke="rgb(191,191,191)" stroke-width="1" font-size="16" >H</text>
<text x="145.514480" y="255.964234" fill="rgb(191,191,191)"  stroke="rgb(191,191,191)" stroke-width="1" font-size="16" >H</text>
<text x="107.384989" y="257.962516" fill="rgb(191,191,191)"  stroke="rgb(191,191,191)" stroke-width="1" font-size="16" >H</text>
<text x="129.530463" y="201.148676" fill="rgb(191,191,191)"  stroke="rgb(191,191,191)" stroke-width="1" font-size="16" >H</text>
<text x="161.552431" y="221.943985" fill="rgb(191,191,191)"  stroke="rgb(191,191,191)" stroke-width="1" font-size="16" >H</text>
<text x="89.402690" y="237.279885" fill="rgb(191,191,191)"  stroke="rgb(191,191,191)" stroke-width="1" font-size="16" >H</text>
<text x="168.195393" y="421.707139" fill="rgb(191,191,191)"  stroke="rgb(191,191,191)" stroke-width="1" font-size="16" >H</text>
<text x="68.132927" y="407.834083" fill="rgb(191,191,191)"  stroke="rgb(191,191,191)" stroke-width="1" font-size="16" >H</text>
<text x="34.000000" y="486.091347" fill="rgb(191,191,191)"  stroke="rgb(191,191,191)" stroke-width="1" font-size="16" >H</text>
<text x="51.334183" y="452.071098" fill="rgb(191,191,191)"  stroke="rgb(191,191,191)" stroke-width="1" font-size="16" >H</text>
<text x="35.998282" y="524.220839" fill="rgb(191,191,191)"  stroke="rgb(191,191,191)" stroke-width="1" font-size="16" >H</text>
<text x="77.588899" y="588.264773" fill="rgb(191,191,191)"  stroke="rgb(191,191,191)" stroke-width="1" font-size="16" >H</text>
<text x="128.943331" y="571.578706" fill="rgb(191,191,191)"  stroke="rgb(191,191,191)" stroke-width="1" font-size="16" >H</text>
<text x="90.813840" y="573.576988" fill="rgb(191,191,191)"  stroke="rgb(191,191,191)" stroke-width="1" font-size="16" >H</text>
<text x="169.203672" y="493.964323" fill="rgb(191,191,191)"  stroke="rgb(191,191,191)" stroke-width="1" font-size="16" >H</text>
<text x="168.195393" y="421.707139" fill="rgb(191,191,191)"  stroke="rgb(191,191,191)" stroke-width="1" font-size="16" >H</text>
<text x="204.213924" y="477.170814" fill="rgb(191,191,191)"  stroke="rgb(191,191,191)" stroke-width="1" font-size="16" >H</text>
<text font-size="18.000000" fill ="black" font-family="sans-serif"
x="10.000000" y="20.000000" >26 Vitamin D3 (cholecalciferol)</text>
<title>26 Vitamin D3 (cholecalciferol) - OBDepict</title>
</svg>
