<?xml version="1.0"?>
<svg xmlns="http://www.w3.org/2000/svg"
xmlns:xlink="http://www.w3.org/1999/xlink" xmlns:cml="http://www.xml-cml.org/schema" width="221.58" height="275.778" x="0" y="0" font-family="sans-serif" stroke="rgb(0,0,0)" stroke-width="1"  stroke-linecap="round">
<rect x="0%" y="0%" width="100%" height="100%" stroke-width="0" fill="rgb(255,255,255)"  />
<line x1="123.2" y1="50.0" x2="128.1" y2="73.2" stroke="rgb(0,0,0)"  stroke-width="1.0"/>
<line x1="114.0" y1="74.9" x2="117.0" y2="85.7" stroke="rgb(0,0,0)"  stroke-width="1.0"/>
<line x1="133.2" y1="78.6" x2="152.6" y2="67.0" stroke="rgb(0,0,0)"  stroke-width="1.0"/>
<line x1="128.1" y1="73.2" x2="145.6" y2="80.1" stroke="rgb(0,0,0)"  stroke-width="1.0"/>
<line x1="62.3" y1="65.5" x2="61.6" y2="66.9" stroke="rgb(0,0,0)"  stroke-width="1.0"/>
<line x1="69.9" y1="68.8" x2="68.5" y2="71.3" stroke="rgb(0,0,0)"  stroke-width="1.0"/>
<line x1="77.4" y1="72.1" x2="75.5" y2="75.7" stroke="rgb(0,0,0)"  stroke-width="1.0"/>
<line x1="85.0" y1="75.4" x2="82.4" y2="80.2" stroke="rgb(0,0,0)"  stroke-width="1.0"/>
<line x1="92.5" y1="78.7" x2="89.3" y2="84.6" stroke="rgb(0,0,0)"  stroke-width="1.0"/>
<line x1="100.1" y1="82.0" x2="96.3" y2="89.1" stroke="rgb(0,0,0)"  stroke-width="1.0"/>
<line x1="130.4" y1="106.0" x2="123.6" y2="209.8" stroke="rgb(0,0,0)"  stroke-width="1.0"/>
<line x1="118.8" y1="106.1" x2="117.6" y2="107.1" stroke="rgb(0,0,0)"  stroke-width="1.0"/>
<line x1="130.2" y1="118.0" x2="128.0" y2="119.9" stroke="rgb(0,0,0)"  stroke-width="1.0"/>
<line x1="141.5" y1="130.0" x2="138.4" y2="132.7" stroke="rgb(0,0,0)"  stroke-width="1.0"/>
<line x1="152.9" y1="141.9" x2="148.8" y2="145.5" stroke="rgb(0,0,0)"  stroke-width="1.0"/>
<line x1="164.3" y1="153.9" x2="159.2" y2="158.3" stroke="rgb(0,0,0)"  stroke-width="1.0"/>
<line x1="175.6" y1="165.8" x2="169.6" y2="171.1" stroke="rgb(0,0,0)"  stroke-width="1.0"/>
<line x1="72.6" y1="81.1" x2="71.1" y2="81.8" stroke="rgb(0,0,0)"  stroke-width="1.0"/>
<line x1="78.0" y1="90.9" x2="75.4" y2="92.2" stroke="rgb(0,0,0)"  stroke-width="1.0"/>
<line x1="83.4" y1="100.8" x2="79.7" y2="102.6" stroke="rgb(0,0,0)"  stroke-width="1.0"/>
<line x1="88.8" y1="110.6" x2="83.9" y2="113.0" stroke="rgb(0,0,0)"  stroke-width="1.0"/>
<line x1="94.2" y1="120.5" x2="88.2" y2="123.3" stroke="rgb(0,0,0)"  stroke-width="1.0"/>
<line x1="99.6" y1="130.3" x2="92.4" y2="133.7" stroke="rgb(0,0,0)"  stroke-width="1.0"/>
<line x1="133.2" y1="78.6" x2="114.0" y2="74.9" stroke="rgb(0,0,0)"  stroke-width="1.0"/>
<line x1="133.2" y1="78.6" x2="128.1" y2="73.2" stroke="rgb(0,0,0)"  stroke-width="1.0"/>
<line x1="98.2" y1="85.5" x2="89.5" y2="63.3" stroke="rgb(0,0,0)"  stroke-width="1.0"/>
<line x1="98.2" y1="85.5" x2="117.0" y2="85.7" stroke="rgb(0,0,0)"  stroke-width="1.0"/>
<line x1="123.2" y1="50.0" x2="129.9" y2="54.5" stroke="rgb(0,0,0)"  stroke-width="1.0"/>
<line x1="123.2" y1="50.0" x2="122.0" y2="49.5" stroke="rgb(0,0,0)"  stroke-width="1.0"/>
<line x1="123.2" y1="50.0" x2="126.2" y2="47.8" stroke="rgb(0,0,0)"  stroke-width="1.0"/>
<line x1="128.1" y1="73.2" x2="125.1" y2="75.1" stroke="rgb(0,0,0)"  stroke-width="1.0"/>
<line x1="145.6" y1="80.1" x2="149.0" y2="77.9" stroke="rgb(0,0,0)"  stroke-width="1.0"/>
<line x1="145.6" y1="80.1" x2="146.6" y2="83.9" stroke="rgb(0,0,0)"  stroke-width="1.0"/>
<line x1="145.6" y1="80.1" x2="153.1" y2="82.1" stroke="rgb(0,0,0)"  stroke-width="1.0"/>
<line x1="134.5" y1="80.6" x2="132.9" y2="81.0" stroke="rgb(0,0,0)"  stroke-width="1.0"/>
<line x1="135.5" y1="82.3" x2="132.7" y2="82.9" stroke="rgb(0,0,0)"  stroke-width="1.0"/>
<line x1="136.5" y1="84.0" x2="132.5" y2="84.9" stroke="rgb(0,0,0)"  stroke-width="1.0"/>
<line x1="137.5" y1="85.7" x2="132.2" y2="86.8" stroke="rgb(0,0,0)"  stroke-width="1.0"/>
<line x1="138.5" y1="87.3" x2="132.0" y2="88.7" stroke="rgb(0,0,0)"  stroke-width="1.0"/>
<line x1="139.6" y1="89.0" x2="131.7" y2="90.7" stroke="rgb(0,0,0)"  stroke-width="1.0"/>
<line x1="152.6" y1="67.0" x2="151.9" y2="63.1" stroke="rgb(0,0,0)"  stroke-width="1.0"/>
<line x1="152.6" y1="67.0" x2="149.4" y2="62.9" stroke="rgb(0,0,0)"  stroke-width="1.0"/>
<line x1="152.6" y1="67.0" x2="153.3" y2="67.1" stroke="rgb(0,0,0)"  stroke-width="1.0"/>
<line x1="114.0" y1="74.9" x2="111.8" y2="76.0" stroke="rgb(0,0,0)"  stroke-width="1.0"/>
<line x1="114.0" y1="74.9" x2="113.4" y2="71.0" stroke="rgb(0,0,0)"  stroke-width="1.0"/>
<line x1="117.0" y1="85.7" x2="117.9" y2="89.2" stroke="rgb(0,0,0)"  stroke-width="1.0"/>
<line x1="117.0" y1="85.7" x2="119.0" y2="84.7" stroke="rgb(0,0,0)"  stroke-width="1.0"/>
<line x1="96.9" y1="87.4" x2="96.0" y2="86.1" stroke="rgb(0,0,0)"  stroke-width="1.0"/>
<line x1="96.0" y1="88.9" x2="94.3" y2="86.5" stroke="rgb(0,0,0)"  stroke-width="1.0"/>
<line x1="95.0" y1="90.4" x2="92.6" y2="87.0" stroke="rgb(0,0,0)"  stroke-width="1.0"/>
<line x1="94.0" y1="91.8" x2="90.8" y2="87.4" stroke="rgb(0,0,0)"  stroke-width="1.0"/>
<line x1="93.0" y1="93.3" x2="89.1" y2="87.8" stroke="rgb(0,0,0)"  stroke-width="1.0"/>
<line x1="92.0" y1="94.8" x2="87.4" y2="88.3" stroke="rgb(0,0,0)"  stroke-width="1.0"/>
<line x1="89.5" y1="63.3" x2="91.9" y2="61.1" stroke="rgb(0,0,0)"  stroke-width="1.0"/>
<line x1="89.5" y1="63.3" x2="92.5" y2="66.1" stroke="rgb(0,0,0)"  stroke-width="1.0"/>
<line x1="89.5" y1="63.3" x2="89.7" y2="63.3" stroke="rgb(0,0,0)"  stroke-width="1.0"/>
<line x1="52.9" y1="61.3" x2="78.8" y2="85.0" stroke="rgb(0,0,0)"  stroke-width="1.0"/>
<line x1="40.0" y1="68.8" x2="103.7" y2="80.3" stroke="rgb(0,0,0)"  stroke-width="1.0"/>
<line x1="40.0" y1="68.8" x2="112.4" y2="70.0" stroke="rgb(0,0,0)"  stroke-width="1.0"/>
<line x1="40.0" y1="83.7" x2="130.7" y2="102.9" stroke="rgb(0,0,0)"  stroke-width="1.0"/>
<line x1="40.0" y1="83.7" x2="140.5" y2="92.1" stroke="rgb(0,0,0)"  stroke-width="1.0"/>
<line x1="75.7" y1="87.2" x2="75.0" y2="88.6" stroke="rgb(0,0,0)"  stroke-width="1.0"/>
<line x1="83.5" y1="89.9" x2="82.3" y2="92.6" stroke="rgb(0,0,0)"  stroke-width="1.0"/>
<line x1="91.4" y1="92.7" x2="89.7" y2="96.5" stroke="rgb(0,0,0)"  stroke-width="1.0"/>
<line x1="99.2" y1="95.5" x2="97.0" y2="100.5" stroke="rgb(0,0,0)"  stroke-width="1.0"/>
<line x1="107.1" y1="98.3" x2="104.3" y2="104.4" stroke="rgb(0,0,0)"  stroke-width="1.0"/>
<line x1="114.9" y1="101.0" x2="111.7" y2="108.4" stroke="rgb(0,0,0)"  stroke-width="1.0"/>
<polygon points="78.763084 91.138594 135.848056 117.222510 132.066265 124.272196 " stroke-width="1.000000" fill="rgb(0,0,0)"  stroke="rgb(0,0,0)" />
<line x1="78.8" y1="106.1" x2="119.1" y2="143.6" stroke="rgb(0,0,0)"  stroke-width="1.0"/>
<line x1="78.8" y1="106.1" x2="143.9" y2="142.0" stroke="rgb(0,0,0)"  stroke-width="1.0"/>
<line x1="91.7" y1="113.5" x2="140.1" y2="175.8" stroke="rgb(0,0,0)"  stroke-width="1.0"/>
<line x1="117.5" y1="113.5" x2="166.2" y2="198.5" stroke="rgb(0,0,0)"  stroke-width="1.0"/>
<line x1="117.5" y1="113.5" x2="147.8" y2="203.9" stroke="rgb(0,0,0)"  stroke-width="1.0"/>
<line x1="134.0" y1="123.3" x2="132.4" y2="123.6" stroke="rgb(0,0,0)"  stroke-width="1.0"/>
<line x1="136.8" y1="137.1" x2="134.0" y2="137.6" stroke="rgb(0,0,0)"  stroke-width="1.0"/>
<line x1="139.7" y1="150.9" x2="135.6" y2="151.6" stroke="rgb(0,0,0)"  stroke-width="1.0"/>
<line x1="142.5" y1="164.7" x2="137.1" y2="165.6" stroke="rgb(0,0,0)"  stroke-width="1.0"/>
<line x1="145.3" y1="178.5" x2="138.7" y2="179.6" stroke="rgb(0,0,0)"  stroke-width="1.0"/>
<line x1="148.2" y1="192.3" x2="140.3" y2="193.6" stroke="rgb(0,0,0)"  stroke-width="1.0"/>
<line x1="118.0" y1="210.6" x2="122.3" y2="221.6" stroke="rgb(0,0,0)"  stroke-width="1.0"/>
<line x1="130.4" y1="91.1" x2="136.8" y2="203.5" stroke="rgb(0,0,0)"  stroke-width="1.0"/>
<line x1="130.4" y1="91.1" x2="159.6" y2="196.3" stroke="rgb(0,0,0)"  stroke-width="1.0"/>
<line x1="117.5" y1="83.7" x2="138.1" y2="165.4" stroke="rgb(0,0,0)"  stroke-width="1.0"/>
<line x1="117.5" y1="83.7" x2="121.5" y2="173.8" stroke="rgb(0,0,0)"  stroke-width="1.0"/>
<line x1="172.6" y1="168.5" x2="172.1" y2="169.0" stroke="rgb(0,0,0)"  stroke-width="1.0"/>
<line x1="172.6" y1="168.5" x2="172.2" y2="172.6" stroke="rgb(0,0,0)"  stroke-width="1.0"/>
<line x1="172.6" y1="168.5" x2="174.7" y2="171.9" stroke="rgb(0,0,0)"  stroke-width="1.0"/>
<line x1="99.2" y1="90.8" x2="98.1" y2="91.9" stroke="rgb(0,0,0)"  stroke-width="1.0"/>
<line x1="105.3" y1="96.5" x2="103.1" y2="98.4" stroke="rgb(0,0,0)"  stroke-width="1.0"/>
<line x1="111.3" y1="102.2" x2="108.2" y2="105.0" stroke="rgb(0,0,0)"  stroke-width="1.0"/>
<line x1="117.4" y1="107.9" x2="113.3" y2="111.6" stroke="rgb(0,0,0)"  stroke-width="1.0"/>
<line x1="123.4" y1="113.6" x2="118.4" y2="118.1" stroke="rgb(0,0,0)"  stroke-width="1.0"/>
<line x1="129.4" y1="119.3" x2="123.5" y2="124.7" stroke="rgb(0,0,0)"  stroke-width="1.0"/>
<line x1="91.7" y1="68.8" x2="107.3" y2="143.3" stroke="rgb(0,0,0)"  stroke-width="1.0"/>
<line x1="91.7" y1="68.8" x2="105.0" y2="150.0" stroke="rgb(0,0,0)"  stroke-width="1.0"/>
<line x1="78.8" y1="61.3" x2="102.8" y2="107.9" stroke="rgb(0,0,0)"  stroke-width="1.0"/>
<line x1="78.8" y1="61.3" x2="85.2" y2="118.4" stroke="rgb(0,0,0)"  stroke-width="1.0"/>
<line x1="96.0" y1="132.0" x2="96.4" y2="136.0" stroke="rgb(0,0,0)"  stroke-width="1.0"/>
<line x1="96.0" y1="132.0" x2="92.0" y2="131.2" stroke="rgb(0,0,0)"  stroke-width="1.0"/>
<line x1="96.0" y1="132.0" x2="90.7" y2="136.4" stroke="rgb(0,0,0)"  stroke-width="1.0"/>
<line x1="40.0" y1="68.8" x2="40.0" y2="83.7" stroke="rgb(0,0,0)"  stroke-width="1.0"/>
<line x1="40.0" y1="83.7" x2="65.8" y2="83.7" stroke="rgb(0,0,0)"  stroke-width="1.0"/>
<line x1="65.8" y1="83.7" x2="65.8" y2="68.8" stroke="rgb(0,0,0)"  stroke-width="1.0"/>
<line x1="65.8" y1="68.8" x2="52.9" y2="61.3" stroke="rgb(0,0,0)"  stroke-width="1.0"/>
<line x1="52.9" y1="61.3" x2="40.0" y2="68.8" stroke="rgb(0,0,0)"  stroke-width="1.0"/>
<line x1="65.8" y1="83.7" x2="78.8" y2="91.1" stroke="rgb(0,0,0)"  stroke-width="1.0"/>
<line x1="78.8" y1="91.1" x2="91.7" y2="83.7" stroke="rgb(0,0,0)"  stroke-width="1.0"/>
<line x1="91.7" y1="83.7" x2="91.7" y2="68.8" stroke="rgb(0,0,0)"  stroke-width="1.0"/>
<line x1="91.7" y1="68.8" x2="78.8" y2="61.3" stroke="rgb(0,0,0)"  stroke-width="1.0"/>
<line x1="78.8" y1="61.3" x2="65.8" y2="68.8" stroke="rgb(0,0,0)"  stroke-width="1.0"/>
<line x1="78.8" y1="106.1" x2="78.8" y2="91.1" stroke="rgb(0,0,0)"  stroke-width="1.0"/>
<line x1="91.7" y1="83.7" x2="104.6" y2="91.1" stroke="rgb(0,0,0)"  stroke-width="1.0"/>
<line x1="104.6" y1="91.1" x2="104.6" y2="106.1" stroke="rgb(0,0,0)"  stroke-width="1.0"/>
<line x1="104.6" y1="106.1" x2="91.7" y2="113.5" stroke="rgb(0,0,0)"  stroke-width="1.0"/>
<line x1="95.8" y1="102.8" x2="93.3" y2="104.3" stroke="rgb(0,0,0)"  stroke-width="1.0"/>
<line x1="91.7" y1="113.5" x2="78.8" y2="106.1" stroke="rgb(0,0,0)"  stroke-width="1.0"/>
<line x1="130.4" y1="91.1" x2="130.4" y2="106.0" stroke="rgb(0,0,0)"  stroke-width="1.0"/>
<line x1="130.4" y1="106.0" x2="117.5" y2="113.5" stroke="rgb(0,0,0)"  stroke-width="1.0"/>
<line x1="117.5" y1="113.5" x2="104.6" y2="106.1" stroke="rgb(0,0,0)"  stroke-width="1.0"/>
<line x1="104.6" y1="91.1" x2="117.5" y2="83.7" stroke="rgb(0,0,0)"  stroke-width="1.0"/>
<line x1="117.5" y1="83.7" x2="130.4" y2="91.1" stroke="rgb(0,0,0)"  stroke-width="1.0"/>
<text x="116.753318" y="230.728236" fill="rgb(255,12,12)"  stroke="rgb(255,12,12)" stroke-width="1" font-size="16" >O</text>
<text x="113.143689" y="55.297013" fill="rgb(191,191,191)"  stroke="rgb(191,191,191)" stroke-width="1" font-size="16" >H</text>
<text x="103.848787" y="52.890697" fill="rgb(191,191,191)"  stroke="rgb(191,191,191)" stroke-width="1" font-size="16" >H</text>
<text x="130.584702" y="48.000000" fill="rgb(191,191,191)"  stroke="rgb(191,191,191)" stroke-width="1" font-size="16" >H</text>
<text x="108.120364" y="90.143902" fill="rgb(191,191,191)"  stroke="rgb(191,191,191)" stroke-width="1" font-size="16" >H</text>
<text x="153.725414" y="78.561015" fill="rgb(191,191,191)"  stroke="rgb(191,191,191)" stroke-width="1" font-size="16" >H</text>
<text x="143.878223" y="104.512439" fill="rgb(191,191,191)"  stroke="rgb(191,191,191)" stroke-width="1" font-size="16" >H</text>
<text x="134.518147" y="86.785584" fill="rgb(191,191,191)"  stroke="rgb(191,191,191)" stroke-width="1" font-size="16" >H</text>
<text x="130.840860" y="103.385249" fill="rgb(191,191,191)"  stroke="rgb(191,191,191)" stroke-width="1" font-size="16" >H</text>
<text x="143.719525" y="58.259868" fill="rgb(191,191,191)"  stroke="rgb(191,191,191)" stroke-width="1" font-size="16" >H</text>
<text x="151.378972" y="81.123447" fill="rgb(191,191,191)"  stroke="rgb(191,191,191)" stroke-width="1" font-size="16" >H</text>
<text x="160.133804" y="77.100902" fill="rgb(191,191,191)"  stroke="rgb(191,191,191)" stroke-width="1" font-size="16" >H</text>
<text x="93.958696" y="89.371333" fill="rgb(191,191,191)"  stroke="rgb(191,191,191)" stroke-width="1" font-size="16" >H</text>
<text x="105.510984" y="66.129083" fill="rgb(191,191,191)"  stroke="rgb(191,191,191)" stroke-width="1" font-size="16" >H</text>
<text x="114.863245" y="109.898973" fill="rgb(191,191,191)"  stroke="rgb(191,191,191)" stroke-width="1" font-size="16" >H</text>
<text x="124.550763" y="86.724436" fill="rgb(191,191,191)"  stroke="rgb(191,191,191)" stroke-width="1" font-size="16" >H</text>
<text x="79.516552" y="102.481296" fill="rgb(191,191,191)"  stroke="rgb(191,191,191)" stroke-width="1" font-size="16" >H</text>
<text x="95.507526" y="60.358039" fill="rgb(191,191,191)"  stroke="rgb(191,191,191)" stroke-width="1" font-size="16" >H</text>
<text x="76.920680" y="65.353979" fill="rgb(191,191,191)"  stroke="rgb(191,191,191)" stroke-width="1" font-size="16" >H</text>
<text x="70.726921" y="71.224091" fill="rgb(191,191,191)"  stroke="rgb(191,191,191)" stroke-width="1" font-size="16" >H</text>
<text x="82.345274" y="101.817972" fill="rgb(191,191,191)"  stroke="rgb(191,191,191)" stroke-width="1" font-size="16" >H</text>
<text x="110.476155" y="90.608563" fill="rgb(191,191,191)"  stroke="rgb(191,191,191)" stroke-width="1" font-size="16" >H</text>
<text x="119.424514" y="78.193028" fill="rgb(191,191,191)"  stroke="rgb(191,191,191)" stroke-width="1" font-size="16" >H</text>
<text x="137.458376" y="113.541138" fill="rgb(191,191,191)"  stroke="rgb(191,191,191)" stroke-width="1" font-size="16" >H</text>
<text x="147.441979" y="101.186724" fill="rgb(191,191,191)"  stroke="rgb(191,191,191)" stroke-width="1" font-size="16" >H</text>
<text x="130.662656" y="123.060333" fill="rgb(191,191,191)"  stroke="rgb(191,191,191)" stroke-width="1" font-size="16" >H</text>
<text x="155.142302" y="143.330772" fill="rgb(191,191,191)"  stroke="rgb(191,191,191)" stroke-width="1" font-size="16" >H</text>
<text x="122.620132" y="160.499951" fill="rgb(191,191,191)"  stroke="rgb(191,191,191)" stroke-width="1" font-size="16" >H</text>
<text x="149.277287" y="156.267842" fill="rgb(191,191,191)"  stroke="rgb(191,191,191)" stroke-width="1" font-size="16" >H</text>
<text x="142.100719" y="194.081589" fill="rgb(191,191,191)"  stroke="rgb(191,191,191)" stroke-width="1" font-size="16" >H</text>
<text x="166.611261" y="217.816402" fill="rgb(191,191,191)"  stroke="rgb(191,191,191)" stroke-width="1" font-size="16" >H</text>
<text x="145.936869" y="224.247172" fill="rgb(191,191,191)"  stroke="rgb(191,191,191)" stroke-width="1" font-size="16" >H</text>
<text x="145.004385" y="243.778042" fill="rgb(191,191,191)"  stroke="rgb(191,191,191)" stroke-width="1" font-size="16" >H</text>
<text x="111.586222" y="217.527412" fill="rgb(191,191,191)"  stroke="rgb(191,191,191)" stroke-width="1" font-size="16" >H</text>
<text x="131.533797" y="224.483604" fill="rgb(191,191,191)"  stroke="rgb(191,191,191)" stroke-width="1" font-size="16" >H</text>
<text x="157.118868" y="216.839384" fill="rgb(191,191,191)"  stroke="rgb(191,191,191)" stroke-width="1" font-size="16" >H</text>
<text x="135.288616" y="186.047135" fill="rgb(191,191,191)"  stroke="rgb(191,191,191)" stroke-width="1" font-size="16" >H</text>
<text x="116.099594" y="194.797782" fill="rgb(191,191,191)"  stroke="rgb(191,191,191)" stroke-width="1" font-size="16" >H</text>
<text x="174.924923" y="167.446643" fill="rgb(191,191,191)"  stroke="rgb(191,191,191)" stroke-width="1" font-size="16" >H</text>
<text x="167.488834" y="167.643805" fill="rgb(191,191,191)"  stroke="rgb(191,191,191)" stroke-width="1" font-size="16" >H</text>
<text x="175.579610" y="190.934236" fill="rgb(191,191,191)"  stroke="rgb(191,191,191)" stroke-width="1" font-size="16" >H</text>
<text x="137.603823" y="148.852972" fill="rgb(191,191,191)"  stroke="rgb(191,191,191)" stroke-width="1" font-size="16" >H</text>
<text x="104.019356" y="164.071334" fill="rgb(191,191,191)"  stroke="rgb(191,191,191)" stroke-width="1" font-size="16" >H</text>
<text x="101.138293" y="170.843702" fill="rgb(191,191,191)"  stroke="rgb(191,191,191)" stroke-width="1" font-size="16" >H</text>
<text x="102.806214" y="127.440241" fill="rgb(191,191,191)"  stroke="rgb(191,191,191)" stroke-width="1" font-size="16" >H</text>
<text x="80.694593" y="139.318097" fill="rgb(191,191,191)"  stroke="rgb(191,191,191)" stroke-width="1" font-size="16" >H</text>
<text x="91.562192" y="156.973694" fill="rgb(191,191,191)"  stroke="rgb(191,191,191)" stroke-width="1" font-size="16" >H</text>
<text x="73.267733" y="136.644238" fill="rgb(191,191,191)"  stroke="rgb(191,191,191)" stroke-width="1" font-size="16" >H</text>
<text x="94.721581" y="136.172174" fill="rgb(191,191,191)"  stroke="rgb(191,191,191)" stroke-width="1" font-size="16" >H</text>
<text font-size="18.000000" fill ="black" font-family="sans-serif"
x="10.000000" y="20.000000" >campesterol</text>
<title>campesterol - OBDepict</title>
</svg>
