<?xml version="1.0"?>
<svg xmlns="http://www.w3.org/2000/svg"
xmlns:xlink="http://www.w3.org/1999/xlink" xmlns:cml="http://www.xml-cml.org/schema" width="325.477" height="304.17" x="0" y="0" font-family="sans-serif" stroke="rgb(0,0,0)" stroke-width="1"  stroke-linecap="round">
<rect x="0%" y="0%" width="100%" height="100%" stroke-width="0" fill="rgb(255,255,255)"  />
<line x1="91.2" y1="225.0" x2="99.5" y2="199.4" stroke="rgb(0,0,0)"  stroke-width="1.0"/>
<line x1="176.2" y1="101.6" x2="176.2" y2="74.6" stroke="rgb(0,0,0)"  stroke-width="1.0"/>
<line x1="209.3" y1="132.0" x2="232.7" y2="118.5" stroke="rgb(0,0,0)"  stroke-width="1.0"/>
<line x1="212.3" y1="137.2" x2="235.7" y2="123.7" stroke="rgb(0,0,0)"  stroke-width="1.0"/>
<line x1="222.1" y1="181.1" x2="245.5" y2="194.6" stroke="rgb(0,0,0)"  stroke-width="1.0"/>
<line x1="179.2" y1="194.6" x2="179.2" y2="221.6" stroke="rgb(0,0,0)"  stroke-width="1.0"/>
<line x1="173.2" y1="194.6" x2="173.2" y2="221.6" stroke="rgb(0,0,0)"  stroke-width="1.0"/>
<line x1="91.2" y1="225.0" x2="96.8" y2="251.5" stroke="rgb(0,0,0)"  stroke-width="1.0"/>
<line x1="91.2" y1="225.0" x2="116.8" y2="233.4" stroke="rgb(0,0,0)"  stroke-width="1.0"/>
<line x1="91.2" y1="225.0" x2="64.7" y2="230.7" stroke="rgb(0,0,0)"  stroke-width="1.0"/>
<line x1="80.0" y1="154.6" x2="53.0" y2="154.6" stroke="rgb(0,0,0)"  stroke-width="1.0"/>
<line x1="245.5" y1="194.6" x2="272.5" y2="194.6" stroke="rgb(0,0,0)"  stroke-width="1.0"/>
<line x1="245.5" y1="194.6" x2="259.0" y2="171.3" stroke="rgb(0,0,0)"  stroke-width="1.0"/>
<line x1="245.5" y1="194.6" x2="245.5" y2="221.6" stroke="rgb(0,0,0)"  stroke-width="1.0"/>
<line x1="176.2" y1="74.6" x2="162.7" y2="51.3" stroke="rgb(0,0,0)"  stroke-width="1.0"/>
<line x1="176.2" y1="74.6" x2="149.2" y2="74.6" stroke="rgb(0,0,0)"  stroke-width="1.0"/>
<line x1="176.2" y1="74.6" x2="199.6" y2="61.1" stroke="rgb(0,0,0)"  stroke-width="1.0"/>
<line x1="80.0" y1="154.6" x2="95.9" y2="176.5" stroke="rgb(0,0,0)"  stroke-width="1.0"/>
<line x1="115.9" y1="183.0" x2="141.6" y2="174.6" stroke="rgb(0,0,0)"  stroke-width="1.0"/>
<line x1="141.6" y1="174.6" x2="141.6" y2="134.6" stroke="rgb(0,0,0)"  stroke-width="1.0"/>
<line x1="134.4" y1="168.6" x2="134.4" y2="140.6" stroke="rgb(0,0,0)"  stroke-width="1.0"/>
<line x1="141.6" y1="134.6" x2="115.9" y2="126.3" stroke="rgb(0,0,0)"  stroke-width="1.0"/>
<line x1="95.8" y1="133.0" x2="80.0" y2="154.6" stroke="rgb(0,0,0)"  stroke-width="1.0"/>
<line x1="100.4" y1="138.8" x2="89.4" y2="154.0" stroke="rgb(0,0,0)"  stroke-width="1.0"/>
<line x1="141.6" y1="174.6" x2="176.2" y2="194.6" stroke="rgb(0,0,0)"  stroke-width="1.0"/>
<line x1="176.2" y1="194.6" x2="199.6" y2="181.1" stroke="rgb(0,0,0)"  stroke-width="1.0"/>
<line x1="210.8" y1="161.6" x2="210.8" y2="134.6" stroke="rgb(0,0,0)"  stroke-width="1.0"/>
<line x1="210.8" y1="134.6" x2="187.5" y2="121.1" stroke="rgb(0,0,0)"  stroke-width="1.0"/>
<line x1="164.9" y1="121.1" x2="141.6" y2="134.6" stroke="rgb(0,0,0)"  stroke-width="1.0"/>
<text x="97.511410" y="195.001696" fill="rgb(12,12,255)"  stroke="rgb(12,12,255)" stroke-width="1" font-size="16" >N</text>
<text x="97.511410" y="130.280336" fill="rgb(12,12,255)"  stroke="rgb(12,12,255)" stroke-width="1" font-size="16" >N</text>
<text x="170.194687" y="242.641016" fill="rgb(255,12,12)"  stroke="rgb(255,12,12)" stroke-width="1" font-size="16" >O</text>
<text x="204.835703" y="182.641016" fill="rgb(12,12,255)"  stroke="rgb(12,12,255)" stroke-width="1" font-size="16" >N</text>
<text x="239.476719" y="122.641016" fill="rgb(255,12,12)"  stroke="rgb(255,12,12)" stroke-width="1" font-size="16" >O</text>
<text x="170.194687" y="122.641016" fill="rgb(12,12,255)"  stroke="rgb(12,12,255)" stroke-width="1" font-size="16" >N</text>
<text x="93.467198" y="272.169861" fill="rgb(191,191,191)"  stroke="rgb(191,191,191)" stroke-width="1" font-size="16" >H</text>
<text x="123.192991" y="245.404636" fill="rgb(191,191,191)"  stroke="rgb(191,191,191)" stroke-width="1" font-size="16" >H</text>
<text x="46.024826" y="241.360424" fill="rgb(191,191,191)"  stroke="rgb(191,191,191)" stroke-width="1" font-size="16" >H</text>
<text x="34.000000" y="162.641016" fill="rgb(191,191,191)"  stroke="rgb(191,191,191)" stroke-width="1" font-size="16" >H</text>
<text x="279.476719" y="202.641016" fill="rgb(191,191,191)"  stroke="rgb(191,191,191)" stroke-width="1" font-size="16" >H</text>
<text x="259.476719" y="168.000000" fill="rgb(191,191,191)"  stroke="rgb(191,191,191)" stroke-width="1" font-size="16" >H</text>
<text x="239.476719" y="242.641016" fill="rgb(191,191,191)"  stroke="rgb(191,191,191)" stroke-width="1" font-size="16" >H</text>
<text x="150.194687" y="48.000000" fill="rgb(191,191,191)"  stroke="rgb(191,191,191)" stroke-width="1" font-size="16" >H</text>
<text x="130.194687" y="82.641016" fill="rgb(191,191,191)"  stroke="rgb(191,191,191)" stroke-width="1" font-size="16" >H</text>
<text x="204.835703" y="62.641016" fill="rgb(191,191,191)"  stroke="rgb(191,191,191)" stroke-width="1" font-size="16" >H</text>
<text font-size="18.000000" fill ="black" font-family="sans-serif"
x="10.000000" y="20.000000" >Caffeine</text>
<title>Caffeine - OBDepict</title>
</svg>
