<?xml version="1.0"?>
<svg xmlns="http://www.w3.org/2000/svg"
xmlns:xlink="http://www.w3.org/1999/xlink" xmlns:cml="http://www.xml-cml.org/schema" width="469.857" height="389.307" x="0" y="0" font-family="sans-serif" stroke="rgb(0,0,0)" stroke-width="1"  stroke-linecap="round">
<rect x="0%" y="0%" width="100%" height="100%" stroke-width="0" fill="rgb(255,255,255)"  />
<line x1="393.1" y1="317.9" x2="393.1" y2="294.1" stroke="rgb(0,0,0)"  stroke-width="1.0"/>
<line x1="282.1" y1="158.9" x2="305.1" y2="152.8" stroke="rgb(0,0,0)"  stroke-width="1.0"/>
<line x1="220.5" y1="175.4" x2="203.7" y2="158.6" stroke="rgb(0,0,0)"  stroke-width="1.0"/>
<line x1="181.9" y1="152.8" x2="158.9" y2="158.9" stroke="rgb(0,0,0)"  stroke-width="1.0"/>
<line x1="95.2" y1="122.1" x2="83.3" y2="101.5" stroke="rgb(0,0,0)"  stroke-width="1.0"/>
<line x1="127.1" y1="177.3" x2="108.7" y2="209.2" stroke="rgb(0,0,0)"  stroke-width="1.0"/>
<line x1="108.7" y1="209.2" x2="84.9" y2="209.2" stroke="rgb(0,0,0)"  stroke-width="1.0"/>
<line x1="265.6" y1="220.5" x2="393.1" y2="294.1" stroke="rgb(0,0,0)"  stroke-width="1.0"/>
<line x1="127.1" y1="103.7" x2="139.0" y2="83.1" stroke="rgb(0,0,0)"  stroke-width="1.0"/>
<line x1="158.9" y1="122.1" x2="182.7" y2="122.1" stroke="rgb(0,0,0)"  stroke-width="1.0"/>
<line x1="246.5" y1="149.4" x2="252.7" y2="126.4" stroke="rgb(0,0,0)"  stroke-width="1.0"/>
<line x1="291.6" y1="194.5" x2="308.4" y2="211.3" stroke="rgb(0,0,0)"  stroke-width="1.0"/>
<line x1="381.8" y1="337.4" x2="372.4" y2="342.8" stroke="rgb(0,0,0)"  stroke-width="1.0"/>
<line x1="393.1" y1="294.1" x2="405.0" y2="273.5" stroke="rgb(0,0,0)"  stroke-width="1.0"/>
<line x1="393.1" y1="294.1" x2="416.9" y2="294.1" stroke="rgb(0,0,0)"  stroke-width="1.0"/>
<polygon points="265.577681 220.507070 248.451807 238.690105 243.581715 232.343278 " stroke-width="1.000000" fill="rgb(0,0,0)"  stroke="rgb(0,0,0)" />
<polygon points="220.507070 175.436458 197.726479 185.681604 195.655926 177.954197 " stroke-width="1.000000" fill="rgb(0,0,0)"  stroke="rgb(0,0,0)" />
<line x1="159.1" y1="163.9" x2="157.5" y2="163.7" stroke="rgb(0,0,0)"  stroke-width="1.0"/>
<line x1="159.2" y1="167.9" x2="156.4" y2="167.6" stroke="rgb(0,0,0)"  stroke-width="1.0"/>
<line x1="159.3" y1="171.9" x2="155.2" y2="171.4" stroke="rgb(0,0,0)"  stroke-width="1.0"/>
<line x1="159.4" y1="175.9" x2="154.1" y2="175.2" stroke="rgb(0,0,0)"  stroke-width="1.0"/>
<line x1="159.6" y1="179.9" x2="152.9" y2="179.0" stroke="rgb(0,0,0)"  stroke-width="1.0"/>
<line x1="159.7" y1="183.9" x2="151.8" y2="182.9" stroke="rgb(0,0,0)"  stroke-width="1.0"/>
<polygon points="127.069735 177.339470 155.189836 218.044914 148.261633 222.044914 " stroke-width="1.000000" fill="rgb(0,0,0)"  stroke="rgb(0,0,0)" />
<line x1="108.7" y1="209.2" x2="108.7" y2="233.0" stroke="rgb(0,0,0)"  stroke-width="1.0"/>
<line x1="108.7" y1="209.2" x2="129.3" y2="221.1" stroke="rgb(0,0,0)"  stroke-width="1.0"/>
<line x1="65.4" y1="198.0" x2="60.0" y2="188.6" stroke="rgb(0,0,0)"  stroke-width="1.0"/>
<polygon points="95.200000 122.139470 70.544000 126.139470 70.544000 118.139470 " stroke-width="1.000000" fill="rgb(0,0,0)"  stroke="rgb(0,0,0)" />
<line x1="63.8" y1="90.3" x2="53.0" y2="90.3" stroke="rgb(0,0,0)"  stroke-width="1.0"/>
<line x1="123.9" y1="99.9" x2="125.3" y2="99.1" stroke="rgb(0,0,0)"  stroke-width="1.0"/>
<line x1="121.4" y1="96.8" x2="123.9" y2="95.3" stroke="rgb(0,0,0)"  stroke-width="1.0"/>
<line x1="118.9" y1="93.7" x2="122.5" y2="91.6" stroke="rgb(0,0,0)"  stroke-width="1.0"/>
<line x1="116.3" y1="90.6" x2="121.0" y2="87.9" stroke="rgb(0,0,0)"  stroke-width="1.0"/>
<line x1="113.8" y1="87.5" x2="119.6" y2="84.1" stroke="rgb(0,0,0)"  stroke-width="1.0"/>
<line x1="111.3" y1="84.4" x2="118.2" y2="80.4" stroke="rgb(0,0,0)"  stroke-width="1.0"/>
<line x1="139.0" y1="60.6" x2="133.6" y2="51.3" stroke="rgb(0,0,0)"  stroke-width="1.0"/>
<polygon points="158.939470 122.139470 167.803368 98.786747 174.731571 102.786747 " stroke-width="1.000000" fill="rgb(0,0,0)"  stroke="rgb(0,0,0)" />
<line x1="202.2" y1="133.4" x2="207.6" y2="142.8" stroke="rgb(0,0,0)"  stroke-width="1.0"/>
<line x1="242.5" y1="146.5" x2="243.6" y2="145.4" stroke="rgb(0,0,0)"  stroke-width="1.0"/>
<line x1="239.2" y1="144.2" x2="241.3" y2="142.1" stroke="rgb(0,0,0)"  stroke-width="1.0"/>
<line x1="236.0" y1="141.8" x2="238.9" y2="138.9" stroke="rgb(0,0,0)"  stroke-width="1.0"/>
<line x1="232.7" y1="139.5" x2="236.6" y2="135.6" stroke="rgb(0,0,0)"  stroke-width="1.0"/>
<line x1="229.5" y1="137.1" x2="234.3" y2="132.4" stroke="rgb(0,0,0)"  stroke-width="1.0"/>
<line x1="226.3" y1="134.8" x2="231.9" y2="129.2" stroke="rgb(0,0,0)"  stroke-width="1.0"/>
<line x1="246.9" y1="104.7" x2="239.2" y2="97.0" stroke="rgb(0,0,0)"  stroke-width="1.0"/>
<polygon points="282.074670 158.939470 284.592409 134.088326 292.319815 136.158879 " stroke-width="1.000000" fill="rgb(0,0,0)"  stroke="rgb(0,0,0)" />
<line x1="321.0" y1="136.9" x2="323.8" y2="126.4" stroke="rgb(0,0,0)"  stroke-width="1.0"/>
<polygon points="291.599210 194.485540 314.379801 184.240394 316.450354 191.967801 " stroke-width="1.000000" fill="rgb(0,0,0)"  stroke="rgb(0,0,0)" />
<line x1="330.2" y1="217.1" x2="340.6" y2="214.3" stroke="rgb(0,0,0)"  stroke-width="1.0"/>
<line x1="265.6" y1="220.5" x2="242.6" y2="214.3" stroke="rgb(0,0,0)"  stroke-width="1.0"/>
<line x1="226.7" y1="198.4" x2="220.5" y2="175.4" stroke="rgb(0,0,0)"  stroke-width="1.0"/>
<line x1="220.5" y1="175.4" x2="246.5" y2="149.4" stroke="rgb(0,0,0)"  stroke-width="1.0"/>
<line x1="246.5" y1="149.4" x2="282.1" y2="158.9" stroke="rgb(0,0,0)"  stroke-width="1.0"/>
<line x1="282.1" y1="158.9" x2="291.6" y2="194.5" stroke="rgb(0,0,0)"  stroke-width="1.0"/>
<line x1="291.6" y1="194.5" x2="265.6" y2="220.5" stroke="rgb(0,0,0)"  stroke-width="1.0"/>
<line x1="158.9" y1="158.9" x2="127.1" y2="177.3" stroke="rgb(0,0,0)"  stroke-width="1.0"/>
<line x1="127.1" y1="177.3" x2="106.5" y2="165.4" stroke="rgb(0,0,0)"  stroke-width="1.0"/>
<line x1="95.2" y1="145.9" x2="95.2" y2="122.1" stroke="rgb(0,0,0)"  stroke-width="1.0"/>
<line x1="95.2" y1="122.1" x2="127.1" y2="103.7" stroke="rgb(0,0,0)"  stroke-width="1.0"/>
<line x1="127.1" y1="103.7" x2="158.9" y2="122.1" stroke="rgb(0,0,0)"  stroke-width="1.0"/>
<line x1="158.9" y1="122.1" x2="158.9" y2="158.9" stroke="rgb(0,0,0)"  stroke-width="1.0"/>
<text x="387.056620" y="338.907070" fill="rgb(255,12,12)"  stroke="rgb(255,12,12)" stroke-width="1" font-size="16" >O</text>
<text x="224.031611" y="218.982529" fill="rgb(255,12,12)"  stroke="rgb(255,12,12)" stroke-width="1" font-size="16" >O</text>
<text x="188.485540" y="157.414929" fill="rgb(255,12,12)"  stroke="rgb(255,12,12)" stroke-width="1" font-size="16" >O</text>
<text x="65.869735" y="217.209205" fill="rgb(255,12,12)"  stroke="rgb(255,12,12)" stroke-width="1" font-size="16" >O</text>
<text x="89.200000" y="166.939470" fill="rgb(255,12,12)"  stroke="rgb(255,12,12)" stroke-width="1" font-size="16" >O</text>
<text x="70.800000" y="98.269735" fill="rgb(255,12,12)"  stroke="rgb(255,12,12)" stroke-width="1" font-size="16" >O</text>
<text x="139.469735" y="79.869735" fill="rgb(255,12,12)"  stroke="rgb(255,12,12)" stroke-width="1" font-size="16" >O</text>
<text x="189.739470" y="130.139470" fill="rgb(255,12,12)"  stroke="rgb(255,12,12)" stroke-width="1" font-size="16" >O</text>
<text x="250.053140" y="121.868858" fill="rgb(255,12,12)"  stroke="rgb(255,12,12)" stroke-width="1" font-size="16" >O</text>
<text x="311.620740" y="157.414929" fill="rgb(255,12,12)"  stroke="rgb(255,12,12)" stroke-width="1" font-size="16" >O</text>
<text x="311.620740" y="228.507070" fill="rgb(255,12,12)"  stroke="rgb(255,12,12)" stroke-width="1" font-size="16" >O</text>
<text x="355.186886" y="357.307070" fill="rgb(191,191,191)"  stroke="rgb(191,191,191)" stroke-width="1" font-size="16" >H</text>
<text x="405.456620" y="270.237335" fill="rgb(191,191,191)"  stroke="rgb(191,191,191)" stroke-width="1" font-size="16" >H</text>
<text x="423.856620" y="302.107070" fill="rgb(191,191,191)"  stroke="rgb(191,191,191)" stroke-width="1" font-size="16" >H</text>
<text x="230.382278" y="250.909490" fill="rgb(191,191,191)"  stroke="rgb(191,191,191)" stroke-width="1" font-size="16" >H</text>
<text x="178.960999" y="192.960999" fill="rgb(191,191,191)"  stroke="rgb(191,191,191)" stroke-width="1" font-size="16" >H</text>
<text x="148.136106" y="203.424641" fill="rgb(191,191,191)"  stroke="rgb(191,191,191)" stroke-width="1" font-size="16" >H</text>
<text x="157.869735" y="249.078939" fill="rgb(191,191,191)"  stroke="rgb(191,191,191)" stroke-width="1" font-size="16" >H</text>
<text x="102.669735" y="254.009205" fill="rgb(191,191,191)"  stroke="rgb(191,191,191)" stroke-width="1" font-size="16" >H</text>
<text x="134.539470" y="235.609205" fill="rgb(191,191,191)"  stroke="rgb(191,191,191)" stroke-width="1" font-size="16" >H</text>
<text x="47.469735" y="185.339470" fill="rgb(191,191,191)"  stroke="rgb(191,191,191)" stroke-width="1" font-size="16" >H</text>
<text x="52.400000" y="130.139470" fill="rgb(191,191,191)"  stroke="rgb(191,191,191)" stroke-width="1" font-size="16" >H</text>
<text x="34.000000" y="98.269735" fill="rgb(191,191,191)"  stroke="rgb(191,191,191)" stroke-width="1" font-size="16" >H</text>
<text x="102.669735" y="79.869735" fill="rgb(191,191,191)"  stroke="rgb(191,191,191)" stroke-width="1" font-size="16" >H</text>
<text x="121.069735" y="48.000000" fill="rgb(191,191,191)"  stroke="rgb(191,191,191)" stroke-width="1" font-size="16" >H</text>
<text x="171.339470" y="98.269735" fill="rgb(191,191,191)"  stroke="rgb(191,191,191)" stroke-width="1" font-size="16" >H</text>
<text x="208.139470" y="162.009205" fill="rgb(191,191,191)"  stroke="rgb(191,191,191)" stroke-width="1" font-size="16" >H</text>
<text x="214.507070" y="131.393399" fill="rgb(191,191,191)"  stroke="rgb(191,191,191)" stroke-width="1" font-size="16" >H</text>
<text x="224.031611" y="95.847329" fill="rgb(191,191,191)"  stroke="rgb(191,191,191)" stroke-width="1" font-size="16" >H</text>
<text x="285.599210" y="131.393399" fill="rgb(191,191,191)"  stroke="rgb(191,191,191)" stroke-width="1" font-size="16" >H</text>
<text x="321.145281" y="121.868858" fill="rgb(191,191,191)"  stroke="rgb(191,191,191)" stroke-width="1" font-size="16" >H</text>
<text x="321.145281" y="192.960999" fill="rgb(191,191,191)"  stroke="rgb(191,191,191)" stroke-width="1" font-size="16" >H</text>
<text x="347.166810" y="218.982529" fill="rgb(191,191,191)"  stroke="rgb(191,191,191)" stroke-width="1" font-size="16" >H</text>
<text font-size="18.000000" fill ="black" font-family="sans-serif"
x="10.000000" y="20.000000" >?-lactose</text>
<title>?-lactose - OBDepict</title>
</svg>
