<?xml version="1.0"?>
<svg xmlns="http://www.w3.org/2000/svg"
xmlns:xlink="http://www.w3.org/1999/xlink" xmlns:cml="http://www.xml-cml.org/schema" width="613.341" height="435.347" x="0" y="0" font-family="sans-serif" stroke="rgb(0,0,0)" stroke-width="1"  stroke-linecap="round">
<rect x="0%" y="0%" width="100%" height="100%" stroke-width="0" fill="rgb(255,255,255)"  />
<line x1="528.7" y1="350.4" x2="506.7" y2="337.6" stroke="rgb(0,0,0)"  stroke-width="1.0"/>
<line x1="373.3" y1="299.1" x2="340.0" y2="279.9" stroke="rgb(0,0,0)"  stroke-width="1.0"/>
<line x1="340.0" y1="279.9" x2="317.9" y2="292.6" stroke="rgb(0,0,0)"  stroke-width="1.0"/>
<line x1="295.4" y1="292.6" x2="273.3" y2="279.9" stroke="rgb(0,0,0)"  stroke-width="1.0"/>
<line x1="206.7" y1="241.4" x2="173.3" y2="222.1" stroke="rgb(0,0,0)"  stroke-width="1.0"/>
<line x1="173.3" y1="222.1" x2="173.3" y2="196.6" stroke="rgb(0,0,0)"  stroke-width="1.0"/>
<line x1="106.7" y1="145.2" x2="162.1" y2="177.1" stroke="rgb(0,0,0)"  stroke-width="1.0"/>
<line x1="106.7" y1="145.2" x2="73.3" y2="125.9" stroke="rgb(0,0,0)"  stroke-width="1.0"/>
<line x1="74.8" y1="128.5" x2="52.8" y2="141.3" stroke="rgb(0,0,0)"  stroke-width="1.0"/>
<line x1="71.8" y1="123.3" x2="49.8" y2="136.1" stroke="rgb(0,0,0)"  stroke-width="1.0"/>
<line x1="73.3" y1="125.9" x2="73.3" y2="100.4" stroke="rgb(0,0,0)"  stroke-width="1.0"/>
<line x1="106.7" y1="145.2" x2="145.2" y2="78.5" stroke="rgb(0,0,0)"  stroke-width="1.0"/>
<line x1="145.2" y1="78.5" x2="183.6" y2="78.5" stroke="rgb(0,0,0)"  stroke-width="1.0"/>
<line x1="183.6" y1="78.5" x2="202.9" y2="111.8" stroke="rgb(0,0,0)"  stroke-width="1.0"/>
<line x1="202.9" y1="108.8" x2="228.4" y2="108.8" stroke="rgb(0,0,0)"  stroke-width="1.0"/>
<line x1="202.9" y1="114.8" x2="228.4" y2="114.8" stroke="rgb(0,0,0)"  stroke-width="1.0"/>
<line x1="202.9" y1="111.8" x2="190.1" y2="133.9" stroke="rgb(0,0,0)"  stroke-width="1.0"/>
<line x1="174.8" y1="224.7" x2="152.8" y2="237.5" stroke="rgb(0,0,0)"  stroke-width="1.0"/>
<line x1="171.8" y1="219.5" x2="149.8" y2="232.3" stroke="rgb(0,0,0)"  stroke-width="1.0"/>
<line x1="470.3" y1="279.9" x2="470.3" y2="254.4" stroke="rgb(0,0,0)"  stroke-width="1.0"/>
<line x1="476.3" y1="279.9" x2="476.3" y2="254.4" stroke="rgb(0,0,0)"  stroke-width="1.0"/>
<line x1="551.3" y1="350.4" x2="562.1" y2="344.1" stroke="rgb(0,0,0)"  stroke-width="1.0"/>
<line x1="540.0" y1="369.9" x2="540.0" y2="382.3" stroke="rgb(0,0,0)"  stroke-width="1.0"/>
<line x1="473.3" y1="369.9" x2="473.3" y2="382.3" stroke="rgb(0,0,0)"  stroke-width="1.0"/>
<line x1="373.3" y1="337.6" x2="351.3" y2="350.4" stroke="rgb(0,0,0)"  stroke-width="1.0"/>
<line x1="340.0" y1="279.9" x2="327.3" y2="257.8" stroke="rgb(0,0,0)"  stroke-width="1.0"/>
<line x1="340.0" y1="279.9" x2="352.7" y2="257.8" stroke="rgb(0,0,0)"  stroke-width="1.0"/>
<line x1="306.7" y1="312.1" x2="306.7" y2="324.6" stroke="rgb(0,0,0)"  stroke-width="1.0"/>
<line x1="273.3" y1="241.4" x2="295.4" y2="228.6" stroke="rgb(0,0,0)"  stroke-width="1.0"/>
<line x1="240.0" y1="222.1" x2="240.0" y2="196.6" stroke="rgb(0,0,0)"  stroke-width="1.0"/>
<line x1="206.7" y1="279.9" x2="184.6" y2="292.6" stroke="rgb(0,0,0)"  stroke-width="1.0"/>
<line x1="240.0" y1="299.1" x2="240.0" y2="324.6" stroke="rgb(0,0,0)"  stroke-width="1.0"/>
<line x1="184.6" y1="177.1" x2="195.4" y2="170.9" stroke="rgb(0,0,0)"  stroke-width="1.0"/>
<line x1="104.8" y1="150.0" x2="103.4" y2="149.2" stroke="rgb(0,0,0)"  stroke-width="1.0"/>
<line x1="103.3" y1="153.9" x2="100.8" y2="152.5" stroke="rgb(0,0,0)"  stroke-width="1.0"/>
<line x1="101.8" y1="157.8" x2="98.2" y2="155.7" stroke="rgb(0,0,0)"  stroke-width="1.0"/>
<line x1="100.3" y1="161.7" x2="95.5" y2="159.0" stroke="rgb(0,0,0)"  stroke-width="1.0"/>
<line x1="98.7" y1="165.6" x2="92.9" y2="162.2" stroke="rgb(0,0,0)"  stroke-width="1.0"/>
<line x1="97.2" y1="169.5" x2="90.3" y2="165.5" stroke="rgb(0,0,0)"  stroke-width="1.0"/>
<line x1="145.2" y1="78.5" x2="145.2" y2="53.0" stroke="rgb(0,0,0)"  stroke-width="1.0"/>
<line x1="145.2" y1="78.5" x2="123.1" y2="65.7" stroke="rgb(0,0,0)"  stroke-width="1.0"/>
<line x1="183.6" y1="78.5" x2="205.7" y2="65.7" stroke="rgb(0,0,0)"  stroke-width="1.0"/>
<line x1="183.6" y1="78.5" x2="183.6" y2="53.0" stroke="rgb(0,0,0)"  stroke-width="1.0"/>
<line x1="506.7" y1="337.6" x2="506.7" y2="311.8" stroke="rgb(0,0,0)"  stroke-width="1.0"/>
<line x1="499.5" y1="331.6" x2="499.5" y2="314.0" stroke="rgb(0,0,0)"  stroke-width="1.0"/>
<line x1="495.4" y1="292.6" x2="473.3" y2="279.9" stroke="rgb(0,0,0)"  stroke-width="1.0"/>
<line x1="473.3" y1="279.9" x2="440.0" y2="299.1" stroke="rgb(0,0,0)"  stroke-width="1.0"/>
<line x1="440.0" y1="299.1" x2="440.0" y2="337.6" stroke="rgb(0,0,0)"  stroke-width="1.0"/>
<line x1="447.2" y1="305.1" x2="447.2" y2="331.6" stroke="rgb(0,0,0)"  stroke-width="1.0"/>
<line x1="440.0" y1="337.6" x2="462.1" y2="350.4" stroke="rgb(0,0,0)"  stroke-width="1.0"/>
<line x1="484.6" y1="350.4" x2="506.7" y2="337.6" stroke="rgb(0,0,0)"  stroke-width="1.0"/>
<line x1="395.7" y1="350.5" x2="373.3" y2="337.6" stroke="rgb(0,0,0)"  stroke-width="1.0"/>
<line x1="397.4" y1="343.2" x2="382.1" y2="334.4" stroke="rgb(0,0,0)"  stroke-width="1.0"/>
<line x1="373.3" y1="337.6" x2="373.3" y2="299.1" stroke="rgb(0,0,0)"  stroke-width="1.0"/>
<line x1="373.3" y1="299.1" x2="395.7" y2="286.2" stroke="rgb(0,0,0)"  stroke-width="1.0"/>
<line x1="382.1" y1="302.4" x2="397.4" y2="293.5" stroke="rgb(0,0,0)"  stroke-width="1.0"/>
<line x1="417.9" y1="286.4" x2="440.0" y2="299.1" stroke="rgb(0,0,0)"  stroke-width="1.0"/>
<line x1="440.0" y1="337.6" x2="417.9" y2="350.4" stroke="rgb(0,0,0)"  stroke-width="1.0"/>
<line x1="273.3" y1="279.9" x2="273.3" y2="241.4" stroke="rgb(0,0,0)"  stroke-width="1.0"/>
<line x1="266.1" y1="273.9" x2="266.1" y2="247.4" stroke="rgb(0,0,0)"  stroke-width="1.0"/>
<line x1="273.3" y1="241.4" x2="240.0" y2="222.1" stroke="rgb(0,0,0)"  stroke-width="1.0"/>
<line x1="240.0" y1="222.1" x2="206.7" y2="241.4" stroke="rgb(0,0,0)"  stroke-width="1.0"/>
<line x1="238.4" y1="231.4" x2="215.5" y2="244.6" stroke="rgb(0,0,0)"  stroke-width="1.0"/>
<line x1="206.7" y1="241.4" x2="206.7" y2="279.9" stroke="rgb(0,0,0)"  stroke-width="1.0"/>
<line x1="206.7" y1="279.9" x2="240.0" y2="299.1" stroke="rgb(0,0,0)"  stroke-width="1.0"/>
<line x1="215.5" y1="276.6" x2="238.4" y2="289.9" stroke="rgb(0,0,0)"  stroke-width="1.0"/>
<line x1="240.0" y1="299.1" x2="273.3" y2="279.9" stroke="rgb(0,0,0)"  stroke-width="1.0"/>
<text x="534.007120" y="364.856295" fill="rgb(12,12,255)"  stroke="rgb(12,12,255)" stroke-width="1" font-size="16" >N</text>
<text x="500.673312" y="307.120446" fill="rgb(12,12,255)"  stroke="rgb(12,12,255)" stroke-width="1" font-size="16" >N</text>
<text x="467.339504" y="249.384597" fill="rgb(255,12,12)"  stroke="rgb(255,12,12)" stroke-width="1" font-size="16" >O</text>
<text x="467.339504" y="364.856295" fill="rgb(12,12,255)"  stroke="rgb(12,12,255)" stroke-width="1" font-size="16" >N</text>
<text x="400.671888" y="364.856295" fill="rgb(12,12,255)"  stroke="rgb(12,12,255)" stroke-width="1" font-size="16" >N</text>
<text x="300.670464" y="307.120446" fill="rgb(12,12,255)"  stroke="rgb(12,12,255)" stroke-width="1" font-size="16" >N</text>
<text x="134.001424" y="249.384597" fill="rgb(255,12,12)"  stroke="rgb(255,12,12)" stroke-width="1" font-size="16" >O</text>
<text x="167.335232" y="191.648748" fill="rgb(12,12,255)"  stroke="rgb(12,12,255)" stroke-width="1" font-size="16" >N</text>
<text x="188.448748" y="141.126182" fill="rgb(255,12,12)"  stroke="rgb(255,12,12)" stroke-width="1" font-size="32" >-</text>
<text x="177.648748" y="153.158182" fill="rgb(255,12,12)"  stroke="rgb(255,12,12)" stroke-width="1" font-size="16" >O</text>
<text x="235.384597" y="119.824374" fill="rgb(255,12,12)"  stroke="rgb(255,12,12)" stroke-width="1" font-size="16" >O</text>
<text x="78.133808" y="83.390333" fill="rgb(255,12,12)"  stroke="rgb(255,12,12)" stroke-width="1" font-size="32" >-</text>
<text x="67.333808" y="95.422333" fill="rgb(255,12,12)"  stroke="rgb(255,12,12)" stroke-width="1" font-size="16" >O</text>
<text x="34.000000" y="153.158182" fill="rgb(255,12,12)"  stroke="rgb(255,12,12)" stroke-width="1" font-size="16" >O</text>
<text x="400.671888" y="287.875163" fill="rgb(12,12,255)"  stroke="rgb(12,12,255)" stroke-width="1" font-size="16" >N</text>
<text x="567.340928" y="345.611012" fill="rgb(191,191,191)"  stroke="rgb(191,191,191)" stroke-width="1" font-size="16" >H</text>
<text x="534.007120" y="403.346861" fill="rgb(191,191,191)"  stroke="rgb(191,191,191)" stroke-width="1" font-size="16" >H</text>
<text x="467.339504" y="403.346861" fill="rgb(191,191,191)"  stroke="rgb(191,191,191)" stroke-width="1" font-size="16" >H</text>
<text x="334.004272" y="364.856295" fill="rgb(191,191,191)"  stroke="rgb(191,191,191)" stroke-width="1" font-size="16" >H</text>
<text x="314.758989" y="254.541355" fill="rgb(191,191,191)"  stroke="rgb(191,191,191)" stroke-width="1" font-size="16" >H</text>
<text x="353.249555" y="254.541355" fill="rgb(191,191,191)"  stroke="rgb(191,191,191)" stroke-width="1" font-size="16" >H</text>
<text x="300.670464" y="345.611012" fill="rgb(191,191,191)"  stroke="rgb(191,191,191)" stroke-width="1" font-size="16" >H</text>
<text x="300.670464" y="230.139314" fill="rgb(191,191,191)"  stroke="rgb(191,191,191)" stroke-width="1" font-size="16" >H</text>
<text x="234.002848" y="191.648748" fill="rgb(191,191,191)"  stroke="rgb(191,191,191)" stroke-width="1" font-size="16" >H</text>
<text x="167.335232" y="307.120446" fill="rgb(191,191,191)"  stroke="rgb(191,191,191)" stroke-width="1" font-size="16" >H</text>
<text x="234.002848" y="345.611012" fill="rgb(191,191,191)"  stroke="rgb(191,191,191)" stroke-width="1" font-size="16" >H</text>
<text x="200.669040" y="172.403465" fill="rgb(191,191,191)"  stroke="rgb(191,191,191)" stroke-width="1" font-size="16" >H</text>
<text x="81.422333" y="186.491990" fill="rgb(191,191,191)"  stroke="rgb(191,191,191)" stroke-width="1" font-size="16" >H</text>
<text x="139.158182" y="48.000000" fill="rgb(191,191,191)"  stroke="rgb(191,191,191)" stroke-width="1" font-size="16" >H</text>
<text x="105.824374" y="67.245283" fill="rgb(191,191,191)"  stroke="rgb(191,191,191)" stroke-width="1" font-size="16" >H</text>
<text x="210.982556" y="67.245283" fill="rgb(191,191,191)"  stroke="rgb(191,191,191)" stroke-width="1" font-size="16" >H</text>
<text x="177.648748" y="48.000000" fill="rgb(191,191,191)"  stroke="rgb(191,191,191)" stroke-width="1" font-size="16" >H</text>
<text font-size="18.000000" fill ="black" font-family="sans-serif"
x="10.000000" y="20.000000" >Folic Acid</text>
<title>Folic Acid - OBDepict</title>
</svg>
