<?xml version="1.0"?>
<svg xmlns="http://www.w3.org/2000/svg"
xmlns:xlink="http://www.w3.org/1999/xlink" xmlns:cml="http://www.xml-cml.org/schema" width="310.4" height="270.622" x="0" y="0" font-family="sans-serif" stroke="rgb(0,0,0)" stroke-width="1"  stroke-linecap="round">
<rect x="0%" y="0%" width="100%" height="100%" stroke-width="0" fill="rgb(255,255,255)"  />
<line x1="232.0" y1="173.0" x2="232.0" y2="147.6" stroke="rgb(0,0,0)"  stroke-width="1.0"/>
<line x1="232.0" y1="173.0" x2="232.0" y2="211.4" stroke="rgb(0,0,0)"  stroke-width="1.0"/>
<line x1="233.5" y1="208.8" x2="255.5" y2="221.5" stroke="rgb(0,0,0)"  stroke-width="1.0"/>
<line x1="230.5" y1="214.0" x2="252.5" y2="226.7" stroke="rgb(0,0,0)"  stroke-width="1.0"/>
<line x1="232.0" y1="211.4" x2="210.0" y2="224.1" stroke="rgb(0,0,0)"  stroke-width="1.0"/>
<line x1="232.0" y1="173.0" x2="155.2" y2="173.0" stroke="rgb(0,0,0)"  stroke-width="1.0"/>
<line x1="155.2" y1="173.0" x2="136.0" y2="139.8" stroke="rgb(0,0,0)"  stroke-width="1.0"/>
<line x1="97.6" y1="73.3" x2="84.9" y2="51.3" stroke="rgb(0,0,0)"  stroke-width="1.0"/>
<line x1="245.0" y1="134.6" x2="257.4" y2="134.6" stroke="rgb(0,0,0)"  stroke-width="1.0"/>
<line x1="232.0" y1="121.6" x2="232.0" y2="109.2" stroke="rgb(0,0,0)"  stroke-width="1.0"/>
<line x1="219.0" y1="134.6" x2="206.6" y2="134.6" stroke="rgb(0,0,0)"  stroke-width="1.0"/>
<line x1="237.1" y1="172.2" x2="237.1" y2="173.8" stroke="rgb(0,0,0)"  stroke-width="1.0"/>
<line x1="241.3" y1="171.6" x2="241.3" y2="174.5" stroke="rgb(0,0,0)"  stroke-width="1.0"/>
<line x1="245.4" y1="170.9" x2="245.4" y2="175.1" stroke="rgb(0,0,0)"  stroke-width="1.0"/>
<line x1="249.5" y1="170.3" x2="249.5" y2="175.7" stroke="rgb(0,0,0)"  stroke-width="1.0"/>
<line x1="253.6" y1="169.7" x2="253.6" y2="176.4" stroke="rgb(0,0,0)"  stroke-width="1.0"/>
<line x1="257.7" y1="169.0" x2="257.7" y2="177.0" stroke="rgb(0,0,0)"  stroke-width="1.0"/>
<line x1="155.2" y1="173.0" x2="133.2" y2="185.7" stroke="rgb(0,0,0)"  stroke-width="1.0"/>
<line x1="155.2" y1="173.0" x2="155.2" y2="198.4" stroke="rgb(0,0,0)"  stroke-width="1.0"/>
<line x1="97.6" y1="139.8" x2="84.9" y2="161.8" stroke="rgb(0,0,0)"  stroke-width="1.0"/>
<line x1="78.4" y1="106.5" x2="53.0" y2="106.5" stroke="rgb(0,0,0)"  stroke-width="1.0"/>
<line x1="65.4" y1="40.0" x2="53.0" y2="40.0" stroke="rgb(0,0,0)"  stroke-width="1.0"/>
<line x1="136.0" y1="73.3" x2="148.7" y2="51.3" stroke="rgb(0,0,0)"  stroke-width="1.0"/>
<line x1="155.2" y1="106.5" x2="180.6" y2="106.5" stroke="rgb(0,0,0)"  stroke-width="1.0"/>
<line x1="136.0" y1="139.8" x2="97.6" y2="139.8" stroke="rgb(0,0,0)"  stroke-width="1.0"/>
<line x1="130.0" y1="132.6" x2="103.6" y2="132.6" stroke="rgb(0,0,0)"  stroke-width="1.0"/>
<line x1="97.6" y1="139.8" x2="78.4" y2="106.5" stroke="rgb(0,0,0)"  stroke-width="1.0"/>
<line x1="78.4" y1="106.5" x2="97.6" y2="73.3" stroke="rgb(0,0,0)"  stroke-width="1.0"/>
<line x1="87.6" y1="104.9" x2="100.8" y2="82.1" stroke="rgb(0,0,0)"  stroke-width="1.0"/>
<line x1="97.6" y1="73.3" x2="136.0" y2="73.3" stroke="rgb(0,0,0)"  stroke-width="1.0"/>
<line x1="136.0" y1="73.3" x2="155.2" y2="106.5" stroke="rgb(0,0,0)"  stroke-width="1.0"/>
<line x1="132.8" y1="82.1" x2="146.0" y2="104.9" stroke="rgb(0,0,0)"  stroke-width="1.0"/>
<line x1="155.2" y1="106.5" x2="136.0" y2="139.8" stroke="rgb(0,0,0)"  stroke-width="1.0"/>
<text x="236.800000" y="130.589502" fill="rgb(12,12,255)"  stroke="rgb(12,12,255)" stroke-width="1" font-size="16" >+</text>
<text x="226.000000" y="142.621502" fill="rgb(12,12,255)"  stroke="rgb(12,12,255)" stroke-width="1" font-size="16" >N</text>
<text x="72.400000" y="48.000000" fill="rgb(255,12,12)"  stroke="rgb(255,12,12)" stroke-width="1" font-size="16" >O</text>
<text x="203.544624" y="226.589502" fill="rgb(255,12,12)"  stroke="rgb(255,12,12)" stroke-width="1" font-size="32" >-</text>
<text x="192.744624" y="238.621502" fill="rgb(255,12,12)"  stroke="rgb(255,12,12)" stroke-width="1" font-size="16" >O</text>
<text x="259.255376" y="238.621502" fill="rgb(255,12,12)"  stroke="rgb(255,12,12)" stroke-width="1" font-size="16" >O</text>
<text x="264.400000" y="142.621502" fill="rgb(191,191,191)"  stroke="rgb(191,191,191)" stroke-width="1" font-size="16" >H</text>
<text x="226.000000" y="104.221502" fill="rgb(191,191,191)"  stroke="rgb(191,191,191)" stroke-width="1" font-size="16" >H</text>
<text x="187.600000" y="142.621502" fill="rgb(191,191,191)"  stroke="rgb(191,191,191)" stroke-width="1" font-size="16" >H</text>
<text x="264.400000" y="181.021502" fill="rgb(191,191,191)"  stroke="rgb(191,191,191)" stroke-width="1" font-size="16" >H</text>
<text x="115.944624" y="200.221502" fill="rgb(191,191,191)"  stroke="rgb(191,191,191)" stroke-width="1" font-size="16" >H</text>
<text x="149.200000" y="219.421502" fill="rgb(191,191,191)"  stroke="rgb(191,191,191)" stroke-width="1" font-size="16" >H</text>
<text x="72.400000" y="181.021502" fill="rgb(191,191,191)"  stroke="rgb(191,191,191)" stroke-width="1" font-size="16" >H</text>
<text x="34.000000" y="114.510751" fill="rgb(191,191,191)"  stroke="rgb(191,191,191)" stroke-width="1" font-size="16" >H</text>
<text x="34.000000" y="48.000000" fill="rgb(191,191,191)"  stroke="rgb(191,191,191)" stroke-width="1" font-size="16" >H</text>
<text x="149.200000" y="48.000000" fill="rgb(191,191,191)"  stroke="rgb(191,191,191)" stroke-width="1" font-size="16" >H</text>
<text x="187.600000" y="114.510751" fill="rgb(191,191,191)"  stroke="rgb(191,191,191)" stroke-width="1" font-size="16" >H</text>
<text font-size="18.000000" fill ="black" font-family="sans-serif"
x="10.000000" y="20.000000" >Tyrosine</text>
<title>Tyrosine - OBDepict</title>
</svg>
