<?xml version="1.0"?>
<svg xmlns="http://www.w3.org/2000/svg"
xmlns:xlink="http://www.w3.org/1999/xlink" xmlns:cml="http://www.xml-cml.org/schema" width="539.276" height="236.654" x="0" y="0" font-family="sans-serif" stroke="rgb(0,0,0)" stroke-width="1"  stroke-linecap="round">
<rect x="0%" y="0%" width="100%" height="100%" stroke-width="0" fill="rgb(255,255,255)"  />
<line x1="62.4" y1="70.9" x2="89.1" y2="74.6" stroke="rgb(0,0,0)"  stroke-width="1.0"/>
<line x1="100.4" y1="104.5" x2="101.9" y2="103.9" stroke="rgb(0,0,0)"  stroke-width="1.0"/>
<line x1="97.4" y1="98.8" x2="100.1" y2="97.7" stroke="rgb(0,0,0)"  stroke-width="1.0"/>
<line x1="94.4" y1="93.1" x2="98.3" y2="91.6" stroke="rgb(0,0,0)"  stroke-width="1.0"/>
<line x1="91.4" y1="87.4" x2="96.4" y2="85.4" stroke="rgb(0,0,0)"  stroke-width="1.0"/>
<line x1="88.4" y1="81.8" x2="94.6" y2="79.2" stroke="rgb(0,0,0)"  stroke-width="1.0"/>
<line x1="85.4" y1="76.1" x2="92.8" y2="73.1" stroke="rgb(0,0,0)"  stroke-width="1.0"/>
<line x1="104.2" y1="111.6" x2="143.8" y2="117.1" stroke="rgb(0,0,0)"  stroke-width="1.0"/>
<line x1="146.6" y1="116.0" x2="161.7" y2="153.0" stroke="rgb(0,0,0)"  stroke-width="1.0"/>
<line x1="141.0" y1="118.2" x2="156.1" y2="155.3" stroke="rgb(0,0,0)"  stroke-width="1.0"/>
<line x1="190.5" y1="159.3" x2="190.7" y2="157.7" stroke="rgb(0,0,0)"  stroke-width="1.0"/>
<line x1="184.0" y1="159.1" x2="184.4" y2="156.2" stroke="rgb(0,0,0)"  stroke-width="1.0"/>
<line x1="177.6" y1="158.8" x2="178.2" y2="154.7" stroke="rgb(0,0,0)"  stroke-width="1.0"/>
<line x1="171.2" y1="158.6" x2="171.9" y2="153.2" stroke="rgb(0,0,0)"  stroke-width="1.0"/>
<line x1="164.8" y1="158.3" x2="165.7" y2="151.7" stroke="rgb(0,0,0)"  stroke-width="1.0"/>
<line x1="158.3" y1="158.1" x2="159.4" y2="150.2" stroke="rgb(0,0,0)"  stroke-width="1.0"/>
<line x1="198.5" y1="159.6" x2="208.7" y2="184.6" stroke="rgb(0,0,0)"  stroke-width="1.0"/>
<line x1="223.0" y1="128.0" x2="198.5" y2="159.6" stroke="rgb(0,0,0)"  stroke-width="1.0"/>
<polygon points="223.049025 128.023919 208.089093 90.711567 215.773886 88.488068 " stroke-width="1.000000" fill="rgb(0,0,0)"  stroke="rgb(0,0,0)" />
<polygon points="276.614888 91.704052 242.581564 70.309216 247.492081 63.993615 " stroke-width="1.000000" fill="rgb(0,0,0)"  stroke="rgb(0,0,0)" />
<line x1="318.0" y1="76.9" x2="319.5" y2="77.4" stroke="rgb(0,0,0)"  stroke-width="1.0"/>
<line x1="319.5" y1="70.6" x2="322.2" y2="71.6" stroke="rgb(0,0,0)"  stroke-width="1.0"/>
<line x1="321.1" y1="64.4" x2="325.0" y2="65.8" stroke="rgb(0,0,0)"  stroke-width="1.0"/>
<line x1="322.7" y1="58.2" x2="327.8" y2="60.0" stroke="rgb(0,0,0)"  stroke-width="1.0"/>
<line x1="324.2" y1="51.9" x2="330.6" y2="54.2" stroke="rgb(0,0,0)"  stroke-width="1.0"/>
<line x1="325.8" y1="45.7" x2="333.3" y2="48.4" stroke="rgb(0,0,0)"  stroke-width="1.0"/>
<polygon points="459.901488 94.118589 485.578318 85.464249 486.986355 93.339364 " stroke-width="1.000000" fill="rgb(0,0,0)"  stroke="rgb(0,0,0)" />
<polygon points="381.152686 108.203386 375.809256 134.767354 368.285177 132.049221 " stroke-width="1.000000" fill="rgb(0,0,0)"  stroke="rgb(0,0,0)" />
<polygon points="341.778285 115.243360 331.950071 154.221682 324.425993 151.503549 " stroke-width="1.000000" fill="rgb(0,0,0)"  stroke="rgb(0,0,0)" />
<polygon points="263.024635 129.323308 254.936174 155.184470 247.737085 151.695472 " stroke-width="1.000000" fill="rgb(0,0,0)"  stroke="rgb(0,0,0)" />
<line x1="104.2" y1="111.6" x2="79.6" y2="143.2" stroke="rgb(0,0,0)"  stroke-width="1.0"/>
<line x1="79.6" y1="143.2" x2="89.8" y2="168.2" stroke="rgb(0,0,0)"  stroke-width="1.0"/>
<line x1="79.6" y1="143.2" x2="52.9" y2="139.5" stroke="rgb(0,0,0)"  stroke-width="1.0"/>
<line x1="223.0" y1="128.0" x2="263.0" y2="129.3" stroke="rgb(0,0,0)"  stroke-width="1.0"/>
<line x1="263.0" y1="129.3" x2="276.6" y2="91.7" stroke="rgb(0,0,0)"  stroke-width="1.0"/>
<line x1="276.6" y1="91.7" x2="245.0" y2="67.2" stroke="rgb(0,0,0)"  stroke-width="1.0"/>
<line x1="245.0" y1="67.2" x2="211.9" y2="89.6" stroke="rgb(0,0,0)"  stroke-width="1.0"/>
<line x1="211.9" y1="89.6" x2="223.0" y2="128.0" stroke="rgb(0,0,0)"  stroke-width="1.0"/>
<line x1="316.0" y1="84.7" x2="276.6" y2="91.7" stroke="rgb(0,0,0)"  stroke-width="1.0"/>
<line x1="263.0" y1="129.3" x2="288.8" y2="159.9" stroke="rgb(0,0,0)"  stroke-width="1.0"/>
<line x1="288.8" y1="159.9" x2="328.2" y2="152.9" stroke="rgb(0,0,0)"  stroke-width="1.0"/>
<line x1="328.2" y1="152.9" x2="341.8" y2="115.2" stroke="rgb(0,0,0)"  stroke-width="1.0"/>
<line x1="341.8" y1="115.2" x2="316.0" y2="84.7" stroke="rgb(0,0,0)"  stroke-width="1.0"/>
<line x1="394.7" y1="70.6" x2="369.0" y2="40.0" stroke="rgb(0,0,0)"  stroke-width="1.0"/>
<line x1="385.4" y1="70.6" x2="367.3" y2="49.2" stroke="rgb(0,0,0)"  stroke-width="1.0"/>
<line x1="369.0" y1="40.0" x2="329.6" y2="47.0" stroke="rgb(0,0,0)"  stroke-width="1.0"/>
<line x1="329.6" y1="47.0" x2="316.0" y2="84.7" stroke="rgb(0,0,0)"  stroke-width="1.0"/>
<line x1="341.8" y1="115.2" x2="381.2" y2="108.2" stroke="rgb(0,0,0)"  stroke-width="1.0"/>
<line x1="381.2" y1="108.2" x2="394.7" y2="70.6" stroke="rgb(0,0,0)"  stroke-width="1.0"/>
<line x1="434.1" y1="63.5" x2="459.9" y2="94.1" stroke="rgb(0,0,0)"  stroke-width="1.0"/>
<line x1="459.9" y1="94.1" x2="446.3" y2="131.7" stroke="rgb(0,0,0)"  stroke-width="1.0"/>
<line x1="446.3" y1="131.7" x2="406.9" y2="138.8" stroke="rgb(0,0,0)"  stroke-width="1.0"/>
<line x1="406.9" y1="138.8" x2="381.2" y2="108.2" stroke="rgb(0,0,0)"  stroke-width="1.0"/>
<line x1="394.7" y1="70.6" x2="434.1" y2="63.5" stroke="rgb(0,0,0)"  stroke-width="1.0"/>
<text x="23.478753" y="77.085954" fill="rgb(102,102,102)"  stroke="rgb(102,102,102)" stroke-width="1" font-size="16" >H</text>
<text x="35.478753" y="80.765954" fill="rgb(102,102,102)"  stroke="rgb(102,102,102)" stroke-width="1" font-size="13" >3</text>
<text x="41.978753" y="77.085954" fill="rgb(102,102,102)"  stroke="rgb(102,102,102)" stroke-width="1" font-size="16" >C</text>
<text x="209.570271" y="204.653970" fill="rgb(102,102,102)"  stroke="rgb(102,102,102)" stroke-width="1" font-size="16" >CH</text>
<text x="233.570271" y="208.333970" fill="rgb(102,102,102)"  stroke="rgb(102,102,102)" stroke-width="1" font-size="13" >3</text>
<text x="493.275889" y="95.078615" fill="rgb(255,12,12)"  stroke="rgb(255,12,12)" stroke-width="1" font-size="16" >OH</text>
<text x="341.562433" y="153.822642" fill="rgb(102,102,102)"  stroke="rgb(102,102,102)" stroke-width="1" font-size="16" >H</text>
<text x="353.562433" y="157.502642" fill="rgb(102,102,102)"  stroke="rgb(102,102,102)" stroke-width="1" font-size="13" >3</text>
<text x="360.062433" y="153.822642" fill="rgb(102,102,102)"  stroke="rgb(102,102,102)" stroke-width="1" font-size="16" >C</text>
<text x="219.579851" y="173.318328" fill="rgb(102,102,102)"  stroke="rgb(102,102,102)" stroke-width="1" font-size="16" >H</text>
<text x="231.579851" y="176.998328" fill="rgb(102,102,102)"  stroke="rgb(102,102,102)" stroke-width="1" font-size="13" >3</text>
<text x="238.079851" y="173.318328" fill="rgb(102,102,102)"  stroke="rgb(102,102,102)" stroke-width="1" font-size="16" >C</text>
<text x="90.700405" y="188.241909" fill="rgb(102,102,102)"  stroke="rgb(102,102,102)" stroke-width="1" font-size="16" >CH</text>
<text x="114.700405" y="191.921909" fill="rgb(102,102,102)"  stroke="rgb(102,102,102)" stroke-width="1" font-size="13" >3</text>
<text x="14.000000" y="145.716005" fill="rgb(102,102,102)"  stroke="rgb(102,102,102)" stroke-width="1" font-size="16" >H</text>
<text x="26.000000" y="149.396005" fill="rgb(102,102,102)"  stroke="rgb(102,102,102)" stroke-width="1" font-size="13" >3</text>
<text x="32.500000" y="145.716005" fill="rgb(102,102,102)"  stroke="rgb(102,102,102)" stroke-width="1" font-size="16" >C</text>
<text font-size="18.000000" fill ="black" font-family="sans-serif"
x="10.000000" y="20.000000" >Phytosterol</text>
<title>Phytosterol - OBDepict</title>
</svg>
