<?xml version="1.0"?>
<svg xmlns="http://www.w3.org/2000/svg"
xmlns:xlink="http://www.w3.org/1999/xlink" xmlns:cml="http://www.xml-cml.org/schema" width="876.744" height="340.001" x="0" y="0" font-family="sans-serif" stroke="rgb(0,0,0)" stroke-width="1"  stroke-linecap="round">
<rect x="0%" y="0%" width="100%" height="100%" stroke-width="0" fill="rgb(255,255,255)"  />
<line x1="351.8" y1="133.0" x2="351.8" y2="160.0" stroke="rgb(0,0,0)"  stroke-width="1.0"/>
<line x1="351.8" y1="160.0" x2="317.1" y2="180.0" stroke="rgb(0,0,0)"  stroke-width="1.0"/>
<line x1="315.6" y1="182.6" x2="281.0" y2="162.6" stroke="rgb(0,0,0)"  stroke-width="1.0"/>
<line x1="318.6" y1="177.4" x2="284.0" y2="157.4" stroke="rgb(0,0,0)"  stroke-width="1.0"/>
<line x1="282.5" y1="160.0" x2="247.8" y2="180.0" stroke="rgb(0,0,0)"  stroke-width="1.0"/>
<line x1="246.3" y1="182.6" x2="211.7" y2="162.6" stroke="rgb(0,0,0)"  stroke-width="1.0"/>
<line x1="249.3" y1="177.4" x2="214.7" y2="157.4" stroke="rgb(0,0,0)"  stroke-width="1.0"/>
<line x1="213.2" y1="160.0" x2="213.2" y2="133.0" stroke="rgb(0,0,0)"  stroke-width="1.0"/>
<line x1="213.2" y1="160.0" x2="178.6" y2="180.0" stroke="rgb(0,0,0)"  stroke-width="1.0"/>
<line x1="181.6" y1="180.0" x2="181.6" y2="220.0" stroke="rgb(0,0,0)"  stroke-width="1.0"/>
<line x1="175.6" y1="180.0" x2="175.6" y2="220.0" stroke="rgb(0,0,0)"  stroke-width="1.0"/>
<line x1="178.6" y1="220.0" x2="143.9" y2="240.0" stroke="rgb(0,0,0)"  stroke-width="1.0"/>
<line x1="143.9" y1="280.0" x2="167.3" y2="293.5" stroke="rgb(0,0,0)"  stroke-width="1.0"/>
<polygon points="74.637675 280.000690 53.430582 296.864744 49.430284 289.936713 " stroke-width="1.000000" fill="rgb(0,0,0)"  stroke="rgb(0,0,0)" />
<line x1="109.3" y1="220.0" x2="96.6" y2="196.2" stroke="rgb(0,0,0)"  stroke-width="1.0"/>
<line x1="109.3" y1="220.0" x2="122.0" y2="196.2" stroke="rgb(0,0,0)"  stroke-width="1.0"/>
<line x1="353.3" y1="157.4" x2="387.9" y2="177.4" stroke="rgb(0,0,0)"  stroke-width="1.0"/>
<line x1="350.3" y1="162.6" x2="384.9" y2="182.6" stroke="rgb(0,0,0)"  stroke-width="1.0"/>
<line x1="386.4" y1="180.0" x2="421.1" y2="160.0" stroke="rgb(0,0,0)"  stroke-width="1.0"/>
<line x1="422.6" y1="157.4" x2="457.2" y2="177.4" stroke="rgb(0,0,0)"  stroke-width="1.0"/>
<line x1="419.6" y1="162.6" x2="454.2" y2="182.6" stroke="rgb(0,0,0)"  stroke-width="1.0"/>
<line x1="455.7" y1="180.0" x2="490.3" y2="160.0" stroke="rgb(0,0,0)"  stroke-width="1.0"/>
<line x1="491.8" y1="157.4" x2="526.5" y2="177.4" stroke="rgb(0,0,0)"  stroke-width="1.0"/>
<line x1="488.8" y1="162.6" x2="523.5" y2="182.6" stroke="rgb(0,0,0)"  stroke-width="1.0"/>
<line x1="525.0" y1="180.0" x2="525.0" y2="207.0" stroke="rgb(0,0,0)"  stroke-width="1.0"/>
<line x1="525.0" y1="180.0" x2="559.6" y2="160.0" stroke="rgb(0,0,0)"  stroke-width="1.0"/>
<line x1="561.1" y1="157.4" x2="595.8" y2="177.4" stroke="rgb(0,0,0)"  stroke-width="1.0"/>
<line x1="558.1" y1="162.6" x2="592.8" y2="182.6" stroke="rgb(0,0,0)"  stroke-width="1.0"/>
<line x1="594.3" y1="180.0" x2="628.9" y2="160.0" stroke="rgb(0,0,0)"  stroke-width="1.0"/>
<line x1="630.4" y1="157.4" x2="665.0" y2="177.4" stroke="rgb(0,0,0)"  stroke-width="1.0"/>
<line x1="627.4" y1="162.6" x2="662.0" y2="182.6" stroke="rgb(0,0,0)"  stroke-width="1.0"/>
<line x1="663.5" y1="180.0" x2="663.5" y2="207.0" stroke="rgb(0,0,0)"  stroke-width="1.0"/>
<line x1="663.5" y1="180.0" x2="698.2" y2="160.0" stroke="rgb(0,0,0)"  stroke-width="1.0"/>
<line x1="695.2" y1="160.0" x2="695.2" y2="120.0" stroke="rgb(0,0,0)"  stroke-width="1.0"/>
<line x1="701.2" y1="160.0" x2="701.2" y2="120.0" stroke="rgb(0,0,0)"  stroke-width="1.0"/>
<line x1="698.2" y1="120.0" x2="732.8" y2="100.0" stroke="rgb(0,0,0)"  stroke-width="1.0"/>
<line x1="732.8" y1="60.0" x2="709.4" y2="46.5" stroke="rgb(0,0,0)"  stroke-width="1.0"/>
<polygon points="802.101585 60.000057 823.312137 43.135882 827.312015 50.064156 " stroke-width="1.000000" fill="rgb(0,0,0)"  stroke="rgb(0,0,0)" />
<line x1="767.5" y1="120.0" x2="780.1" y2="143.8" stroke="rgb(0,0,0)"  stroke-width="1.0"/>
<line x1="767.5" y1="120.0" x2="754.8" y2="143.8" stroke="rgb(0,0,0)"  stroke-width="1.0"/>
<line x1="143.9" y1="240.0" x2="143.9" y2="280.0" stroke="rgb(0,0,0)"  stroke-width="1.0"/>
<line x1="136.7" y1="246.0" x2="136.7" y2="274.0" stroke="rgb(0,0,0)"  stroke-width="1.0"/>
<line x1="143.9" y1="280.0" x2="109.3" y2="300.0" stroke="rgb(0,0,0)"  stroke-width="1.0"/>
<line x1="109.3" y1="300.0" x2="74.6" y2="280.0" stroke="rgb(0,0,0)"  stroke-width="1.0"/>
<line x1="74.6" y1="280.0" x2="74.6" y2="240.0" stroke="rgb(0,0,0)"  stroke-width="1.0"/>
<line x1="74.6" y1="240.0" x2="109.3" y2="220.0" stroke="rgb(0,0,0)"  stroke-width="1.0"/>
<line x1="109.3" y1="220.0" x2="143.9" y2="240.0" stroke="rgb(0,0,0)"  stroke-width="1.0"/>
<line x1="732.8" y1="100.0" x2="732.8" y2="60.0" stroke="rgb(0,0,0)"  stroke-width="1.0"/>
<line x1="740.0" y1="94.0" x2="740.0" y2="66.0" stroke="rgb(0,0,0)"  stroke-width="1.0"/>
<line x1="732.8" y1="60.0" x2="767.5" y2="40.0" stroke="rgb(0,0,0)"  stroke-width="1.0"/>
<line x1="767.5" y1="40.0" x2="802.1" y2="60.0" stroke="rgb(0,0,0)"  stroke-width="1.0"/>
<line x1="802.1" y1="60.0" x2="802.1" y2="100.0" stroke="rgb(0,0,0)"  stroke-width="1.0"/>
<line x1="802.1" y1="100.0" x2="767.5" y2="120.0" stroke="rgb(0,0,0)"  stroke-width="1.0"/>
<line x1="767.5" y1="120.0" x2="732.8" y2="100.0" stroke="rgb(0,0,0)"  stroke-width="1.0"/>
<text x="347.768169" y="128.000230" fill="rgb(102,102,102)"  stroke="rgb(102,102,102)" stroke-width="1" font-size="16" >CH</text>
<text x="371.768169" y="131.680230" fill="rgb(102,102,102)"  stroke="rgb(102,102,102)" stroke-width="1" font-size="13" >3</text>
<text x="209.202922" y="128.000230" fill="rgb(102,102,102)"  stroke="rgb(102,102,102)" stroke-width="1" font-size="16" >CH</text>
<text x="233.202922" y="131.680230" fill="rgb(102,102,102)"  stroke="rgb(102,102,102)" stroke-width="1" font-size="13" >3</text>
<text x="174.565247" y="308.000747" fill="rgb(102,102,102)"  stroke="rgb(102,102,102)" stroke-width="1" font-size="16" >CH</text>
<text x="198.565247" y="311.680747" fill="rgb(102,102,102)"  stroke="rgb(102,102,102)" stroke-width="1" font-size="13" >3</text>
<text x="22.000000" y="308.000747" fill="rgb(255,12,12)"  stroke="rgb(255,12,12)" stroke-width="1" font-size="16" >HO</text>
<text x="64.501963" y="192.684052" fill="rgb(102,102,102)"  stroke="rgb(102,102,102)" stroke-width="1" font-size="16" >H</text>
<text x="76.501963" y="196.364052" fill="rgb(102,102,102)"  stroke="rgb(102,102,102)" stroke-width="1" font-size="13" >3</text>
<text x="83.001963" y="192.684052" fill="rgb(102,102,102)"  stroke="rgb(102,102,102)" stroke-width="1" font-size="16" >C</text>
<text x="124.058435" y="192.684052" fill="rgb(102,102,102)"  stroke="rgb(102,102,102)" stroke-width="1" font-size="16" >CH</text>
<text x="148.058435" y="196.364052" fill="rgb(102,102,102)"  stroke="rgb(102,102,102)" stroke-width="1" font-size="13" >3</text>
<text x="520.975940" y="228.000517" fill="rgb(102,102,102)"  stroke="rgb(102,102,102)" stroke-width="1" font-size="16" >CH</text>
<text x="544.975940" y="231.680517" fill="rgb(102,102,102)"  stroke="rgb(102,102,102)" stroke-width="1" font-size="13" >3</text>
<text x="659.541186" y="228.000517" fill="rgb(102,102,102)"  stroke="rgb(102,102,102)" stroke-width="1" font-size="16" >CH</text>
<text x="683.541186" y="231.680517" fill="rgb(102,102,102)"  stroke="rgb(102,102,102)" stroke-width="1" font-size="13" >3</text>
<text x="672.178862" y="48.000000" fill="rgb(102,102,102)"  stroke="rgb(102,102,102)" stroke-width="1" font-size="16" >H</text>
<text x="684.178862" y="51.680000" fill="rgb(102,102,102)"  stroke="rgb(102,102,102)" stroke-width="1" font-size="13" >3</text>
<text x="690.678862" y="48.000000" fill="rgb(102,102,102)"  stroke="rgb(102,102,102)" stroke-width="1" font-size="16" >C</text>
<text x="830.744109" y="48.000000" fill="rgb(255,12,12)"  stroke="rgb(255,12,12)" stroke-width="1" font-size="16" >OH</text>
<text x="782.242145" y="163.316695" fill="rgb(102,102,102)"  stroke="rgb(102,102,102)" stroke-width="1" font-size="16" >CH</text>
<text x="806.242145" y="166.996695" fill="rgb(102,102,102)"  stroke="rgb(102,102,102)" stroke-width="1" font-size="13" >3</text>
<text x="722.685674" y="163.316695" fill="rgb(102,102,102)"  stroke="rgb(102,102,102)" stroke-width="1" font-size="16" >H</text>
<text x="734.685674" y="166.996695" fill="rgb(102,102,102)"  stroke="rgb(102,102,102)" stroke-width="1" font-size="13" >3</text>
<text x="741.185674" y="163.316695" fill="rgb(102,102,102)"  stroke="rgb(102,102,102)" stroke-width="1" font-size="16" >C</text>
<text font-size="18.000000" fill ="black" font-family="sans-serif"
x="10.000000" y="20.000000" >zeaxanthin</text>
<title>zeaxanthin - OBDepict</title>
</svg>
