<?xml version="1.0"?>
<svg xmlns="http://www.w3.org/2000/svg"
xmlns:xlink="http://www.w3.org/1999/xlink" xmlns:cml="http://www.xml-cml.org/schema" width="218.564" height="259.999" x="0" y="0" font-family="sans-serif" stroke="rgb(0,0,0)" stroke-width="1"  stroke-linecap="round">
<rect x="0%" y="0%" width="100%" height="100%" stroke-width="0" fill="rgb(255,255,255)"  />
<line x1="85.9" y1="46.5" x2="109.3" y2="60.0" stroke="rgb(0,0,0)"  stroke-width="1.0"/>
<polygon points="109.284652 99.999830 105.284652 59.999943 113.284652 59.999943 " stroke-width="1.000000" fill="rgb(0,0,0)"  stroke="rgb(0,0,0)" />
<line x1="149.0" y1="162.0" x2="148.2" y2="163.4" stroke="rgb(0,0,0)"  stroke-width="1.0"/>
<line x1="153.0" y1="163.6" x2="151.6" y2="166.1" stroke="rgb(0,0,0)"  stroke-width="1.0"/>
<line x1="157.0" y1="165.2" x2="155.0" y2="168.8" stroke="rgb(0,0,0)"  stroke-width="1.0"/>
<line x1="161.1" y1="166.8" x2="158.3" y2="171.5" stroke="rgb(0,0,0)"  stroke-width="1.0"/>
<line x1="165.1" y1="168.3" x2="161.7" y2="174.2" stroke="rgb(0,0,0)"  stroke-width="1.0"/>
<line x1="169.1" y1="169.9" x2="165.1" y2="176.9" stroke="rgb(0,0,0)"  stroke-width="1.0"/>
<line x1="110.1" y1="185.4" x2="108.5" y2="185.4" stroke="rgb(0,0,0)"  stroke-width="1.0"/>
<line x1="110.7" y1="189.6" x2="107.8" y2="189.6" stroke="rgb(0,0,0)"  stroke-width="1.0"/>
<line x1="111.4" y1="193.9" x2="107.2" y2="193.9" stroke="rgb(0,0,0)"  stroke-width="1.0"/>
<line x1="112.0" y1="198.2" x2="106.6" y2="198.2" stroke="rgb(0,0,0)"  stroke-width="1.0"/>
<line x1="112.6" y1="202.5" x2="105.9" y2="202.5" stroke="rgb(0,0,0)"  stroke-width="1.0"/>
<line x1="113.3" y1="206.8" x2="105.3" y2="206.8" stroke="rgb(0,0,0)"  stroke-width="1.0"/>
<polygon points="74.642326 159.999661 53.431907 176.863759 49.432029 169.935486 " stroke-width="1.000000" fill="rgb(0,0,0)"  stroke="rgb(0,0,0)" />
<polygon points="74.642326 119.999774 49.432029 110.063948 53.431907 103.135675 " stroke-width="1.000000" fill="rgb(0,0,0)"  stroke="rgb(0,0,0)" />
<line x1="109.3" y1="100.0" x2="132.7" y2="113.5" stroke="rgb(0,0,0)"  stroke-width="1.0"/>
<line x1="143.9" y1="133.0" x2="143.9" y2="160.0" stroke="rgb(0,0,0)"  stroke-width="1.0"/>
<line x1="143.9" y1="160.0" x2="109.3" y2="180.0" stroke="rgb(0,0,0)"  stroke-width="1.0"/>
<line x1="109.3" y1="180.0" x2="74.6" y2="160.0" stroke="rgb(0,0,0)"  stroke-width="1.0"/>
<line x1="74.6" y1="160.0" x2="74.6" y2="120.0" stroke="rgb(0,0,0)"  stroke-width="1.0"/>
<line x1="74.6" y1="120.0" x2="109.3" y2="100.0" stroke="rgb(0,0,0)"  stroke-width="1.0"/>
<text x="56.642326" y="48.000000" fill="rgb(255,12,12)"  stroke="rgb(255,12,12)" stroke-width="1" font-size="16" >HO</text>
<text x="137.922130" y="127.999774" fill="rgb(255,12,12)"  stroke="rgb(255,12,12)" stroke-width="1" font-size="16" >O</text>
<text x="172.564457" y="187.999604" fill="rgb(255,12,12)"  stroke="rgb(255,12,12)" stroke-width="1" font-size="16" >OH</text>
<text x="103.284652" y="227.999491" fill="rgb(255,12,12)"  stroke="rgb(255,12,12)" stroke-width="1" font-size="16" >OH</text>
<text x="22.000000" y="187.999604" fill="rgb(255,12,12)"  stroke="rgb(255,12,12)" stroke-width="1" font-size="16" >HO</text>
<text x="22.000000" y="107.999830" fill="rgb(255,12,12)"  stroke="rgb(255,12,12)" stroke-width="1" font-size="16" >HO</text>
<text font-size="18.000000" fill ="black" font-family="sans-serif"
x="10.000000" y="20.000000" >?-D-galactose</text>
<title>?-D-galactose - OBDepict</title>
</svg>
