<?xml version="1.0"?>
<svg xmlns="http://www.w3.org/2000/svg"
xmlns:xlink="http://www.w3.org/1999/xlink" xmlns:cml="http://www.xml-cml.org/schema" width="426.411" height="448.229" x="0" y="0" font-family="sans-serif" stroke="rgb(0,0,0)" stroke-width="1"  stroke-linecap="round">
<rect x="0%" y="0%" width="100%" height="100%" stroke-width="0" fill="rgb(255,255,255)"  />
<line x1="201.9" y1="54.7" x2="178.6" y2="68.2" stroke="rgb(0,0,0)"  stroke-width="1.0"/>
<polygon points="178.565430 108.228165 174.565430 68.227997 182.565430 68.227997 " stroke-width="1.000000" fill="rgb(0,0,0)"  stroke="rgb(0,0,0)" />
<line x1="246.4" y1="105.6" x2="269.7" y2="92.1" stroke="rgb(0,0,0)"  stroke-width="1.0"/>
<line x1="249.4" y1="110.8" x2="272.7" y2="97.3" stroke="rgb(0,0,0)"  stroke-width="1.0"/>
<line x1="253.1" y1="146.9" x2="253.3" y2="148.5" stroke="rgb(0,0,0)"  stroke-width="1.0"/>
<line x1="257.3" y1="145.8" x2="257.6" y2="148.7" stroke="rgb(0,0,0)"  stroke-width="1.0"/>
<line x1="261.5" y1="144.7" x2="261.9" y2="148.8" stroke="rgb(0,0,0)"  stroke-width="1.0"/>
<line x1="265.7" y1="143.6" x2="266.3" y2="149.0" stroke="rgb(0,0,0)"  stroke-width="1.0"/>
<line x1="269.9" y1="142.5" x2="270.6" y2="149.2" stroke="rgb(0,0,0)"  stroke-width="1.0"/>
<line x1="274.1" y1="141.5" x2="274.9" y2="149.4" stroke="rgb(0,0,0)"  stroke-width="1.0"/>
<line x1="218.3" y1="170.2" x2="217.5" y2="171.6" stroke="rgb(0,0,0)"  stroke-width="1.0"/>
<line x1="222.3" y1="171.8" x2="220.8" y2="174.3" stroke="rgb(0,0,0)"  stroke-width="1.0"/>
<line x1="226.3" y1="173.4" x2="224.2" y2="177.0" stroke="rgb(0,0,0)"  stroke-width="1.0"/>
<line x1="230.4" y1="175.0" x2="227.6" y2="179.7" stroke="rgb(0,0,0)"  stroke-width="1.0"/>
<line x1="234.4" y1="176.6" x2="231.0" y2="182.4" stroke="rgb(0,0,0)"  stroke-width="1.0"/>
<line x1="238.4" y1="178.2" x2="234.4" y2="185.1" stroke="rgb(0,0,0)"  stroke-width="1.0"/>
<polygon points="282.488291 168.228417 261.281167 185.092489 257.280869 178.164458 " stroke-width="1.000000" fill="rgb(0,0,0)"  stroke="rgb(0,0,0)" />
<line x1="313.1" y1="104.6" x2="314.3" y2="103.6" stroke="rgb(0,0,0)"  stroke-width="1.0"/>
<line x1="309.8" y1="101.8" x2="312.0" y2="99.9" stroke="rgb(0,0,0)"  stroke-width="1.0"/>
<line x1="306.6" y1="98.9" x2="309.8" y2="96.2" stroke="rgb(0,0,0)"  stroke-width="1.0"/>
<line x1="303.3" y1="96.0" x2="307.5" y2="92.5" stroke="rgb(0,0,0)"  stroke-width="1.0"/>
<line x1="300.1" y1="93.1" x2="305.2" y2="88.8" stroke="rgb(0,0,0)"  stroke-width="1.0"/>
<line x1="296.8" y1="90.3" x2="303.0" y2="85.1" stroke="rgb(0,0,0)"  stroke-width="1.0"/>
<line x1="317.1" y1="108.2" x2="334.5" y2="87.5" stroke="rgb(0,0,0)"  stroke-width="1.0"/>
<line x1="338.4" y1="65.4" x2="333.6" y2="52.2" stroke="rgb(0,0,0)"  stroke-width="1.0"/>
<polygon points="351.773430 128.228249 372.980555 111.364177 376.980853 118.292209 " stroke-width="1.000000" fill="rgb(0,0,0)"  stroke="rgb(0,0,0)" />
<line x1="356.8" y1="170.2" x2="356.0" y2="171.6" stroke="rgb(0,0,0)"  stroke-width="1.0"/>
<line x1="360.8" y1="171.8" x2="359.4" y2="174.3" stroke="rgb(0,0,0)"  stroke-width="1.0"/>
<line x1="364.9" y1="173.4" x2="362.8" y2="177.0" stroke="rgb(0,0,0)"  stroke-width="1.0"/>
<line x1="368.9" y1="175.0" x2="366.2" y2="179.7" stroke="rgb(0,0,0)"  stroke-width="1.0"/>
<line x1="372.9" y1="176.6" x2="369.6" y2="182.4" stroke="rgb(0,0,0)"  stroke-width="1.0"/>
<line x1="377.0" y1="178.2" x2="373.0" y2="185.1" stroke="rgb(0,0,0)"  stroke-width="1.0"/>
<line x1="218.3" y1="210.2" x2="217.5" y2="211.6" stroke="rgb(0,0,0)"  stroke-width="1.0"/>
<line x1="222.3" y1="211.8" x2="220.8" y2="214.3" stroke="rgb(0,0,0)"  stroke-width="1.0"/>
<line x1="226.3" y1="213.4" x2="224.2" y2="217.0" stroke="rgb(0,0,0)"  stroke-width="1.0"/>
<line x1="230.4" y1="215.0" x2="227.6" y2="219.7" stroke="rgb(0,0,0)"  stroke-width="1.0"/>
<line x1="234.4" y1="216.6" x2="231.0" y2="222.4" stroke="rgb(0,0,0)"  stroke-width="1.0"/>
<line x1="238.4" y1="218.2" x2="234.4" y2="225.1" stroke="rgb(0,0,0)"  stroke-width="1.0"/>
<polygon points="178.565430 228.228669 182.565430 255.028782 174.565430 255.028782 " stroke-width="1.000000" fill="rgb(0,0,0)"  stroke="rgb(0,0,0)" />
<line x1="208.2" y1="286.2" x2="209.0" y2="284.9" stroke="rgb(0,0,0)"  stroke-width="1.0"/>
<line x1="204.1" y1="284.7" x2="205.6" y2="282.2" stroke="rgb(0,0,0)"  stroke-width="1.0"/>
<line x1="200.1" y1="283.1" x2="202.2" y2="279.5" stroke="rgb(0,0,0)"  stroke-width="1.0"/>
<line x1="196.1" y1="281.5" x2="198.8" y2="276.8" stroke="rgb(0,0,0)"  stroke-width="1.0"/>
<line x1="192.0" y1="279.9" x2="195.4" y2="274.1" stroke="rgb(0,0,0)"  stroke-width="1.0"/>
<line x1="188.0" y1="278.3" x2="192.0" y2="271.4" stroke="rgb(0,0,0)"  stroke-width="1.0"/>
<line x1="286.7" y1="284.9" x2="287.5" y2="286.2" stroke="rgb(0,0,0)"  stroke-width="1.0"/>
<line x1="290.1" y1="282.2" x2="291.6" y2="284.7" stroke="rgb(0,0,0)"  stroke-width="1.0"/>
<line x1="293.5" y1="279.5" x2="295.6" y2="283.1" stroke="rgb(0,0,0)"  stroke-width="1.0"/>
<line x1="296.9" y1="276.8" x2="299.6" y2="281.5" stroke="rgb(0,0,0)"  stroke-width="1.0"/>
<line x1="300.3" y1="274.1" x2="303.7" y2="279.9" stroke="rgb(0,0,0)"  stroke-width="1.0"/>
<line x1="303.7" y1="271.4" x2="307.7" y2="278.3" stroke="rgb(0,0,0)"  stroke-width="1.0"/>
<polygon points="213.208000 328.229089 191.997417 345.093282 187.997539 338.165009 " stroke-width="1.000000" fill="rgb(0,0,0)"  stroke="rgb(0,0,0)" />
<line x1="248.7" y1="353.6" x2="247.1" y2="353.6" stroke="rgb(0,0,0)"  stroke-width="1.0"/>
<line x1="249.3" y1="357.9" x2="246.4" y2="357.9" stroke="rgb(0,0,0)"  stroke-width="1.0"/>
<line x1="249.9" y1="362.2" x2="245.8" y2="362.2" stroke="rgb(0,0,0)"  stroke-width="1.0"/>
<line x1="250.6" y1="366.5" x2="245.1" y2="366.5" stroke="rgb(0,0,0)"  stroke-width="1.0"/>
<line x1="251.2" y1="370.7" x2="244.5" y2="370.7" stroke="rgb(0,0,0)"  stroke-width="1.0"/>
<line x1="251.9" y1="375.0" x2="243.9" y2="375.0" stroke="rgb(0,0,0)"  stroke-width="1.0"/>
<line x1="259.1" y1="394.7" x2="271.2" y2="401.7" stroke="rgb(0,0,0)"  stroke-width="1.0"/>
<line x1="236.6" y1="394.7" x2="224.5" y2="401.7" stroke="rgb(0,0,0)"  stroke-width="1.0"/>
<polygon points="143.922861 208.228585 156.848816 232.042650 149.331431 234.779241 " stroke-width="1.000000" fill="rgb(0,0,0)"  stroke="rgb(0,0,0)" />
<polygon points="74.642570 208.228585 53.431987 225.092778 49.432109 218.164505 " stroke-width="1.000000" fill="rgb(0,0,0)"  stroke="rgb(0,0,0)" />
<line x1="73.1" y1="170.8" x2="49.8" y2="157.3" stroke="rgb(0,0,0)"  stroke-width="1.0"/>
<line x1="76.1" y1="165.6" x2="52.8" y2="152.1" stroke="rgb(0,0,0)"  stroke-width="1.0"/>
<line x1="114.3" y1="150.2" x2="113.5" y2="151.6" stroke="rgb(0,0,0)"  stroke-width="1.0"/>
<line x1="118.4" y1="151.8" x2="116.9" y2="154.3" stroke="rgb(0,0,0)"  stroke-width="1.0"/>
<line x1="122.4" y1="153.4" x2="120.3" y2="157.0" stroke="rgb(0,0,0)"  stroke-width="1.0"/>
<line x1="126.4" y1="155.0" x2="123.7" y2="159.7" stroke="rgb(0,0,0)"  stroke-width="1.0"/>
<line x1="130.5" y1="156.6" x2="127.1" y2="162.4" stroke="rgb(0,0,0)"  stroke-width="1.0"/>
<line x1="134.5" y1="158.2" x2="130.5" y2="165.1" stroke="rgb(0,0,0)"  stroke-width="1.0"/>
<polygon points="109.285139 108.228165 84.074679 98.292246 88.074557 91.363972 " stroke-width="1.000000" fill="rgb(0,0,0)"  stroke="rgb(0,0,0)" />
<polygon points="143.922861 88.228081 127.809641 66.443915 134.873211 62.688121 " stroke-width="1.000000" fill="rgb(0,0,0)"  stroke="rgb(0,0,0)" />
<line x1="143.9" y1="88.2" x2="156.6" y2="64.4" stroke="rgb(0,0,0)"  stroke-width="1.0"/>
<line x1="143.9" y1="208.2" x2="134.7" y2="233.6" stroke="rgb(0,0,0)"  stroke-width="1.0"/>
<line x1="117.4" y1="248.1" x2="103.7" y2="250.5" stroke="rgb(0,0,0)"  stroke-width="1.0"/>
<line x1="282.5" y1="168.2" x2="282.5" y2="128.2" stroke="rgb(0,0,0)"  stroke-width="1.0"/>
<line x1="282.5" y1="128.2" x2="317.1" y2="108.2" stroke="rgb(0,0,0)"  stroke-width="1.0"/>
<line x1="317.1" y1="108.2" x2="351.8" y2="128.2" stroke="rgb(0,0,0)"  stroke-width="1.0"/>
<line x1="351.8" y1="128.2" x2="351.8" y2="168.2" stroke="rgb(0,0,0)"  stroke-width="1.0"/>
<line x1="351.8" y1="168.2" x2="328.4" y2="181.7" stroke="rgb(0,0,0)"  stroke-width="1.0"/>
<line x1="305.9" y1="181.7" x2="282.5" y2="168.2" stroke="rgb(0,0,0)"  stroke-width="1.0"/>
<line x1="213.2" y1="288.2" x2="236.6" y2="274.7" stroke="rgb(0,0,0)"  stroke-width="1.0"/>
<line x1="259.1" y1="274.7" x2="282.5" y2="288.2" stroke="rgb(0,0,0)"  stroke-width="1.0"/>
<line x1="282.5" y1="288.2" x2="282.5" y2="328.2" stroke="rgb(0,0,0)"  stroke-width="1.0"/>
<line x1="282.5" y1="328.2" x2="247.9" y2="348.2" stroke="rgb(0,0,0)"  stroke-width="1.0"/>
<line x1="247.9" y1="348.2" x2="213.2" y2="328.2" stroke="rgb(0,0,0)"  stroke-width="1.0"/>
<line x1="213.2" y1="328.2" x2="213.2" y2="288.2" stroke="rgb(0,0,0)"  stroke-width="1.0"/>
<line x1="178.6" y1="108.2" x2="201.9" y2="94.7" stroke="rgb(0,0,0)"  stroke-width="1.0"/>
<line x1="224.5" y1="94.7" x2="247.9" y2="108.2" stroke="rgb(0,0,0)"  stroke-width="1.0"/>
<line x1="247.9" y1="108.2" x2="247.9" y2="148.2" stroke="rgb(0,0,0)"  stroke-width="1.0"/>
<line x1="247.9" y1="148.2" x2="213.2" y2="168.2" stroke="rgb(0,0,0)"  stroke-width="1.0"/>
<line x1="213.2" y1="168.2" x2="213.2" y2="208.2" stroke="rgb(0,0,0)"  stroke-width="1.0"/>
<line x1="213.2" y1="208.2" x2="178.6" y2="228.2" stroke="rgb(0,0,0)"  stroke-width="1.0"/>
<line x1="178.6" y1="228.2" x2="143.9" y2="208.2" stroke="rgb(0,0,0)"  stroke-width="1.0"/>
<line x1="143.9" y1="208.2" x2="109.3" y2="228.2" stroke="rgb(0,0,0)"  stroke-width="1.0"/>
<line x1="109.3" y1="228.2" x2="74.6" y2="208.2" stroke="rgb(0,0,0)"  stroke-width="1.0"/>
<line x1="74.6" y1="208.2" x2="74.6" y2="168.2" stroke="rgb(0,0,0)"  stroke-width="1.0"/>
<line x1="74.6" y1="168.2" x2="109.3" y2="148.2" stroke="rgb(0,0,0)"  stroke-width="1.0"/>
<line x1="109.3" y1="148.2" x2="109.3" y2="108.2" stroke="rgb(0,0,0)"  stroke-width="1.0"/>
<line x1="109.3" y1="108.2" x2="143.9" y2="88.2" stroke="rgb(0,0,0)"  stroke-width="1.0"/>
<line x1="143.9" y1="88.2" x2="178.6" y2="108.2" stroke="rgb(0,0,0)"  stroke-width="1.0"/>
<text x="209.208000" y="56.227913" fill="rgb(102,102,102)"  stroke="rgb(102,102,102)" stroke-width="1" font-size="16" >CH</text>
<text x="233.208000" y="59.907913" fill="rgb(102,102,102)"  stroke="rgb(102,102,102)" stroke-width="1" font-size="13" >3</text>
<text x="207.208000" y="96.228081" fill="rgb(255,12,12)"  stroke="rgb(255,12,12)" stroke-width="1" font-size="16" >O</text>
<text x="276.488291" y="96.228081" fill="rgb(255,12,12)"  stroke="rgb(255,12,12)" stroke-width="1" font-size="16" >O</text>
<text x="283.627706" y="152.048922" fill="rgb(102,102,102)"  stroke="rgb(102,102,102)" stroke-width="1" font-size="16" >CH</text>
<text x="307.627706" y="155.728922" fill="rgb(102,102,102)"  stroke="rgb(102,102,102)" stroke-width="1" font-size="13" >3</text>
<text x="241.850570" y="196.228501" fill="rgb(255,12,12)"  stroke="rgb(255,12,12)" stroke-width="1" font-size="16" >O</text>
<text x="265.419238" y="85.585612" fill="rgb(102,102,102)"  stroke="rgb(102,102,102)" stroke-width="1" font-size="16" >H</text>
<text x="277.419238" y="89.265612" fill="rgb(102,102,102)"  stroke="rgb(102,102,102)" stroke-width="1" font-size="13" >3</text>
<text x="283.919238" y="85.585612" fill="rgb(102,102,102)"  stroke="rgb(102,102,102)" stroke-width="1" font-size="16" >C</text>
<text x="336.842484" y="85.585612" fill="rgb(255,12,12)"  stroke="rgb(255,12,12)" stroke-width="1" font-size="16" >O</text>
<text x="303.160002" y="48.000000" fill="rgb(102,102,102)"  stroke="rgb(102,102,102)" stroke-width="1" font-size="16" >H</text>
<text x="315.160002" y="51.680000" fill="rgb(102,102,102)"  stroke="rgb(102,102,102)" stroke-width="1" font-size="13" >3</text>
<text x="321.660002" y="48.000000" fill="rgb(102,102,102)"  stroke="rgb(102,102,102)" stroke-width="1" font-size="16" >C</text>
<text x="380.411152" y="116.228165" fill="rgb(255,12,12)"  stroke="rgb(255,12,12)" stroke-width="1" font-size="16" >OH</text>
<text x="382.411152" y="196.228501" fill="rgb(102,102,102)"  stroke="rgb(102,102,102)" stroke-width="1" font-size="16" >CH</text>
<text x="406.411152" y="199.908501" fill="rgb(102,102,102)"  stroke="rgb(102,102,102)" stroke-width="1" font-size="13" >3</text>
<text x="311.130861" y="196.228501" fill="rgb(255,12,12)"  stroke="rgb(255,12,12)" stroke-width="1" font-size="16" >O</text>
<text x="243.850570" y="236.228669" fill="rgb(102,102,102)"  stroke="rgb(102,102,102)" stroke-width="1" font-size="16" >CH</text>
<text x="267.850570" y="239.908669" fill="rgb(102,102,102)"  stroke="rgb(102,102,102)" stroke-width="1" font-size="13" >3</text>
<text x="172.565430" y="276.228837" fill="rgb(255,12,12)"  stroke="rgb(255,12,12)" stroke-width="1" font-size="16" >O</text>
<text x="241.850570" y="276.228837" fill="rgb(255,12,12)"  stroke="rgb(255,12,12)" stroke-width="1" font-size="16" >O</text>
<text x="313.130861" y="276.228837" fill="rgb(102,102,102)"  stroke="rgb(102,102,102)" stroke-width="1" font-size="16" >CH</text>
<text x="337.130861" y="279.908837" fill="rgb(102,102,102)"  stroke="rgb(102,102,102)" stroke-width="1" font-size="13" >3</text>
<text x="160.565430" y="356.229173" fill="rgb(255,12,12)"  stroke="rgb(255,12,12)" stroke-width="1" font-size="16" >HO</text>
<text x="241.850570" y="396.229341" fill="rgb(12,12,255)"  stroke="rgb(12,12,255)" stroke-width="1" font-size="16" >N</text>
<text x="278.488291" y="416.229425" fill="rgb(102,102,102)"  stroke="rgb(102,102,102)" stroke-width="1" font-size="16" >CH</text>
<text x="302.488291" y="419.909425" fill="rgb(102,102,102)"  stroke="rgb(102,102,102)" stroke-width="1" font-size="13" >3</text>
<text x="187.208000" y="416.229425" fill="rgb(102,102,102)"  stroke="rgb(102,102,102)" stroke-width="1" font-size="16" >H</text>
<text x="199.208000" y="419.909425" fill="rgb(102,102,102)"  stroke="rgb(102,102,102)" stroke-width="1" font-size="13" >3</text>
<text x="205.708000" y="416.229425" fill="rgb(102,102,102)"  stroke="rgb(102,102,102)" stroke-width="1" font-size="16" >C</text>
<text x="153.605342" y="253.814198" fill="rgb(102,102,102)"  stroke="rgb(102,102,102)" stroke-width="1" font-size="16" >CH</text>
<text x="177.605342" y="257.494198" fill="rgb(102,102,102)"  stroke="rgb(102,102,102)" stroke-width="1" font-size="13" >3</text>
<text x="14.000000" y="236.228669" fill="rgb(102,102,102)"  stroke="rgb(102,102,102)" stroke-width="1" font-size="16" >H</text>
<text x="26.000000" y="239.908669" fill="rgb(102,102,102)"  stroke="rgb(102,102,102)" stroke-width="1" font-size="13" >3</text>
<text x="32.500000" y="236.228669" fill="rgb(102,102,102)"  stroke="rgb(102,102,102)" stroke-width="1" font-size="16" >C</text>
<text x="34.000000" y="156.228333" fill="rgb(255,12,12)"  stroke="rgb(255,12,12)" stroke-width="1" font-size="16" >O</text>
<text x="139.922861" y="176.228417" fill="rgb(102,102,102)"  stroke="rgb(102,102,102)" stroke-width="1" font-size="16" >CH</text>
<text x="163.922861" y="179.908417" fill="rgb(102,102,102)"  stroke="rgb(102,102,102)" stroke-width="1" font-size="13" >3</text>
<text x="56.642570" y="96.228081" fill="rgb(255,12,12)"  stroke="rgb(255,12,12)" stroke-width="1" font-size="16" >HO</text>
<text x="99.144600" y="60.911569" fill="rgb(102,102,102)"  stroke="rgb(102,102,102)" stroke-width="1" font-size="16" >H</text>
<text x="111.144600" y="64.591569" fill="rgb(102,102,102)"  stroke="rgb(102,102,102)" stroke-width="1" font-size="13" >3</text>
<text x="117.644600" y="60.911569" fill="rgb(102,102,102)"  stroke="rgb(102,102,102)" stroke-width="1" font-size="16" >C</text>
<text x="156.705970" y="60.911569" fill="rgb(255,12,12)"  stroke="rgb(255,12,12)" stroke-width="1" font-size="16" >OH</text>
<text x="124.245227" y="253.814198" fill="rgb(255,12,12)"  stroke="rgb(255,12,12)" stroke-width="1" font-size="16" >O</text>
<text x="64.851123" y="260.762106" fill="rgb(102,102,102)"  stroke="rgb(102,102,102)" stroke-width="1" font-size="16" >H</text>
<text x="76.851123" y="264.442106" fill="rgb(102,102,102)"  stroke="rgb(102,102,102)" stroke-width="1" font-size="13" >3</text>
<text x="83.351123" y="260.762106" fill="rgb(102,102,102)"  stroke="rgb(102,102,102)" stroke-width="1" font-size="16" >C</text>
<text font-size="18.000000" fill ="black" font-family="sans-serif"
x="10.000000" y="20.000000" >Klacid</text>
<title>Klacid - OBDepict</title>
</svg>
