<?xml version="1.0"?>
<svg xmlns="http://www.w3.org/2000/svg"
xmlns:xlink="http://www.w3.org/1999/xlink" xmlns:cml="http://www.xml-cml.org/schema" width="426.413" height="359.999" x="0" y="0" font-family="sans-serif" stroke="rgb(0,0,0)" stroke-width="1"  stroke-linecap="round">
<rect x="0%" y="0%" width="100%" height="100%" stroke-width="0" fill="rgb(255,255,255)"  />
<line x1="178.6" y1="53.0" x2="178.6" y2="80.0" stroke="rgb(0,0,0)"  stroke-width="1.0"/>
<line x1="213.2" y1="100.0" x2="236.6" y2="86.5" stroke="rgb(0,0,0)"  stroke-width="1.0"/>
<line x1="189.8" y1="206.5" x2="213.2" y2="220.0" stroke="rgb(0,0,0)"  stroke-width="1.0"/>
<line x1="241.3" y1="204.7" x2="240.5" y2="203.3" stroke="rgb(0,0,0)"  stroke-width="1.0"/>
<line x1="236.1" y1="208.4" x2="234.7" y2="206.0" stroke="rgb(0,0,0)"  stroke-width="1.0"/>
<line x1="230.9" y1="212.2" x2="228.8" y2="208.6" stroke="rgb(0,0,0)"  stroke-width="1.0"/>
<line x1="225.7" y1="216.0" x2="222.9" y2="211.2" stroke="rgb(0,0,0)"  stroke-width="1.0"/>
<line x1="220.4" y1="219.7" x2="217.1" y2="213.9" stroke="rgb(0,0,0)"  stroke-width="1.0"/>
<line x1="215.2" y1="223.5" x2="211.2" y2="216.5" stroke="rgb(0,0,0)"  stroke-width="1.0"/>
<line x1="247.8" y1="200.0" x2="247.8" y2="173.0" stroke="rgb(0,0,0)"  stroke-width="1.0"/>
<line x1="247.8" y1="200.0" x2="282.5" y2="220.0" stroke="rgb(0,0,0)"  stroke-width="1.0"/>
<polygon points="282.486195 219.999200 286.486195 246.799081 278.486195 246.799081 " stroke-width="1.000000" fill="rgb(0,0,0)"  stroke="rgb(0,0,0)" />
<line x1="282.5" y1="220.0" x2="317.1" y2="200.0" stroke="rgb(0,0,0)"  stroke-width="1.0"/>
<line x1="316.3" y1="194.6" x2="317.9" y2="194.6" stroke="rgb(0,0,0)"  stroke-width="1.0"/>
<line x1="315.7" y1="190.4" x2="318.6" y2="190.4" stroke="rgb(0,0,0)"  stroke-width="1.0"/>
<line x1="315.0" y1="186.1" x2="319.2" y2="186.1" stroke="rgb(0,0,0)"  stroke-width="1.0"/>
<line x1="314.4" y1="181.8" x2="319.8" y2="181.8" stroke="rgb(0,0,0)"  stroke-width="1.0"/>
<line x1="313.8" y1="177.5" x2="320.5" y2="177.5" stroke="rgb(0,0,0)"  stroke-width="1.0"/>
<line x1="313.1" y1="173.2" x2="321.1" y2="173.2" stroke="rgb(0,0,0)"  stroke-width="1.0"/>
<line x1="317.1" y1="200.0" x2="351.8" y2="220.0" stroke="rgb(0,0,0)"  stroke-width="1.0"/>
<line x1="351.8" y1="220.0" x2="375.2" y2="206.5" stroke="rgb(0,0,0)"  stroke-width="1.0"/>
<line x1="112.3" y1="280.0" x2="112.3" y2="307.0" stroke="rgb(0,0,0)"  stroke-width="1.0"/>
<line x1="106.3" y1="280.0" x2="106.3" y2="307.0" stroke="rgb(0,0,0)"  stroke-width="1.0"/>
<line x1="73.1" y1="222.6" x2="49.8" y2="209.1" stroke="rgb(0,0,0)"  stroke-width="1.0"/>
<line x1="76.1" y1="217.4" x2="52.8" y2="203.9" stroke="rgb(0,0,0)"  stroke-width="1.0"/>
<line x1="178.6" y1="80.0" x2="213.2" y2="100.0" stroke="rgb(0,0,0)"  stroke-width="1.0"/>
<line x1="180.2" y1="89.2" x2="204.4" y2="103.2" stroke="rgb(0,0,0)"  stroke-width="1.0"/>
<line x1="213.2" y1="100.0" x2="213.2" y2="140.0" stroke="rgb(0,0,0)"  stroke-width="1.0"/>
<line x1="213.2" y1="140.0" x2="178.6" y2="160.0" stroke="rgb(0,0,0)"  stroke-width="1.0"/>
<line x1="204.4" y1="136.8" x2="180.2" y2="150.8" stroke="rgb(0,0,0)"  stroke-width="1.0"/>
<line x1="178.6" y1="160.0" x2="143.9" y2="140.0" stroke="rgb(0,0,0)"  stroke-width="1.0"/>
<line x1="143.9" y1="140.0" x2="143.9" y2="100.0" stroke="rgb(0,0,0)"  stroke-width="1.0"/>
<line x1="151.1" y1="134.0" x2="151.1" y2="106.0" stroke="rgb(0,0,0)"  stroke-width="1.0"/>
<line x1="143.9" y1="100.0" x2="178.6" y2="80.0" stroke="rgb(0,0,0)"  stroke-width="1.0"/>
<line x1="143.9" y1="220.0" x2="143.9" y2="246.8" stroke="rgb(0,0,0)"  stroke-width="1.0"/>
<line x1="136.7" y1="226.0" x2="136.7" y2="244.8" stroke="rgb(0,0,0)"  stroke-width="1.0"/>
<line x1="132.7" y1="266.5" x2="109.3" y2="280.0" stroke="rgb(0,0,0)"  stroke-width="1.0"/>
<line x1="109.3" y1="280.0" x2="85.9" y2="266.5" stroke="rgb(0,0,0)"  stroke-width="1.0"/>
<line x1="74.6" y1="247.0" x2="74.6" y2="220.0" stroke="rgb(0,0,0)"  stroke-width="1.0"/>
<line x1="74.6" y1="220.0" x2="109.3" y2="200.0" stroke="rgb(0,0,0)"  stroke-width="1.0"/>
<line x1="109.3" y1="200.0" x2="143.9" y2="220.0" stroke="rgb(0,0,0)"  stroke-width="1.0"/>
<line x1="178.6" y1="160.0" x2="178.6" y2="187.0" stroke="rgb(0,0,0)"  stroke-width="1.0"/>
<line x1="167.3" y1="206.5" x2="143.9" y2="220.0" stroke="rgb(0,0,0)"  stroke-width="1.0"/>
<line x1="109.3" y1="200.0" x2="109.3" y2="173.2" stroke="rgb(0,0,0)"  stroke-width="1.0"/>
<line x1="116.5" y1="194.0" x2="116.5" y2="175.2" stroke="rgb(0,0,0)"  stroke-width="1.0"/>
<line x1="120.5" y1="153.5" x2="143.9" y2="140.0" stroke="rgb(0,0,0)"  stroke-width="1.0"/>
<text x="174.564233" y="48.000000" fill="rgb(102,102,102)"  stroke="rgb(102,102,102)" stroke-width="1" font-size="16" >CH</text>
<text x="198.564233" y="51.680000" fill="rgb(102,102,102)"  stroke="rgb(102,102,102)" stroke-width="1" font-size="13" >3</text>
<text x="243.848773" y="87.999822" fill="rgb(102,102,102)"  stroke="rgb(102,102,102)" stroke-width="1" font-size="16" >CH</text>
<text x="267.848773" y="91.679822" fill="rgb(102,102,102)"  stroke="rgb(102,102,102)" stroke-width="1" font-size="13" >3</text>
<text x="172.564233" y="207.999289" fill="rgb(12,12,255)"  stroke="rgb(12,12,255)" stroke-width="1" font-size="16" >N</text>
<text x="241.848773" y="167.999467" fill="rgb(255,12,12)"  stroke="rgb(255,12,12)" stroke-width="1" font-size="16" >OH</text>
<text x="276.486195" y="267.999022" fill="rgb(255,12,12)"  stroke="rgb(255,12,12)" stroke-width="1" font-size="16" >OH</text>
<text x="311.128466" y="167.999467" fill="rgb(255,12,12)"  stroke="rgb(255,12,12)" stroke-width="1" font-size="16" >OH</text>
<text x="380.413006" y="207.999289" fill="rgb(255,12,12)"  stroke="rgb(255,12,12)" stroke-width="1" font-size="16" >OH</text>
<text x="137.926811" y="267.999022" fill="rgb(12,12,255)"  stroke="rgb(12,12,255)" stroke-width="1" font-size="16" >N</text>
<text x="103.284541" y="327.998756" fill="rgb(255,12,12)"  stroke="rgb(255,12,12)" stroke-width="1" font-size="16" >O</text>
<text x="56.642270" y="267.999022" fill="rgb(12,12,255)"  stroke="rgb(12,12,255)" stroke-width="1" font-size="16" >HN</text>
<text x="34.000000" y="207.999289" fill="rgb(255,12,12)"  stroke="rgb(255,12,12)" stroke-width="1" font-size="16" >O</text>
<text x="103.284541" y="167.999467" fill="rgb(12,12,255)"  stroke="rgb(12,12,255)" stroke-width="1" font-size="16" >N</text>
<text font-size="18.000000" fill ="black" font-family="sans-serif"
x="10.000000" y="20.000000" >riboflavin</text>
<title>riboflavin - OBDepict</title>
</svg>
