<?xml version="1.0"?>
<svg xmlns="http://www.w3.org/2000/svg"
xmlns:xlink="http://www.w3.org/1999/xlink" xmlns:cml="http://www.xml-cml.org/schema" width="253.204" height="180.001" x="0" y="0" font-family="sans-serif" stroke="rgb(0,0,0)" stroke-width="1"  stroke-linecap="round">
<rect x="0%" y="0%" width="100%" height="100%" stroke-width="0" fill="rgb(255,255,255)"  />
<line x1="51.3" y1="93.5" x2="74.6" y2="80.0" stroke="rgb(0,0,0)"  stroke-width="1.0"/>
<line x1="74.6" y1="80.0" x2="74.6" y2="53.0" stroke="rgb(0,0,0)"  stroke-width="1.0"/>
<line x1="74.6" y1="80.0" x2="109.3" y2="100.0" stroke="rgb(0,0,0)"  stroke-width="1.0"/>
<line x1="137.4" y1="84.7" x2="136.6" y2="83.3" stroke="rgb(0,0,0)"  stroke-width="1.0"/>
<line x1="132.2" y1="88.4" x2="130.7" y2="86.0" stroke="rgb(0,0,0)"  stroke-width="1.0"/>
<line x1="126.9" y1="92.2" x2="124.9" y2="88.6" stroke="rgb(0,0,0)"  stroke-width="1.0"/>
<line x1="121.7" y1="96.0" x2="119.0" y2="91.2" stroke="rgb(0,0,0)"  stroke-width="1.0"/>
<line x1="116.5" y1="99.7" x2="113.1" y2="93.9" stroke="rgb(0,0,0)"  stroke-width="1.0"/>
<line x1="111.3" y1="103.5" x2="107.3" y2="96.5" stroke="rgb(0,0,0)"  stroke-width="1.0"/>
<line x1="143.9" y1="80.0" x2="143.9" y2="53.0" stroke="rgb(0,0,0)"  stroke-width="1.0"/>
<line x1="143.9" y1="80.0" x2="178.6" y2="100.0" stroke="rgb(0,0,0)"  stroke-width="1.0"/>
<line x1="178.6" y1="100.0" x2="201.9" y2="86.5" stroke="rgb(0,0,0)"  stroke-width="1.0"/>
<line x1="181.6" y1="100.0" x2="181.6" y2="127.0" stroke="rgb(0,0,0)"  stroke-width="1.0"/>
<line x1="175.6" y1="100.0" x2="175.6" y2="127.0" stroke="rgb(0,0,0)"  stroke-width="1.0"/>
<text x="14.000000" y="108.000431" fill="rgb(102,102,102)"  stroke="rgb(102,102,102)" stroke-width="1" font-size="16" >H</text>
<text x="26.000000" y="111.680431" fill="rgb(102,102,102)"  stroke="rgb(102,102,102)" stroke-width="1" font-size="13" >3</text>
<text x="32.500000" y="108.000431" fill="rgb(102,102,102)"  stroke="rgb(102,102,102)" stroke-width="1" font-size="16" >C</text>
<text x="70.637825" y="48.000000" fill="rgb(102,102,102)"  stroke="rgb(102,102,102)" stroke-width="1" font-size="16" >CH</text>
<text x="94.637825" y="51.680000" fill="rgb(102,102,102)"  stroke="rgb(102,102,102)" stroke-width="1" font-size="13" >3</text>
<text x="139.923171" y="48.000000" fill="rgb(12,12,255)"  stroke="rgb(12,12,255)" stroke-width="1" font-size="16" >NH</text>
<text x="163.923171" y="51.680000" fill="rgb(12,12,255)"  stroke="rgb(12,12,255)" stroke-width="1" font-size="13" >2</text>
<text x="207.203669" y="88.000288" fill="rgb(255,12,12)"  stroke="rgb(255,12,12)" stroke-width="1" font-size="16" >OH</text>
<text x="172.560996" y="148.000719" fill="rgb(255,12,12)"  stroke="rgb(255,12,12)" stroke-width="1" font-size="16" >O</text>
<text font-size="18.000000" fill ="black" font-family="sans-serif"
x="10.000000" y="20.000000" >leucine</text>
<title>leucine - OBDepict</title>
</svg>
