<?xml version="1.0"?>
<svg xmlns="http://www.w3.org/2000/svg"
xmlns:xlink="http://www.w3.org/1999/xlink" xmlns:cml="http://www.xml-cml.org/schema" width="193.914" height="278.223" x="0" y="0" font-family="sans-serif" stroke="rgb(0,0,0)" stroke-width="1"  stroke-linecap="round">
<rect x="0%" y="0%" width="100%" height="100%" stroke-width="0" fill="rgb(255,255,255)"  />
<line x1="51.0" y1="226.3" x2="40.0" y2="201.7" stroke="rgb(0,0,0)"  stroke-width="1.0"/>
<polygon points="63.514863 169.322047 43.235825 204.031913 36.764175 199.328961 " stroke-width="1.000000" fill="rgb(0,0,0)"  stroke="rgb(0,0,0)" />
<polygon points="83.514617 107.766440 62.607523 90.526913 68.552381 85.173535 " stroke-width="1.000000" fill="rgb(0,0,0)"  stroke="rgb(0,0,0)" />
<line x1="83.5" y1="107.8" x2="110.3" y2="78.0" stroke="rgb(0,0,0)"  stroke-width="1.0"/>
<line x1="110.3" y1="78.0" x2="101.9" y2="52.4" stroke="rgb(0,0,0)"  stroke-width="1.0"/>
<polygon points="115.873007 131.276454 140.124378 119.191896 142.596234 126.800440 " stroke-width="1.000000" fill="rgb(0,0,0)"  stroke="rgb(0,0,0)" />
<line x1="107.3" y1="173.2" x2="106.0" y2="174.1" stroke="rgb(0,0,0)"  stroke-width="1.0"/>
<line x1="110.3" y1="176.3" x2="108.0" y2="178.0" stroke="rgb(0,0,0)"  stroke-width="1.0"/>
<line x1="113.4" y1="179.4" x2="110.0" y2="181.8" stroke="rgb(0,0,0)"  stroke-width="1.0"/>
<line x1="116.4" y1="182.5" x2="112.0" y2="185.7" stroke="rgb(0,0,0)"  stroke-width="1.0"/>
<line x1="119.5" y1="185.6" x2="114.0" y2="189.5" stroke="rgb(0,0,0)"  stroke-width="1.0"/>
<line x1="122.5" y1="188.7" x2="116.0" y2="193.4" stroke="rgb(0,0,0)"  stroke-width="1.0"/>
<line x1="63.5" y1="169.3" x2="55.2" y2="143.6" stroke="rgb(0,0,0)"  stroke-width="1.0"/>
<line x1="61.7" y1="123.6" x2="83.5" y2="107.8" stroke="rgb(0,0,0)"  stroke-width="1.0"/>
<line x1="83.5" y1="107.8" x2="115.9" y2="131.3" stroke="rgb(0,0,0)"  stroke-width="1.0"/>
<line x1="115.9" y1="131.3" x2="103.5" y2="169.3" stroke="rgb(0,0,0)"  stroke-width="1.0"/>
<line x1="103.5" y1="169.3" x2="63.5" y2="169.3" stroke="rgb(0,0,0)"  stroke-width="1.0"/>
<text x="50.271315" y="246.223019" fill="rgb(255,12,12)"  stroke="rgb(255,12,12)" stroke-width="1" font-size="16" >OH</text>
<text x="45.151378" y="139.276454" fill="rgb(255,12,12)"  stroke="rgb(255,12,12)" stroke-width="1" font-size="16" >O</text>
<text x="38.746461" y="86.040745" fill="rgb(255,12,12)"  stroke="rgb(255,12,12)" stroke-width="1" font-size="16" >HO</text>
<text x="79.919288" y="48.000000" fill="rgb(255,12,12)"  stroke="rgb(255,12,12)" stroke-width="1" font-size="16" >HO</text>
<text x="147.913752" y="126.917818" fill="rgb(255,12,12)"  stroke="rgb(255,12,12)" stroke-width="1" font-size="16" >OH</text>
<text x="121.024385" y="209.680437" fill="rgb(255,12,12)"  stroke="rgb(255,12,12)" stroke-width="1" font-size="16" >OH</text>
<text font-size="18.000000" fill ="black" font-family="sans-serif"
x="10.000000" y="20.000000" >?-D-Fructofuranose</text>
<title>?-D-Fructofuranose - OBDepict</title>
</svg>
