<?xml version="1.0"?>
<svg xmlns="http://www.w3.org/2000/svg"
xmlns:xlink="http://www.w3.org/1999/xlink" xmlns:cml="http://www.xml-cml.org/schema" width="449.386" height="779.704" x="0" y="0" font-family="sans-serif" stroke="rgb(0,0,0)" stroke-width="1"  stroke-linecap="round">
<rect x="0%" y="0%" width="100%" height="100%" stroke-width="0" fill="rgb(255,255,255)"  />
<line x1="178.6" y1="284.0" x2="143.9" y2="304.0" stroke="rgb(0,0,0)"  stroke-width="1.0"/>
<line x1="143.9" y1="304.0" x2="143.9" y2="331.0" stroke="rgb(0,0,0)"  stroke-width="1.0"/>
<line x1="143.9" y1="304.0" x2="109.3" y2="284.0" stroke="rgb(0,0,0)"  stroke-width="1.0"/>
<line x1="109.3" y1="284.0" x2="109.3" y2="244.0" stroke="rgb(0,0,0)"  stroke-width="1.0"/>
<line x1="109.3" y1="244.0" x2="74.6" y2="224.0" stroke="rgb(0,0,0)"  stroke-width="1.0"/>
<polygon points="74.637549 184.038678 78.637549 224.038648 70.637549 224.038648 " stroke-width="1.000000" fill="rgb(0,0,0)"  stroke="rgb(0,0,0)" />
<line x1="74.6" y1="184.0" x2="51.3" y2="170.5" stroke="rgb(0,0,0)"  stroke-width="1.0"/>
<line x1="109.3" y1="164.0" x2="74.6" y2="184.0" stroke="rgb(0,0,0)"  stroke-width="1.0"/>
<polygon points="109.279947 164.038693 109.481236 123.843772 117.437439 124.679736 " stroke-width="1.000000" fill="rgb(0,0,0)"  stroke="rgb(0,0,0)" />
<polygon points="145.822950 180.310196 128.582926 201.214489 123.230083 195.269148 " stroke-width="1.000000" fill="rgb(0,0,0)"  stroke="rgb(0,0,0)" />
<line x1="209.5" y1="156.9" x2="236.2" y2="127.2" stroke="rgb(0,0,0)"  stroke-width="1.0"/>
<line x1="213.9" y1="160.9" x2="240.7" y2="131.2" stroke="rgb(0,0,0)"  stroke-width="1.0"/>
<line x1="238.5" y1="129.2" x2="277.6" y2="137.5" stroke="rgb(0,0,0)"  stroke-width="1.0"/>
<line x1="275.4" y1="135.5" x2="302.1" y2="105.8" stroke="rgb(0,0,0)"  stroke-width="1.0"/>
<line x1="279.8" y1="139.5" x2="306.6" y2="109.8" stroke="rgb(0,0,0)"  stroke-width="1.0"/>
<line x1="375.7" y1="86.7" x2="375.3" y2="88.3" stroke="rgb(0,0,0)"  stroke-width="1.0"/>
<line x1="380.0" y1="87.0" x2="379.4" y2="89.8" stroke="rgb(0,0,0)"  stroke-width="1.0"/>
<line x1="384.3" y1="87.2" x2="383.5" y2="91.3" stroke="rgb(0,0,0)"  stroke-width="1.0"/>
<line x1="388.7" y1="87.5" x2="387.5" y2="92.8" stroke="rgb(0,0,0)"  stroke-width="1.0"/>
<line x1="393.0" y1="87.7" x2="391.6" y2="94.3" stroke="rgb(0,0,0)"  stroke-width="1.0"/>
<line x1="397.3" y1="88.0" x2="395.6" y2="95.8" stroke="rgb(0,0,0)"  stroke-width="1.0"/>
<line x1="291.4" y1="72.7" x2="265.0" y2="67.0" stroke="rgb(0,0,0)"  stroke-width="1.0"/>
<line x1="292.6" y1="66.8" x2="266.2" y2="61.2" stroke="rgb(0,0,0)"  stroke-width="1.0"/>
<line x1="175.0" y1="730.0" x2="157.0" y2="710.0" stroke="rgb(0,0,0)"  stroke-width="1.0"/>
<line x1="157.0" y1="710.0" x2="130.6" y2="715.6" stroke="rgb(0,0,0)"  stroke-width="1.0"/>
<line x1="157.0" y1="710.0" x2="169.3" y2="671.9" stroke="rgb(0,0,0)"  stroke-width="1.0"/>
<line x1="169.3" y1="671.9" x2="142.6" y2="642.2" stroke="rgb(0,0,0)"  stroke-width="1.0"/>
<line x1="142.6" y1="642.2" x2="154.9" y2="604.2" stroke="rgb(0,0,0)"  stroke-width="1.0"/>
<polygon points="128.159933 574.443229 157.896219 601.492845 151.950878 606.845688 " stroke-width="1.000000" fill="rgb(0,0,0)"  stroke="rgb(0,0,0)" />
<line x1="128.2" y1="574.4" x2="101.7" y2="580.1" stroke="rgb(0,0,0)"  stroke-width="1.0"/>
<line x1="140.5" y1="536.4" x2="128.2" y2="574.4" stroke="rgb(0,0,0)"  stroke-width="1.0"/>
<polygon points="140.518711 536.402046 113.772203 506.389362 120.244649 501.687506 " stroke-width="1.000000" fill="rgb(0,0,0)"  stroke="rgb(0,0,0)" />
<polygon points="178.559894 524.038419 179.737809 551.110148 171.781596 550.274285 " stroke-width="1.000000" fill="rgb(0,0,0)"  stroke="rgb(0,0,0)" />
<line x1="210.2" y1="464.0" x2="210.2" y2="424.0" stroke="rgb(0,0,0)"  stroke-width="1.0"/>
<line x1="216.2" y1="464.0" x2="216.2" y2="424.0" stroke="rgb(0,0,0)"  stroke-width="1.0"/>
<line x1="213.2" y1="424.0" x2="247.8" y2="404.0" stroke="rgb(0,0,0)"  stroke-width="1.0"/>
<line x1="244.8" y1="404.0" x2="244.8" y2="364.0" stroke="rgb(0,0,0)"  stroke-width="1.0"/>
<line x1="250.8" y1="404.0" x2="250.8" y2="364.0" stroke="rgb(0,0,0)"  stroke-width="1.0"/>
<line x1="286.7" y1="300.7" x2="287.5" y2="302.1" stroke="rgb(0,0,0)"  stroke-width="1.0"/>
<line x1="290.1" y1="298.0" x2="291.6" y2="300.5" stroke="rgb(0,0,0)"  stroke-width="1.0"/>
<line x1="293.5" y1="295.3" x2="295.6" y2="298.9" stroke="rgb(0,0,0)"  stroke-width="1.0"/>
<line x1="296.9" y1="292.6" x2="299.6" y2="297.3" stroke="rgb(0,0,0)"  stroke-width="1.0"/>
<line x1="300.3" y1="289.9" x2="303.7" y2="295.7" stroke="rgb(0,0,0)"  stroke-width="1.0"/>
<line x1="303.7" y1="287.2" x2="307.7" y2="294.1" stroke="rgb(0,0,0)"  stroke-width="1.0"/>
<line x1="214.7" y1="346.6" x2="191.3" y2="360.1" stroke="rgb(0,0,0)"  stroke-width="1.0"/>
<line x1="211.7" y1="341.4" x2="188.3" y2="354.9" stroke="rgb(0,0,0)"  stroke-width="1.0"/>
<line x1="178.6" y1="284.0" x2="213.2" y2="304.0" stroke="rgb(0,0,0)"  stroke-width="1.0"/>
<line x1="109.3" y1="164.0" x2="113.5" y2="124.3" stroke="rgb(0,0,0)"  stroke-width="1.0"/>
<line x1="113.5" y1="124.3" x2="152.6" y2="115.9" stroke="rgb(0,0,0)"  stroke-width="1.0"/>
<line x1="152.6" y1="115.9" x2="172.6" y2="150.6" stroke="rgb(0,0,0)"  stroke-width="1.0"/>
<line x1="172.6" y1="150.6" x2="145.8" y2="180.3" stroke="rgb(0,0,0)"  stroke-width="1.0"/>
<line x1="145.8" y1="180.3" x2="109.3" y2="164.0" stroke="rgb(0,0,0)"  stroke-width="1.0"/>
<line x1="140.5" y1="471.7" x2="178.6" y2="484.0" stroke="rgb(0,0,0)"  stroke-width="1.0"/>
<line x1="178.6" y1="484.0" x2="178.6" y2="524.0" stroke="rgb(0,0,0)"  stroke-width="1.0"/>
<line x1="178.6" y1="524.0" x2="140.5" y2="536.4" stroke="rgb(0,0,0)"  stroke-width="1.0"/>
<line x1="140.5" y1="536.4" x2="117.0" y2="504.0" stroke="rgb(0,0,0)"  stroke-width="1.0"/>
<line x1="117.0" y1="504.0" x2="140.5" y2="471.7" stroke="rgb(0,0,0)"  stroke-width="1.0"/>
<line x1="211.7" y1="158.9" x2="224.1" y2="196.9" stroke="rgb(0,0,0)"  stroke-width="1.0"/>
<line x1="224.1" y1="196.9" x2="197.3" y2="226.7" stroke="rgb(0,0,0)"  stroke-width="1.0"/>
<line x1="197.3" y1="226.7" x2="158.2" y2="218.4" stroke="rgb(0,0,0)"  stroke-width="1.0"/>
<line x1="158.2" y1="218.4" x2="145.8" y2="180.3" stroke="rgb(0,0,0)"  stroke-width="1.0"/>
<line x1="172.6" y1="150.6" x2="211.7" y2="158.9" stroke="rgb(0,0,0)"  stroke-width="1.0"/>
<line x1="304.4" y1="107.8" x2="343.5" y2="116.1" stroke="rgb(0,0,0)"  stroke-width="1.0"/>
<line x1="343.5" y1="116.1" x2="370.3" y2="86.4" stroke="rgb(0,0,0)"  stroke-width="1.0"/>
<line x1="370.3" y1="86.4" x2="357.9" y2="48.3" stroke="rgb(0,0,0)"  stroke-width="1.0"/>
<line x1="357.9" y1="48.3" x2="318.8" y2="40.0" stroke="rgb(0,0,0)"  stroke-width="1.0"/>
<line x1="318.8" y1="40.0" x2="292.0" y2="69.7" stroke="rgb(0,0,0)"  stroke-width="1.0"/>
<line x1="292.0" y1="69.7" x2="304.4" y2="107.8" stroke="rgb(0,0,0)"  stroke-width="1.0"/>
<line x1="247.8" y1="524.0" x2="213.2" y2="544.0" stroke="rgb(0,0,0)"  stroke-width="1.0"/>
<line x1="213.2" y1="544.0" x2="178.6" y2="524.0" stroke="rgb(0,0,0)"  stroke-width="1.0"/>
<line x1="178.6" y1="484.0" x2="213.2" y2="464.0" stroke="rgb(0,0,0)"  stroke-width="1.0"/>
<line x1="213.2" y1="464.0" x2="247.8" y2="484.0" stroke="rgb(0,0,0)"  stroke-width="1.0"/>
<line x1="247.8" y1="484.0" x2="247.8" y2="524.0" stroke="rgb(0,0,0)"  stroke-width="1.0"/>
<line x1="282.5" y1="304.0" x2="247.8" y2="284.0" stroke="rgb(0,0,0)"  stroke-width="1.0"/>
<line x1="247.8" y1="284.0" x2="213.2" y2="304.0" stroke="rgb(0,0,0)"  stroke-width="1.0"/>
<line x1="213.2" y1="304.0" x2="213.2" y2="344.0" stroke="rgb(0,0,0)"  stroke-width="1.0"/>
<line x1="213.2" y1="344.0" x2="247.8" y2="364.0" stroke="rgb(0,0,0)"  stroke-width="1.0"/>
<line x1="247.8" y1="364.0" x2="282.5" y2="344.0" stroke="rgb(0,0,0)"  stroke-width="1.0"/>
<line x1="282.5" y1="344.0" x2="282.5" y2="304.0" stroke="rgb(0,0,0)"  stroke-width="1.0"/>
<text x="139.922345" y="352.038556" fill="rgb(102,102,102)"  stroke="rgb(102,102,102)" stroke-width="1" font-size="16" >CH</text>
<text x="163.922345" y="355.718556" fill="rgb(102,102,102)"  stroke="rgb(102,102,102)" stroke-width="1" font-size="13" >3</text>
<text x="14.000000" y="172.038693" fill="rgb(102,102,102)"  stroke="rgb(102,102,102)" stroke-width="1" font-size="16" >H</text>
<text x="26.000000" y="175.718693" fill="rgb(102,102,102)"  stroke="rgb(102,102,102)" stroke-width="1" font-size="13" >3</text>
<text x="32.500000" y="172.038693" fill="rgb(102,102,102)"  stroke="rgb(102,102,102)" stroke-width="1" font-size="16" >C</text>
<text x="90.096912" y="215.073812" fill="rgb(102,102,102)"  stroke="rgb(102,102,102)" stroke-width="1" font-size="16" >H</text>
<text x="102.096912" y="218.753812" fill="rgb(102,102,102)"  stroke="rgb(102,102,102)" stroke-width="1" font-size="13" >3</text>
<text x="108.596912" y="215.073812" fill="rgb(102,102,102)"  stroke="rgb(102,102,102)" stroke-width="1" font-size="16" >C</text>
<text x="403.386385" y="102.671473" fill="rgb(255,12,12)"  stroke="rgb(255,12,12)" stroke-width="1" font-size="16" >OH</text>
<text x="226.882262" y="69.406044" fill="rgb(102,102,102)"  stroke="rgb(102,102,102)" stroke-width="1" font-size="16" >H</text>
<text x="238.882262" y="73.086044" fill="rgb(102,102,102)"  stroke="rgb(102,102,102)" stroke-width="1" font-size="13" >2</text>
<text x="245.382262" y="69.406044" fill="rgb(102,102,102)"  stroke="rgb(102,102,102)" stroke-width="1" font-size="16" >C</text>
<text x="179.733224" y="747.703709" fill="rgb(102,102,102)"  stroke="rgb(102,102,102)" stroke-width="1" font-size="16" >CH</text>
<text x="203.733224" y="751.383709" fill="rgb(102,102,102)"  stroke="rgb(102,102,102)" stroke-width="1" font-size="13" >3</text>
<text x="91.842365" y="726.297665" fill="rgb(102,102,102)"  stroke="rgb(102,102,102)" stroke-width="1" font-size="16" >H</text>
<text x="103.842365" y="729.977665" fill="rgb(102,102,102)"  stroke="rgb(102,102,102)" stroke-width="1" font-size="13" >3</text>
<text x="110.342365" y="726.297665" fill="rgb(102,102,102)"  stroke="rgb(102,102,102)" stroke-width="1" font-size="16" >C</text>
<text x="63.032690" y="590.758374" fill="rgb(102,102,102)"  stroke="rgb(102,102,102)" stroke-width="1" font-size="16" >H</text>
<text x="75.032690" y="594.438374" fill="rgb(102,102,102)"  stroke="rgb(102,102,102)" stroke-width="1" font-size="13" >3</text>
<text x="81.532690" y="590.758374" fill="rgb(102,102,102)"  stroke="rgb(102,102,102)" stroke-width="1" font-size="16" >C</text>
<text x="148.380504" y="571.820207" fill="rgb(102,102,102)"  stroke="rgb(102,102,102)" stroke-width="1" font-size="16" >H</text>
<text x="160.380504" y="575.500207" fill="rgb(102,102,102)"  stroke="rgb(102,102,102)" stroke-width="1" font-size="13" >3</text>
<text x="166.880504" y="571.820207" fill="rgb(102,102,102)"  stroke="rgb(102,102,102)" stroke-width="1" font-size="16" >C</text>
<text x="311.124637" y="292.038602" fill="rgb(255,12,12)"  stroke="rgb(255,12,12)" stroke-width="1" font-size="16" >OH</text>
<text x="152.559894" y="372.038541" fill="rgb(102,102,102)"  stroke="rgb(102,102,102)" stroke-width="1" font-size="16" >H</text>
<text x="164.559894" y="375.718541" fill="rgb(102,102,102)"  stroke="rgb(102,102,102)" stroke-width="1" font-size="13" >2</text>
<text x="171.059894" y="372.038541" fill="rgb(102,102,102)"  stroke="rgb(102,102,102)" stroke-width="1" font-size="16" >C</text>
<text font-size="18.000000" fill ="black" font-family="sans-serif"
x="10.000000" y="20.000000" >26 Vitamin D3 (cholecalciferol)</text>
<title>26 Vitamin D3 (cholecalciferol) - OBDepict</title>
</svg>
