<?xml version="1.0"?>
<svg xmlns="http://www.w3.org/2000/svg"
xmlns:xlink="http://www.w3.org/1999/xlink" xmlns:cml="http://www.xml-cml.org/schema" width="322.488" height="320.001" x="0" y="0" font-family="sans-serif" stroke="rgb(0,0,0)" stroke-width="1"  stroke-linecap="round">
<rect x="0%" y="0%" width="100%" height="100%" stroke-width="0" fill="rgb(255,255,255)"  />
<line x1="189.8" y1="166.5" x2="213.2" y2="180.0" stroke="rgb(0,0,0)"  stroke-width="1.0"/>
<line x1="213.2" y1="180.0" x2="247.8" y2="160.0" stroke="rgb(0,0,0)"  stroke-width="1.0"/>
<line x1="244.8" y1="160.0" x2="244.8" y2="120.0" stroke="rgb(0,0,0)"  stroke-width="1.0"/>
<line x1="250.8" y1="160.0" x2="250.8" y2="120.0" stroke="rgb(0,0,0)"  stroke-width="1.0"/>
<line x1="247.8" y1="120.0" x2="213.2" y2="100.0" stroke="rgb(0,0,0)"  stroke-width="1.0"/>
<line x1="213.2" y1="100.0" x2="213.2" y2="60.0" stroke="rgb(0,0,0)"  stroke-width="1.0"/>
<line x1="211.7" y1="62.6" x2="177.1" y2="42.6" stroke="rgb(0,0,0)"  stroke-width="1.0"/>
<line x1="214.7" y1="57.4" x2="180.1" y2="37.4" stroke="rgb(0,0,0)"  stroke-width="1.0"/>
<line x1="178.6" y1="40.0" x2="143.9" y2="60.0" stroke="rgb(0,0,0)"  stroke-width="1.0"/>
<line x1="143.9" y1="60.0" x2="109.3" y2="40.0" stroke="rgb(0,0,0)"  stroke-width="1.0"/>
<line x1="110.8" y1="42.6" x2="76.1" y2="62.6" stroke="rgb(0,0,0)"  stroke-width="1.0"/>
<line x1="107.8" y1="37.4" x2="73.1" y2="57.4" stroke="rgb(0,0,0)"  stroke-width="1.0"/>
<line x1="74.6" y1="60.0" x2="74.6" y2="100.0" stroke="rgb(0,0,0)"  stroke-width="1.0"/>
<line x1="74.6" y1="100.0" x2="40.0" y2="120.0" stroke="rgb(0,0,0)"  stroke-width="1.0"/>
<line x1="43.0" y1="120.0" x2="43.0" y2="160.0" stroke="rgb(0,0,0)"  stroke-width="1.0"/>
<line x1="37.0" y1="120.0" x2="37.0" y2="160.0" stroke="rgb(0,0,0)"  stroke-width="1.0"/>
<line x1="40.0" y1="160.0" x2="74.6" y2="180.0" stroke="rgb(0,0,0)"  stroke-width="1.0"/>
<line x1="74.6" y1="180.0" x2="74.6" y2="220.0" stroke="rgb(0,0,0)"  stroke-width="1.0"/>
<line x1="76.1" y1="217.4" x2="110.8" y2="237.4" stroke="rgb(0,0,0)"  stroke-width="1.0"/>
<line x1="73.1" y1="222.6" x2="107.8" y2="242.6" stroke="rgb(0,0,0)"  stroke-width="1.0"/>
<line x1="109.3" y1="240.0" x2="143.9" y2="220.0" stroke="rgb(0,0,0)"  stroke-width="1.0"/>
<line x1="143.9" y1="220.0" x2="178.6" y2="240.0" stroke="rgb(0,0,0)"  stroke-width="1.0"/>
<line x1="178.6" y1="240.0" x2="213.2" y2="220.0" stroke="rgb(0,0,0)"  stroke-width="1.0"/>
<line x1="213.2" y1="220.0" x2="247.8" y2="240.0" stroke="rgb(0,0,0)"  stroke-width="1.0"/>
<line x1="247.8" y1="240.0" x2="271.2" y2="226.5" stroke="rgb(0,0,0)"  stroke-width="1.0"/>
<line x1="250.8" y1="240.0" x2="250.8" y2="267.0" stroke="rgb(0,0,0)"  stroke-width="1.0"/>
<line x1="244.8" y1="240.0" x2="244.8" y2="267.0" stroke="rgb(0,0,0)"  stroke-width="1.0"/>
<text x="152.565294" y="168.000386" fill="rgb(102,102,102)"  stroke="rgb(102,102,102)" stroke-width="1" font-size="16" >H</text>
<text x="164.565294" y="171.680386" fill="rgb(102,102,102)"  stroke="rgb(102,102,102)" stroke-width="1" font-size="13" >3</text>
<text x="171.065294" y="168.000386" fill="rgb(102,102,102)"  stroke="rgb(102,102,102)" stroke-width="1" font-size="16" >C</text>
<text x="276.488053" y="228.000579" fill="rgb(255,12,12)"  stroke="rgb(255,12,12)" stroke-width="1" font-size="16" >OH</text>
<text x="241.845517" y="288.000772" fill="rgb(255,12,12)"  stroke="rgb(255,12,12)" stroke-width="1" font-size="16" >O</text>
<text font-size="18.000000" fill ="black" font-family="sans-serif"
x="10.000000" y="20.000000" >EPA</text>
<title>EPA - OBDepict</title>
</svg>
