<?xml version="1.0"?>
<svg xmlns="http://www.w3.org/2000/svg"
xmlns:xlink="http://www.w3.org/1999/xlink" xmlns:cml="http://www.xml-cml.org/schema" width="181.641" height="261.551" x="0" y="0" font-family="sans-serif" stroke="rgb(0,0,0)" stroke-width="1"  stroke-linecap="round">
<rect x="0%" y="0%" width="100%" height="100%" stroke-width="0" fill="rgb(255,255,255)"  />
<line x1="70.4" y1="103.4" x2="69.6" y2="102.0" stroke="rgb(0,0,0)"  stroke-width="1.0"/>
<line x1="67.0" y1="106.1" x2="65.6" y2="103.6" stroke="rgb(0,0,0)"  stroke-width="1.0"/>
<line x1="63.6" y1="108.8" x2="61.5" y2="105.2" stroke="rgb(0,0,0)"  stroke-width="1.0"/>
<line x1="60.2" y1="111.5" x2="57.5" y2="106.8" stroke="rgb(0,0,0)"  stroke-width="1.0"/>
<line x1="56.8" y1="114.2" x2="53.5" y2="108.3" stroke="rgb(0,0,0)"  stroke-width="1.0"/>
<line x1="53.4" y1="116.9" x2="49.4" y2="109.9" stroke="rgb(0,0,0)"  stroke-width="1.0"/>
<line x1="74.6" y1="100.0" x2="109.3" y2="120.0" stroke="rgb(0,0,0)"  stroke-width="1.0"/>
<line x1="109.3" y1="120.0" x2="109.3" y2="160.0" stroke="rgb(0,0,0)"  stroke-width="1.0"/>
<line x1="74.6" y1="100.0" x2="74.6" y2="60.0" stroke="rgb(0,0,0)"  stroke-width="1.0"/>
<line x1="74.6" y1="60.0" x2="51.3" y2="46.5" stroke="rgb(0,0,0)"  stroke-width="1.0"/>
<line x1="73.1" y1="57.4" x2="96.5" y2="43.9" stroke="rgb(0,0,0)"  stroke-width="1.0"/>
<line x1="76.1" y1="62.6" x2="99.5" y2="49.1" stroke="rgb(0,0,0)"  stroke-width="1.0"/>
<line x1="109.3" y1="160.0" x2="141.6" y2="183.5" stroke="rgb(0,0,0)"  stroke-width="1.0"/>
<line x1="109.9" y1="169.3" x2="132.6" y2="185.8" stroke="rgb(0,0,0)"  stroke-width="1.0"/>
<line x1="141.6" y1="183.5" x2="133.3" y2="209.2" stroke="rgb(0,0,0)"  stroke-width="1.0"/>
<line x1="116.1" y1="221.6" x2="89.3" y2="221.6" stroke="rgb(0,0,0)"  stroke-width="1.0"/>
<line x1="114.1" y1="214.4" x2="95.3" y2="214.4" stroke="rgb(0,0,0)"  stroke-width="1.0"/>
<line x1="89.3" y1="221.6" x2="80.9" y2="195.9" stroke="rgb(0,0,0)"  stroke-width="1.0"/>
<line x1="87.4" y1="175.9" x2="109.3" y2="160.0" stroke="rgb(0,0,0)"  stroke-width="1.0"/>
<text x="14.000000" y="127.997819" fill="rgb(12,12,255)"  stroke="rgb(12,12,255)" stroke-width="1" font-size="16" >H</text>
<text x="26.000000" y="131.677819" fill="rgb(12,12,255)"  stroke="rgb(12,12,255)" stroke-width="1" font-size="13" >2</text>
<text x="32.500000" y="127.997819" fill="rgb(12,12,255)"  stroke="rgb(12,12,255)" stroke-width="1" font-size="16" >N</text>
<text x="123.282415" y="229.551414" fill="rgb(12,12,255)"  stroke="rgb(12,12,255)" stroke-width="1" font-size="16" >N</text>
<text x="58.920206" y="191.506391" fill="rgb(12,12,255)"  stroke="rgb(12,12,255)" stroke-width="1" font-size="16" >HN</text>
<text x="22.000000" y="48.000000" fill="rgb(255,12,12)"  stroke="rgb(255,12,12)" stroke-width="1" font-size="16" >HO</text>
<text x="103.282960" y="48.000000" fill="rgb(255,12,12)"  stroke="rgb(255,12,12)" stroke-width="1" font-size="16" >O</text>
<text font-size="18.000000" fill ="black" font-family="sans-serif"
x="10.000000" y="20.000000" >(2S)-2-amino-3-(3H-imidazol-4-yl)propanoic acid</text>
<title>(2S)-2-amino-3-(3H-imidazol-4-yl)propanoic acid - OBDepict</title>
</svg>
