<?xml version="1.0"?>
<svg xmlns="http://www.w3.org/2000/svg"
xmlns:xlink="http://www.w3.org/1999/xlink" xmlns:cml="http://www.xml-cml.org/schema" width="530.337" height="660" x="0" y="0" font-family="sans-serif" stroke="rgb(0,0,0)" stroke-width="1"  stroke-linecap="round">
<rect x="0%" y="0%" width="100%" height="100%" stroke-width="0" fill="rgb(255,255,255)"  />
<line x1="74.6" y1="607.0" x2="74.6" y2="580.0" stroke="rgb(0,0,0)"  stroke-width="1.0"/>
<line x1="74.6" y1="580.0" x2="51.3" y2="566.5" stroke="rgb(0,0,0)"  stroke-width="1.0"/>
<line x1="73.1" y1="577.4" x2="107.8" y2="557.4" stroke="rgb(0,0,0)"  stroke-width="1.0"/>
<line x1="76.1" y1="582.6" x2="110.8" y2="562.6" stroke="rgb(0,0,0)"  stroke-width="1.0"/>
<line x1="109.3" y1="560.0" x2="109.3" y2="520.0" stroke="rgb(0,0,0)"  stroke-width="1.0"/>
<line x1="109.3" y1="520.0" x2="143.9" y2="500.0" stroke="rgb(0,0,0)"  stroke-width="1.0"/>
<line x1="143.9" y1="500.0" x2="143.9" y2="460.0" stroke="rgb(0,0,0)"  stroke-width="1.0"/>
<line x1="143.9" y1="460.0" x2="120.5" y2="446.5" stroke="rgb(0,0,0)"  stroke-width="1.0"/>
<line x1="142.4" y1="457.4" x2="177.1" y2="437.4" stroke="rgb(0,0,0)"  stroke-width="1.0"/>
<line x1="145.4" y1="462.6" x2="180.1" y2="442.6" stroke="rgb(0,0,0)"  stroke-width="1.0"/>
<line x1="178.6" y1="440.0" x2="178.6" y2="400.0" stroke="rgb(0,0,0)"  stroke-width="1.0"/>
<line x1="178.6" y1="400.0" x2="213.2" y2="380.0" stroke="rgb(0,0,0)"  stroke-width="1.0"/>
<line x1="213.2" y1="380.0" x2="213.2" y2="340.0" stroke="rgb(0,0,0)"  stroke-width="1.0"/>
<line x1="213.2" y1="340.0" x2="189.8" y2="326.5" stroke="rgb(0,0,0)"  stroke-width="1.0"/>
<line x1="211.7" y1="337.4" x2="246.3" y2="317.4" stroke="rgb(0,0,0)"  stroke-width="1.0"/>
<line x1="214.7" y1="342.6" x2="249.3" y2="322.6" stroke="rgb(0,0,0)"  stroke-width="1.0"/>
<line x1="247.8" y1="320.0" x2="247.8" y2="280.0" stroke="rgb(0,0,0)"  stroke-width="1.0"/>
<line x1="247.8" y1="280.0" x2="282.5" y2="260.0" stroke="rgb(0,0,0)"  stroke-width="1.0"/>
<line x1="282.5" y1="260.0" x2="282.5" y2="220.0" stroke="rgb(0,0,0)"  stroke-width="1.0"/>
<line x1="282.5" y1="220.0" x2="259.1" y2="206.5" stroke="rgb(0,0,0)"  stroke-width="1.0"/>
<line x1="281.0" y1="217.4" x2="315.6" y2="197.4" stroke="rgb(0,0,0)"  stroke-width="1.0"/>
<line x1="284.0" y1="222.6" x2="318.6" y2="202.6" stroke="rgb(0,0,0)"  stroke-width="1.0"/>
<line x1="317.1" y1="200.0" x2="317.1" y2="160.0" stroke="rgb(0,0,0)"  stroke-width="1.0"/>
<line x1="317.1" y1="160.0" x2="351.8" y2="140.0" stroke="rgb(0,0,0)"  stroke-width="1.0"/>
<line x1="351.8" y1="100.0" x2="328.4" y2="86.5" stroke="rgb(0,0,0)"  stroke-width="1.0"/>
<line x1="383.4" y1="80.0" x2="383.4" y2="53.0" stroke="rgb(0,0,0)"  stroke-width="1.0"/>
<line x1="389.4" y1="80.0" x2="389.4" y2="53.0" stroke="rgb(0,0,0)"  stroke-width="1.0"/>
<line x1="389.4" y1="160.0" x2="389.4" y2="187.0" stroke="rgb(0,0,0)"  stroke-width="1.0"/>
<line x1="383.4" y1="160.0" x2="383.4" y2="187.0" stroke="rgb(0,0,0)"  stroke-width="1.0"/>
<line x1="351.8" y1="140.0" x2="351.8" y2="100.0" stroke="rgb(0,0,0)"  stroke-width="1.0"/>
<line x1="359.0" y1="134.0" x2="359.0" y2="106.0" stroke="rgb(0,0,0)"  stroke-width="1.0"/>
<line x1="351.8" y1="100.0" x2="386.4" y2="80.0" stroke="rgb(0,0,0)"  stroke-width="1.0"/>
<line x1="386.4" y1="80.0" x2="421.1" y2="100.0" stroke="rgb(0,0,0)"  stroke-width="1.0"/>
<line x1="421.1" y1="100.0" x2="421.1" y2="140.0" stroke="rgb(0,0,0)"  stroke-width="1.0"/>
<line x1="421.1" y1="140.0" x2="386.4" y2="160.0" stroke="rgb(0,0,0)"  stroke-width="1.0"/>
<line x1="386.4" y1="160.0" x2="351.8" y2="140.0" stroke="rgb(0,0,0)"  stroke-width="1.0"/>
<line x1="421.1" y1="100.0" x2="455.7" y2="80.0" stroke="rgb(0,0,0)"  stroke-width="1.0"/>
<line x1="429.8" y1="103.2" x2="454.1" y2="89.2" stroke="rgb(0,0,0)"  stroke-width="1.0"/>
<line x1="455.7" y1="80.0" x2="490.3" y2="100.0" stroke="rgb(0,0,0)"  stroke-width="1.0"/>
<line x1="490.3" y1="100.0" x2="490.3" y2="140.0" stroke="rgb(0,0,0)"  stroke-width="1.0"/>
<line x1="483.1" y1="106.0" x2="483.1" y2="134.0" stroke="rgb(0,0,0)"  stroke-width="1.0"/>
<line x1="490.3" y1="140.0" x2="455.7" y2="160.0" stroke="rgb(0,0,0)"  stroke-width="1.0"/>
<line x1="455.7" y1="160.0" x2="421.1" y2="140.0" stroke="rgb(0,0,0)"  stroke-width="1.0"/>
<line x1="454.1" y1="150.8" x2="429.8" y2="136.8" stroke="rgb(0,0,0)"  stroke-width="1.0"/>
<text x="70.642414" y="627.999823" fill="rgb(102,102,102)"  stroke="rgb(102,102,102)" stroke-width="1" font-size="16" >CH</text>
<text x="94.642414" y="631.679823" fill="rgb(102,102,102)"  stroke="rgb(102,102,102)" stroke-width="1" font-size="13" >3</text>
<text x="14.000000" y="567.999841" fill="rgb(102,102,102)"  stroke="rgb(102,102,102)" stroke-width="1" font-size="16" >H</text>
<text x="26.000000" y="571.679841" fill="rgb(102,102,102)"  stroke="rgb(102,102,102)" stroke-width="1" font-size="13" >3</text>
<text x="32.500000" y="567.999841" fill="rgb(102,102,102)"  stroke="rgb(102,102,102)" stroke-width="1" font-size="16" >C</text>
<text x="83.284827" y="447.999878" fill="rgb(102,102,102)"  stroke="rgb(102,102,102)" stroke-width="1" font-size="16" >H</text>
<text x="95.284827" y="451.679878" fill="rgb(102,102,102)"  stroke="rgb(102,102,102)" stroke-width="1" font-size="13" >3</text>
<text x="101.784827" y="447.999878" fill="rgb(102,102,102)"  stroke="rgb(102,102,102)" stroke-width="1" font-size="16" >C</text>
<text x="152.564806" y="327.999915" fill="rgb(102,102,102)"  stroke="rgb(102,102,102)" stroke-width="1" font-size="16" >H</text>
<text x="164.564806" y="331.679915" fill="rgb(102,102,102)"  stroke="rgb(102,102,102)" stroke-width="1" font-size="13" >3</text>
<text x="171.064806" y="327.999915" fill="rgb(102,102,102)"  stroke="rgb(102,102,102)" stroke-width="1" font-size="16" >C</text>
<text x="221.849634" y="207.999951" fill="rgb(102,102,102)"  stroke="rgb(102,102,102)" stroke-width="1" font-size="16" >H</text>
<text x="233.849634" y="211.679951" fill="rgb(102,102,102)"  stroke="rgb(102,102,102)" stroke-width="1" font-size="13" >3</text>
<text x="240.349634" y="207.999951" fill="rgb(102,102,102)"  stroke="rgb(102,102,102)" stroke-width="1" font-size="16" >C</text>
<text x="291.129612" y="87.999988" fill="rgb(102,102,102)"  stroke="rgb(102,102,102)" stroke-width="1" font-size="16" >H</text>
<text x="303.129612" y="91.679988" fill="rgb(102,102,102)"  stroke="rgb(102,102,102)" stroke-width="1" font-size="13" >3</text>
<text x="309.629612" y="87.999988" fill="rgb(102,102,102)"  stroke="rgb(102,102,102)" stroke-width="1" font-size="16" >C</text>
<text x="380.409591" y="48.000000" fill="rgb(255,12,12)"  stroke="rgb(255,12,12)" stroke-width="1" font-size="16" >O</text>
<text x="380.409591" y="207.999951" fill="rgb(255,12,12)"  stroke="rgb(255,12,12)" stroke-width="1" font-size="16" >O</text>
<text font-size="18.000000" fill ="black" font-family="sans-serif"
x="10.000000" y="20.000000" >MK4</text>
<title>MK4 - OBDepict</title>
</svg>
