<?xml version="1.0"?>
<svg xmlns="http://www.w3.org/2000/svg"
xmlns:xlink="http://www.w3.org/1999/xlink" xmlns:cml="http://www.xml-cml.org/schema" width="738.182" height="300" x="0" y="0" font-family="sans-serif" stroke="rgb(0,0,0)" stroke-width="1"  stroke-linecap="round">
<rect x="0%" y="0%" width="100%" height="100%" stroke-width="0" fill="rgb(255,255,255)"  />
<line x1="282.5" y1="113.0" x2="282.5" y2="140.0" stroke="rgb(0,0,0)"  stroke-width="1.0"/>
<line x1="282.5" y1="140.0" x2="247.8" y2="160.0" stroke="rgb(0,0,0)"  stroke-width="1.0"/>
<line x1="246.3" y1="162.6" x2="211.7" y2="142.6" stroke="rgb(0,0,0)"  stroke-width="1.0"/>
<line x1="249.3" y1="157.4" x2="214.7" y2="137.4" stroke="rgb(0,0,0)"  stroke-width="1.0"/>
<line x1="213.2" y1="140.0" x2="213.2" y2="100.0" stroke="rgb(0,0,0)"  stroke-width="1.0"/>
<line x1="211.7" y1="102.6" x2="177.1" y2="82.6" stroke="rgb(0,0,0)"  stroke-width="1.0"/>
<line x1="214.7" y1="97.4" x2="180.1" y2="77.4" stroke="rgb(0,0,0)"  stroke-width="1.0"/>
<line x1="178.6" y1="80.0" x2="178.6" y2="53.0" stroke="rgb(0,0,0)"  stroke-width="1.0"/>
<line x1="178.6" y1="80.0" x2="143.9" y2="100.0" stroke="rgb(0,0,0)"  stroke-width="1.0"/>
<line x1="146.9" y1="100.0" x2="146.9" y2="140.0" stroke="rgb(0,0,0)"  stroke-width="1.0"/>
<line x1="140.9" y1="100.0" x2="140.9" y2="140.0" stroke="rgb(0,0,0)"  stroke-width="1.0"/>
<line x1="143.9" y1="140.0" x2="109.3" y2="160.0" stroke="rgb(0,0,0)"  stroke-width="1.0"/>
<line x1="109.3" y1="200.0" x2="132.7" y2="213.5" stroke="rgb(0,0,0)"  stroke-width="1.0"/>
<line x1="74.6" y1="140.0" x2="62.0" y2="116.2" stroke="rgb(0,0,0)"  stroke-width="1.0"/>
<line x1="74.6" y1="140.0" x2="87.3" y2="116.2" stroke="rgb(0,0,0)"  stroke-width="1.0"/>
<line x1="284.0" y1="137.4" x2="318.6" y2="157.4" stroke="rgb(0,0,0)"  stroke-width="1.0"/>
<line x1="281.0" y1="142.6" x2="315.6" y2="162.6" stroke="rgb(0,0,0)"  stroke-width="1.0"/>
<line x1="317.1" y1="160.0" x2="351.8" y2="140.0" stroke="rgb(0,0,0)"  stroke-width="1.0"/>
<line x1="353.3" y1="137.4" x2="387.9" y2="157.4" stroke="rgb(0,0,0)"  stroke-width="1.0"/>
<line x1="350.3" y1="142.6" x2="384.9" y2="162.6" stroke="rgb(0,0,0)"  stroke-width="1.0"/>
<line x1="386.4" y1="160.0" x2="421.1" y2="140.0" stroke="rgb(0,0,0)"  stroke-width="1.0"/>
<line x1="422.6" y1="137.4" x2="457.2" y2="157.4" stroke="rgb(0,0,0)"  stroke-width="1.0"/>
<line x1="419.6" y1="142.6" x2="454.2" y2="162.6" stroke="rgb(0,0,0)"  stroke-width="1.0"/>
<line x1="455.7" y1="160.0" x2="455.7" y2="187.0" stroke="rgb(0,0,0)"  stroke-width="1.0"/>
<line x1="455.7" y1="160.0" x2="490.3" y2="140.0" stroke="rgb(0,0,0)"  stroke-width="1.0"/>
<line x1="491.8" y1="137.4" x2="526.5" y2="157.4" stroke="rgb(0,0,0)"  stroke-width="1.0"/>
<line x1="488.8" y1="142.6" x2="523.5" y2="162.6" stroke="rgb(0,0,0)"  stroke-width="1.0"/>
<line x1="525.0" y1="160.0" x2="525.0" y2="200.0" stroke="rgb(0,0,0)"  stroke-width="1.0"/>
<line x1="526.5" y1="197.4" x2="561.1" y2="217.4" stroke="rgb(0,0,0)"  stroke-width="1.0"/>
<line x1="523.5" y1="202.6" x2="558.1" y2="222.6" stroke="rgb(0,0,0)"  stroke-width="1.0"/>
<line x1="559.6" y1="220.0" x2="559.6" y2="247.0" stroke="rgb(0,0,0)"  stroke-width="1.0"/>
<line x1="559.6" y1="220.0" x2="594.3" y2="200.0" stroke="rgb(0,0,0)"  stroke-width="1.0"/>
<line x1="591.3" y1="200.0" x2="591.3" y2="160.0" stroke="rgb(0,0,0)"  stroke-width="1.0"/>
<line x1="597.3" y1="200.0" x2="597.3" y2="160.0" stroke="rgb(0,0,0)"  stroke-width="1.0"/>
<line x1="594.3" y1="160.0" x2="628.9" y2="140.0" stroke="rgb(0,0,0)"  stroke-width="1.0"/>
<line x1="628.9" y1="100.0" x2="605.5" y2="86.5" stroke="rgb(0,0,0)"  stroke-width="1.0"/>
<line x1="663.5" y1="160.0" x2="676.2" y2="183.8" stroke="rgb(0,0,0)"  stroke-width="1.0"/>
<line x1="663.5" y1="160.0" x2="650.9" y2="183.8" stroke="rgb(0,0,0)"  stroke-width="1.0"/>
<line x1="109.3" y1="160.0" x2="109.3" y2="200.0" stroke="rgb(0,0,0)"  stroke-width="1.0"/>
<line x1="102.1" y1="166.0" x2="102.1" y2="194.0" stroke="rgb(0,0,0)"  stroke-width="1.0"/>
<line x1="109.3" y1="200.0" x2="74.6" y2="220.0" stroke="rgb(0,0,0)"  stroke-width="1.0"/>
<line x1="74.6" y1="220.0" x2="40.0" y2="200.0" stroke="rgb(0,0,0)"  stroke-width="1.0"/>
<line x1="40.0" y1="200.0" x2="40.0" y2="160.0" stroke="rgb(0,0,0)"  stroke-width="1.0"/>
<line x1="40.0" y1="160.0" x2="74.6" y2="140.0" stroke="rgb(0,0,0)"  stroke-width="1.0"/>
<line x1="74.6" y1="140.0" x2="109.3" y2="160.0" stroke="rgb(0,0,0)"  stroke-width="1.0"/>
<line x1="628.9" y1="140.0" x2="628.9" y2="100.0" stroke="rgb(0,0,0)"  stroke-width="1.0"/>
<line x1="636.1" y1="134.0" x2="636.1" y2="106.0" stroke="rgb(0,0,0)"  stroke-width="1.0"/>
<line x1="628.9" y1="100.0" x2="663.5" y2="80.0" stroke="rgb(0,0,0)"  stroke-width="1.0"/>
<line x1="663.5" y1="80.0" x2="698.2" y2="100.0" stroke="rgb(0,0,0)"  stroke-width="1.0"/>
<line x1="698.2" y1="100.0" x2="698.2" y2="140.0" stroke="rgb(0,0,0)"  stroke-width="1.0"/>
<line x1="698.2" y1="140.0" x2="663.5" y2="160.0" stroke="rgb(0,0,0)"  stroke-width="1.0"/>
<line x1="663.5" y1="160.0" x2="628.9" y2="140.0" stroke="rgb(0,0,0)"  stroke-width="1.0"/>
<text x="278.487483" y="108.000052" fill="rgb(102,102,102)"  stroke="rgb(102,102,102)" stroke-width="1" font-size="16" >CH</text>
<text x="302.487483" y="111.680052" fill="rgb(102,102,102)"  stroke="rgb(102,102,102)" stroke-width="1" font-size="13" >3</text>
<text x="174.564969" y="48.000000" fill="rgb(102,102,102)"  stroke="rgb(102,102,102)" stroke-width="1" font-size="16" >CH</text>
<text x="198.564969" y="51.680000" fill="rgb(102,102,102)"  stroke="rgb(102,102,102)" stroke-width="1" font-size="13" >3</text>
<text x="139.922515" y="228.000156" fill="rgb(102,102,102)"  stroke="rgb(102,102,102)" stroke-width="1" font-size="16" >CH</text>
<text x="163.922515" y="231.680156" fill="rgb(102,102,102)"  stroke="rgb(102,102,102)" stroke-width="1" font-size="13" >3</text>
<text x="29.864256" y="112.683693" fill="rgb(102,102,102)"  stroke="rgb(102,102,102)" stroke-width="1" font-size="16" >H</text>
<text x="41.864256" y="116.363693" fill="rgb(102,102,102)"  stroke="rgb(102,102,102)" stroke-width="1" font-size="13" >3</text>
<text x="48.364256" y="112.683693" fill="rgb(102,102,102)"  stroke="rgb(102,102,102)" stroke-width="1" font-size="16" >C</text>
<text x="89.420652" y="112.683693" fill="rgb(102,102,102)"  stroke="rgb(102,102,102)" stroke-width="1" font-size="16" >CH</text>
<text x="113.420652" y="116.363693" fill="rgb(102,102,102)"  stroke="rgb(102,102,102)" stroke-width="1" font-size="13" >3</text>
<text x="451.694907" y="208.000139" fill="rgb(102,102,102)"  stroke="rgb(102,102,102)" stroke-width="1" font-size="16" >CH</text>
<text x="475.694907" y="211.680139" fill="rgb(102,102,102)"  stroke="rgb(102,102,102)" stroke-width="1" font-size="13" >3</text>
<text x="555.617421" y="268.000191" fill="rgb(102,102,102)"  stroke="rgb(102,102,102)" stroke-width="1" font-size="16" >CH</text>
<text x="579.617421" y="271.680191" fill="rgb(102,102,102)"  stroke="rgb(102,102,102)" stroke-width="1" font-size="13" >3</text>
<text x="568.255027" y="88.000035" fill="rgb(102,102,102)"  stroke="rgb(102,102,102)" stroke-width="1" font-size="16" >H</text>
<text x="580.255027" y="91.680035" fill="rgb(102,102,102)"  stroke="rgb(102,102,102)" stroke-width="1" font-size="13" >3</text>
<text x="586.755027" y="88.000035" fill="rgb(102,102,102)"  stroke="rgb(102,102,102)" stroke-width="1" font-size="16" >C</text>
<text x="678.318134" y="203.316499" fill="rgb(102,102,102)"  stroke="rgb(102,102,102)" stroke-width="1" font-size="16" >CH</text>
<text x="702.318134" y="206.996499" fill="rgb(102,102,102)"  stroke="rgb(102,102,102)" stroke-width="1" font-size="13" >3</text>
<text x="618.761737" y="203.316499" fill="rgb(102,102,102)"  stroke="rgb(102,102,102)" stroke-width="1" font-size="16" >H</text>
<text x="630.761737" y="206.996499" fill="rgb(102,102,102)"  stroke="rgb(102,102,102)" stroke-width="1" font-size="13" >3</text>
<text x="637.261737" y="203.316499" fill="rgb(102,102,102)"  stroke="rgb(102,102,102)" stroke-width="1" font-size="16" >C</text>
<text font-size="18.000000" fill ="black" font-family="sans-serif"
x="10.000000" y="20.000000" >Betacarotene</text>
<title>Betacarotene - OBDepict</title>
</svg>
