<?xml version="1.0"?>
<svg xmlns="http://www.w3.org/2000/svg"
xmlns:xlink="http://www.w3.org/1999/xlink" xmlns:cml="http://www.xml-cml.org/schema" width="999.993" height="634.255" x="0" y="0" font-family="sans-serif" stroke="rgb(0,0,0)" stroke-width="1"  stroke-linecap="round">
<rect x="0%" y="0%" width="100%" height="100%" stroke-width="0" fill="rgb(255,255,255)"  />
<line x1="953.5" y1="51.3" x2="940.0" y2="74.6" stroke="rgb(0,0,0)"  stroke-width="1.0"/>
<line x1="940.0" y1="74.6" x2="953.5" y2="98.0" stroke="rgb(0,0,0)"  stroke-width="1.0"/>
<line x1="940.0" y1="77.6" x2="900.0" y2="77.6" stroke="rgb(0,0,0)"  stroke-width="1.0"/>
<line x1="940.0" y1="71.6" x2="900.0" y2="71.6" stroke="rgb(0,0,0)"  stroke-width="1.0"/>
<line x1="900.0" y1="74.6" x2="880.0" y2="109.3" stroke="rgb(0,0,0)"  stroke-width="1.0"/>
<line x1="880.0" y1="109.3" x2="840.0" y2="109.3" stroke="rgb(0,0,0)"  stroke-width="1.0"/>
<line x1="840.0" y1="109.3" x2="820.0" y2="143.9" stroke="rgb(0,0,0)"  stroke-width="1.0"/>
<line x1="820.0" y1="143.9" x2="833.5" y2="167.3" stroke="rgb(0,0,0)"  stroke-width="1.0"/>
<line x1="820.0" y1="146.9" x2="780.0" y2="146.9" stroke="rgb(0,0,0)"  stroke-width="1.0"/>
<line x1="820.0" y1="140.9" x2="780.0" y2="140.9" stroke="rgb(0,0,0)"  stroke-width="1.0"/>
<line x1="780.0" y1="143.9" x2="760.0" y2="178.6" stroke="rgb(0,0,0)"  stroke-width="1.0"/>
<line x1="760.0" y1="181.6" x2="720.0" y2="181.6" stroke="rgb(0,0,0)"  stroke-width="1.0"/>
<line x1="760.0" y1="175.6" x2="720.0" y2="175.6" stroke="rgb(0,0,0)"  stroke-width="1.0"/>
<line x1="720.0" y1="178.6" x2="700.0" y2="213.2" stroke="rgb(0,0,0)"  stroke-width="1.0"/>
<line x1="700.0" y1="213.2" x2="713.5" y2="236.6" stroke="rgb(0,0,0)"  stroke-width="1.0"/>
<line x1="700.0" y1="216.2" x2="660.0" y2="216.2" stroke="rgb(0,0,0)"  stroke-width="1.0"/>
<line x1="700.0" y1="210.2" x2="660.0" y2="210.2" stroke="rgb(0,0,0)"  stroke-width="1.0"/>
<line x1="660.0" y1="213.2" x2="640.0" y2="247.8" stroke="rgb(0,0,0)"  stroke-width="1.0"/>
<line x1="640.0" y1="250.8" x2="600.0" y2="250.8" stroke="rgb(0,0,0)"  stroke-width="1.0"/>
<line x1="640.0" y1="244.8" x2="600.0" y2="244.8" stroke="rgb(0,0,0)"  stroke-width="1.0"/>
<line x1="600.0" y1="247.8" x2="580.0" y2="282.5" stroke="rgb(0,0,0)"  stroke-width="1.0"/>
<line x1="580.0" y1="282.5" x2="593.5" y2="305.9" stroke="rgb(0,0,0)"  stroke-width="1.0"/>
<line x1="580.0" y1="285.5" x2="540.0" y2="285.5" stroke="rgb(0,0,0)"  stroke-width="1.0"/>
<line x1="580.0" y1="279.5" x2="540.0" y2="279.5" stroke="rgb(0,0,0)"  stroke-width="1.0"/>
<line x1="540.0" y1="282.5" x2="520.0" y2="317.1" stroke="rgb(0,0,0)"  stroke-width="1.0"/>
<line x1="520.0" y1="320.1" x2="480.0" y2="320.1" stroke="rgb(0,0,0)"  stroke-width="1.0"/>
<line x1="520.0" y1="314.1" x2="480.0" y2="314.1" stroke="rgb(0,0,0)"  stroke-width="1.0"/>
<line x1="480.0" y1="317.1" x2="460.0" y2="351.8" stroke="rgb(0,0,0)"  stroke-width="1.0"/>
<line x1="460.0" y1="354.8" x2="420.0" y2="354.8" stroke="rgb(0,0,0)"  stroke-width="1.0"/>
<line x1="460.0" y1="348.8" x2="420.0" y2="348.8" stroke="rgb(0,0,0)"  stroke-width="1.0"/>
<line x1="420.0" y1="351.8" x2="406.5" y2="328.4" stroke="rgb(0,0,0)"  stroke-width="1.0"/>
<line x1="420.0" y1="351.8" x2="400.0" y2="386.4" stroke="rgb(0,0,0)"  stroke-width="1.0"/>
<line x1="400.0" y1="389.4" x2="360.0" y2="389.4" stroke="rgb(0,0,0)"  stroke-width="1.0"/>
<line x1="400.0" y1="383.4" x2="360.0" y2="383.4" stroke="rgb(0,0,0)"  stroke-width="1.0"/>
<line x1="360.0" y1="386.4" x2="340.0" y2="421.0" stroke="rgb(0,0,0)"  stroke-width="1.0"/>
<line x1="340.0" y1="424.0" x2="300.0" y2="424.0" stroke="rgb(0,0,0)"  stroke-width="1.0"/>
<line x1="340.0" y1="418.0" x2="300.0" y2="418.0" stroke="rgb(0,0,0)"  stroke-width="1.0"/>
<line x1="300.0" y1="421.0" x2="286.5" y2="397.7" stroke="rgb(0,0,0)"  stroke-width="1.0"/>
<line x1="300.0" y1="421.0" x2="280.0" y2="455.7" stroke="rgb(0,0,0)"  stroke-width="1.0"/>
<line x1="280.0" y1="458.7" x2="240.0" y2="458.7" stroke="rgb(0,0,0)"  stroke-width="1.0"/>
<line x1="280.0" y1="452.7" x2="240.0" y2="452.7" stroke="rgb(0,0,0)"  stroke-width="1.0"/>
<line x1="240.0" y1="455.7" x2="220.0" y2="490.3" stroke="rgb(0,0,0)"  stroke-width="1.0"/>
<line x1="220.0" y1="493.3" x2="180.0" y2="493.3" stroke="rgb(0,0,0)"  stroke-width="1.0"/>
<line x1="220.0" y1="487.3" x2="180.0" y2="487.3" stroke="rgb(0,0,0)"  stroke-width="1.0"/>
<line x1="180.0" y1="490.3" x2="166.5" y2="466.9" stroke="rgb(0,0,0)"  stroke-width="1.0"/>
<line x1="180.0" y1="490.3" x2="160.0" y2="525.0" stroke="rgb(0,0,0)"  stroke-width="1.0"/>
<line x1="160.0" y1="525.0" x2="120.0" y2="525.0" stroke="rgb(0,0,0)"  stroke-width="1.0"/>
<line x1="120.0" y1="525.0" x2="100.0" y2="559.6" stroke="rgb(0,0,0)"  stroke-width="1.0"/>
<line x1="100.0" y1="562.6" x2="60.0" y2="562.6" stroke="rgb(0,0,0)"  stroke-width="1.0"/>
<line x1="100.0" y1="556.6" x2="60.0" y2="556.6" stroke="rgb(0,0,0)"  stroke-width="1.0"/>
<line x1="60.0" y1="559.6" x2="46.5" y2="583.0" stroke="rgb(0,0,0)"  stroke-width="1.0"/>
<line x1="60.0" y1="559.6" x2="46.5" y2="536.2" stroke="rgb(0,0,0)"  stroke-width="1.0"/>
<text x="955.992645" y="48.000000" fill="rgb(102,102,102)"  stroke="rgb(102,102,102)" stroke-width="1" font-size="16" >CH</text>
<text x="979.992645" y="51.680000" fill="rgb(102,102,102)"  stroke="rgb(102,102,102)" stroke-width="1" font-size="13" >3</text>
<text x="955.992645" y="117.284295" fill="rgb(102,102,102)"  stroke="rgb(102,102,102)" stroke-width="1" font-size="16" >CH</text>
<text x="979.992645" y="120.964295" fill="rgb(102,102,102)"  stroke="rgb(102,102,102)" stroke-width="1" font-size="13" >3</text>
<text x="835.993605" y="186.563741" fill="rgb(102,102,102)"  stroke="rgb(102,102,102)" stroke-width="1" font-size="16" >CH</text>
<text x="859.993605" y="190.243741" fill="rgb(102,102,102)"  stroke="rgb(102,102,102)" stroke-width="1" font-size="13" >3</text>
<text x="715.994564" y="255.848035" fill="rgb(102,102,102)"  stroke="rgb(102,102,102)" stroke-width="1" font-size="16" >CH</text>
<text x="739.994564" y="259.528035" fill="rgb(102,102,102)"  stroke="rgb(102,102,102)" stroke-width="1" font-size="13" >3</text>
<text x="595.995523" y="325.127482" fill="rgb(102,102,102)"  stroke="rgb(102,102,102)" stroke-width="1" font-size="16" >CH</text>
<text x="619.995523" y="328.807482" fill="rgb(102,102,102)"  stroke="rgb(102,102,102)" stroke-width="1" font-size="13" >3</text>
<text x="373.997122" y="325.127482" fill="rgb(102,102,102)"  stroke="rgb(102,102,102)" stroke-width="1" font-size="16" >H</text>
<text x="385.997122" y="328.807482" fill="rgb(102,102,102)"  stroke="rgb(102,102,102)" stroke-width="1" font-size="13" >3</text>
<text x="392.497122" y="325.127482" fill="rgb(102,102,102)"  stroke="rgb(102,102,102)" stroke-width="1" font-size="16" >C</text>
<text x="253.998081" y="394.406928" fill="rgb(102,102,102)"  stroke="rgb(102,102,102)" stroke-width="1" font-size="16" >H</text>
<text x="265.998081" y="398.086928" fill="rgb(102,102,102)"  stroke="rgb(102,102,102)" stroke-width="1" font-size="13" >3</text>
<text x="272.498081" y="394.406928" fill="rgb(102,102,102)"  stroke="rgb(102,102,102)" stroke-width="1" font-size="16" >C</text>
<text x="133.999041" y="463.691222" fill="rgb(102,102,102)"  stroke="rgb(102,102,102)" stroke-width="1" font-size="16" >H</text>
<text x="145.999041" y="467.371222" fill="rgb(102,102,102)"  stroke="rgb(102,102,102)" stroke-width="1" font-size="13" >3</text>
<text x="152.499041" y="463.691222" fill="rgb(102,102,102)"  stroke="rgb(102,102,102)" stroke-width="1" font-size="16" >C</text>
<text x="14.000000" y="602.254963" fill="rgb(102,102,102)"  stroke="rgb(102,102,102)" stroke-width="1" font-size="16" >H</text>
<text x="26.000000" y="605.934963" fill="rgb(102,102,102)"  stroke="rgb(102,102,102)" stroke-width="1" font-size="13" >3</text>
<text x="32.500000" y="602.254963" fill="rgb(102,102,102)"  stroke="rgb(102,102,102)" stroke-width="1" font-size="16" >C</text>
<text x="14.000000" y="532.970668" fill="rgb(102,102,102)"  stroke="rgb(102,102,102)" stroke-width="1" font-size="16" >H</text>
<text x="26.000000" y="536.650668" fill="rgb(102,102,102)"  stroke="rgb(102,102,102)" stroke-width="1" font-size="13" >3</text>
<text x="32.500000" y="532.970668" fill="rgb(102,102,102)"  stroke="rgb(102,102,102)" stroke-width="1" font-size="16" >C</text>
<text font-size="18.000000" fill ="black" font-family="sans-serif"
x="10.000000" y="20.000000" >Lycopene</text>
<title>Lycopene - OBDepict</title>
</svg>
