<?xml version="1.0"?>
<svg xmlns="http://www.w3.org/2000/svg"
xmlns:xlink="http://www.w3.org/1999/xlink" xmlns:cml="http://www.xml-cml.org/schema" width="180" height="218.565" x="0" y="0" font-family="sans-serif" stroke="rgb(0,0,0)" stroke-width="1"  stroke-linecap="round">
<rect x="0%" y="0%" width="100%" height="100%" stroke-width="0" fill="rgb(255,255,255)"  />
<line x1="93.5" y1="51.3" x2="80.0" y2="74.6" stroke="rgb(0,0,0)"  stroke-width="1.0"/>
<line x1="80.0" y1="74.6" x2="53.0" y2="74.6" stroke="rgb(0,0,0)"  stroke-width="1.0"/>
<line x1="95.3" y1="102.8" x2="96.7" y2="102.0" stroke="rgb(0,0,0)"  stroke-width="1.0"/>
<line x1="91.6" y1="97.5" x2="94.0" y2="96.1" stroke="rgb(0,0,0)"  stroke-width="1.0"/>
<line x1="87.8" y1="92.3" x2="91.4" y2="90.2" stroke="rgb(0,0,0)"  stroke-width="1.0"/>
<line x1="84.0" y1="87.1" x2="88.8" y2="84.4" stroke="rgb(0,0,0)"  stroke-width="1.0"/>
<line x1="80.3" y1="81.9" x2="86.1" y2="78.5" stroke="rgb(0,0,0)"  stroke-width="1.0"/>
<line x1="76.5" y1="76.6" x2="83.5" y2="72.6" stroke="rgb(0,0,0)"  stroke-width="1.0"/>
<line x1="100.0" y1="109.3" x2="127.0" y2="109.3" stroke="rgb(0,0,0)"  stroke-width="1.0"/>
<line x1="100.0" y1="109.3" x2="80.0" y2="143.9" stroke="rgb(0,0,0)"  stroke-width="1.0"/>
<line x1="80.0" y1="143.9" x2="93.5" y2="167.3" stroke="rgb(0,0,0)"  stroke-width="1.0"/>
<line x1="80.0" y1="146.9" x2="53.0" y2="146.9" stroke="rgb(0,0,0)"  stroke-width="1.0"/>
<line x1="80.0" y1="140.9" x2="53.0" y2="140.9" stroke="rgb(0,0,0)"  stroke-width="1.0"/>
<text x="95.999855" y="48.000000" fill="rgb(102,102,102)"  stroke="rgb(102,102,102)" stroke-width="1" font-size="16" >CH</text>
<text x="119.999855" y="51.680000" fill="rgb(102,102,102)"  stroke="rgb(102,102,102)" stroke-width="1" font-size="13" >3</text>
<text x="14.000000" y="82.642340" fill="rgb(102,102,102)"  stroke="rgb(102,102,102)" stroke-width="1" font-size="16" >H</text>
<text x="26.000000" y="86.322340" fill="rgb(102,102,102)"  stroke="rgb(102,102,102)" stroke-width="1" font-size="13" >3</text>
<text x="32.500000" y="82.642340" fill="rgb(102,102,102)"  stroke="rgb(102,102,102)" stroke-width="1" font-size="16" >C</text>
<text x="135.999758" y="117.279832" fill="rgb(12,12,255)"  stroke="rgb(12,12,255)" stroke-width="1" font-size="16" >NH</text>
<text x="159.999758" y="120.959832" fill="rgb(12,12,255)"  stroke="rgb(12,12,255)" stroke-width="1" font-size="13" >2</text>
<text x="93.999855" y="186.564513" fill="rgb(255,12,12)"  stroke="rgb(255,12,12)" stroke-width="1" font-size="16" >OH</text>
<text x="34.000000" y="151.922172" fill="rgb(255,12,12)"  stroke="rgb(255,12,12)" stroke-width="1" font-size="16" >O</text>
<text font-size="18.000000" fill ="black" font-family="sans-serif"
x="10.000000" y="20.000000" >valine</text>
<title>valine - OBDepict</title>
</svg>
