<?xml version="1.0"?>
<svg xmlns="http://www.w3.org/2000/svg"
xmlns:xlink="http://www.w3.org/1999/xlink" xmlns:cml="http://www.xml-cml.org/schema" width="357.129" height="180" x="0" y="0" font-family="sans-serif" stroke="rgb(0,0,0)" stroke-width="1"  stroke-linecap="round">
<rect x="0%" y="0%" width="100%" height="100%" stroke-width="0" fill="rgb(255,255,255)"  />
<line x1="247.8" y1="53.0" x2="247.8" y2="80.0" stroke="rgb(0,0,0)"  stroke-width="1.0"/>
<line x1="247.8" y1="80.0" x2="213.2" y2="100.0" stroke="rgb(0,0,0)"  stroke-width="1.0"/>
<line x1="213.2" y1="100.0" x2="178.6" y2="80.0" stroke="rgb(0,0,0)"  stroke-width="1.0"/>
<line x1="178.6" y1="80.0" x2="143.9" y2="100.0" stroke="rgb(0,0,0)"  stroke-width="1.0"/>
<line x1="143.9" y1="100.0" x2="120.5" y2="86.5" stroke="rgb(0,0,0)"  stroke-width="1.0"/>
<line x1="98.0" y1="86.5" x2="74.6" y2="100.0" stroke="rgb(0,0,0)"  stroke-width="1.0"/>
<line x1="74.6" y1="100.0" x2="51.3" y2="86.5" stroke="rgb(0,0,0)"  stroke-width="1.0"/>
<line x1="77.6" y1="100.0" x2="77.6" y2="127.0" stroke="rgb(0,0,0)"  stroke-width="1.0"/>
<line x1="71.6" y1="100.0" x2="71.6" y2="127.0" stroke="rgb(0,0,0)"  stroke-width="1.0"/>
<line x1="247.8" y1="80.0" x2="282.5" y2="100.0" stroke="rgb(0,0,0)"  stroke-width="1.0"/>
<line x1="282.5" y1="100.0" x2="305.9" y2="86.5" stroke="rgb(0,0,0)"  stroke-width="1.0"/>
<line x1="285.5" y1="100.0" x2="285.5" y2="127.0" stroke="rgb(0,0,0)"  stroke-width="1.0"/>
<line x1="279.5" y1="100.0" x2="279.5" y2="127.0" stroke="rgb(0,0,0)"  stroke-width="1.0"/>
<text x="243.849056" y="48.000000" fill="rgb(12,12,255)"  stroke="rgb(12,12,255)" stroke-width="1" font-size="16" >NH</text>
<text x="267.849056" y="51.680000" fill="rgb(12,12,255)"  stroke="rgb(12,12,255)" stroke-width="1" font-size="13" >2</text>
<text x="103.284635" y="87.999877" fill="rgb(12,12,255)"  stroke="rgb(12,12,255)" stroke-width="1" font-size="16" >N</text>
<text x="103.284635" y="71.999877" fill="rgb(12,12,255)"  stroke="rgb(12,12,255)" stroke-width="1" font-size="16" >H</text>
<text x="14.000000" y="87.999877" fill="rgb(12,12,255)"  stroke="rgb(12,12,255)" stroke-width="1" font-size="16" >H</text>
<text x="26.000000" y="91.679877" fill="rgb(12,12,255)"  stroke="rgb(12,12,255)" stroke-width="1" font-size="13" >2</text>
<text x="32.500000" y="87.999877" fill="rgb(12,12,255)"  stroke="rgb(12,12,255)" stroke-width="1" font-size="16" >N</text>
<text x="68.642317" y="147.999691" fill="rgb(12,12,255)"  stroke="rgb(12,12,255)" stroke-width="1" font-size="16" >NH</text>
<text x="311.128842" y="87.999877" fill="rgb(255,12,12)"  stroke="rgb(255,12,12)" stroke-width="1" font-size="16" >OH</text>
<text x="276.486524" y="147.999691" fill="rgb(255,12,12)"  stroke="rgb(255,12,12)" stroke-width="1" font-size="16" >O</text>
<text font-size="18.000000" fill ="black" font-family="sans-serif"
x="10.000000" y="20.000000" >2-amino-5-guanidinopentanoic acid</text>
<title>2-amino-5-guanidinopentanoic acid - OBDepict</title>
</svg>
