<?xml version="1.0"?>
<svg xmlns="http://www.w3.org/2000/svg"
xmlns:xlink="http://www.w3.org/1999/xlink" xmlns:cml="http://www.xml-cml.org/schema" width="180" height="218.565" x="0" y="0" font-family="sans-serif" stroke="rgb(0,0,0)" stroke-width="1"  stroke-linecap="round">
<rect x="0%" y="0%" width="100%" height="100%" stroke-width="0" fill="rgb(255,255,255)"  />
<line x1="82.0" y1="69.6" x2="83.4" y2="70.4" stroke="rgb(0,0,0)"  stroke-width="1.0"/>
<line x1="83.6" y1="65.6" x2="86.1" y2="67.0" stroke="rgb(0,0,0)"  stroke-width="1.0"/>
<line x1="85.2" y1="61.5" x2="88.8" y2="63.6" stroke="rgb(0,0,0)"  stroke-width="1.0"/>
<line x1="86.8" y1="57.5" x2="91.5" y2="60.2" stroke="rgb(0,0,0)"  stroke-width="1.0"/>
<line x1="88.3" y1="53.5" x2="94.2" y2="56.8" stroke="rgb(0,0,0)"  stroke-width="1.0"/>
<line x1="89.9" y1="49.4" x2="96.9" y2="53.4" stroke="rgb(0,0,0)"  stroke-width="1.0"/>
<line x1="80.0" y1="74.6" x2="53.0" y2="74.6" stroke="rgb(0,0,0)"  stroke-width="1.0"/>
<line x1="80.0" y1="74.6" x2="100.0" y2="109.3" stroke="rgb(0,0,0)"  stroke-width="1.0"/>
<line x1="105.4" y1="108.5" x2="105.4" y2="110.1" stroke="rgb(0,0,0)"  stroke-width="1.0"/>
<line x1="109.6" y1="107.8" x2="109.6" y2="110.7" stroke="rgb(0,0,0)"  stroke-width="1.0"/>
<line x1="113.9" y1="107.2" x2="113.9" y2="111.4" stroke="rgb(0,0,0)"  stroke-width="1.0"/>
<line x1="118.2" y1="106.6" x2="118.2" y2="112.0" stroke="rgb(0,0,0)"  stroke-width="1.0"/>
<line x1="122.5" y1="105.9" x2="122.5" y2="112.6" stroke="rgb(0,0,0)"  stroke-width="1.0"/>
<line x1="126.8" y1="105.3" x2="126.8" y2="113.3" stroke="rgb(0,0,0)"  stroke-width="1.0"/>
<line x1="100.0" y1="109.3" x2="80.0" y2="143.9" stroke="rgb(0,0,0)"  stroke-width="1.0"/>
<line x1="80.0" y1="143.9" x2="93.5" y2="167.3" stroke="rgb(0,0,0)"  stroke-width="1.0"/>
<line x1="80.0" y1="146.9" x2="53.0" y2="146.9" stroke="rgb(0,0,0)"  stroke-width="1.0"/>
<line x1="80.0" y1="140.9" x2="53.0" y2="140.9" stroke="rgb(0,0,0)"  stroke-width="1.0"/>
<text x="95.999855" y="48.000000" fill="rgb(102,102,102)"  stroke="rgb(102,102,102)" stroke-width="1" font-size="16" >CH</text>
<text x="119.999855" y="51.680000" fill="rgb(102,102,102)"  stroke="rgb(102,102,102)" stroke-width="1" font-size="13" >3</text>
<text x="22.000000" y="82.642340" fill="rgb(255,12,12)"  stroke="rgb(255,12,12)" stroke-width="1" font-size="16" >HO</text>
<text x="135.999758" y="117.279832" fill="rgb(12,12,255)"  stroke="rgb(12,12,255)" stroke-width="1" font-size="16" >NH</text>
<text x="159.999758" y="120.959832" fill="rgb(12,12,255)"  stroke="rgb(12,12,255)" stroke-width="1" font-size="13" >2</text>
<text x="93.999855" y="186.564513" fill="rgb(255,12,12)"  stroke="rgb(255,12,12)" stroke-width="1" font-size="16" >OH</text>
<text x="34.000000" y="151.922172" fill="rgb(255,12,12)"  stroke="rgb(255,12,12)" stroke-width="1" font-size="16" >O</text>
<text font-size="18.000000" fill ="black" font-family="sans-serif"
x="10.000000" y="20.000000" >threonine</text>
<title>threonine - OBDepict</title>
</svg>
