<?xml version="1.0"?>
<svg xmlns="http://www.w3.org/2000/svg"
xmlns:xlink="http://www.w3.org/1999/xlink" xmlns:cml="http://www.xml-cml.org/schema" width="180" height="218.564" x="0" y="0" font-family="sans-serif" stroke="rgb(0,0,0)" stroke-width="1"  stroke-linecap="round">
<rect x="0%" y="0%" width="100%" height="100%" stroke-width="0" fill="rgb(255,255,255)"  />
<line x1="105.4" y1="108.5" x2="105.4" y2="110.1" stroke="rgb(0,0,0)"  stroke-width="1.0"/>
<line x1="109.6" y1="107.8" x2="109.6" y2="110.7" stroke="rgb(0,0,0)"  stroke-width="1.0"/>
<line x1="113.9" y1="107.2" x2="113.9" y2="111.4" stroke="rgb(0,0,0)"  stroke-width="1.0"/>
<line x1="118.2" y1="106.6" x2="118.2" y2="112.0" stroke="rgb(0,0,0)"  stroke-width="1.0"/>
<line x1="122.5" y1="105.9" x2="122.5" y2="112.6" stroke="rgb(0,0,0)"  stroke-width="1.0"/>
<line x1="126.8" y1="105.3" x2="126.8" y2="113.3" stroke="rgb(0,0,0)"  stroke-width="1.0"/>
<line x1="100.0" y1="109.3" x2="80.0" y2="74.6" stroke="rgb(0,0,0)"  stroke-width="1.0"/>
<line x1="80.0" y1="74.6" x2="93.5" y2="51.3" stroke="rgb(0,0,0)"  stroke-width="1.0"/>
<line x1="100.0" y1="109.3" x2="80.0" y2="143.9" stroke="rgb(0,0,0)"  stroke-width="1.0"/>
<line x1="80.0" y1="143.9" x2="93.5" y2="167.3" stroke="rgb(0,0,0)"  stroke-width="1.0"/>
<line x1="80.0" y1="146.9" x2="53.0" y2="146.9" stroke="rgb(0,0,0)"  stroke-width="1.0"/>
<line x1="80.0" y1="140.9" x2="53.0" y2="140.9" stroke="rgb(0,0,0)"  stroke-width="1.0"/>
<text x="135.999717" y="117.279804" fill="rgb(12,12,255)"  stroke="rgb(12,12,255)" stroke-width="1" font-size="16" >NH</text>
<text x="159.999717" y="120.959804" fill="rgb(12,12,255)"  stroke="rgb(12,12,255)" stroke-width="1" font-size="13" >2</text>
<text x="93.999830" y="48.000000" fill="rgb(255,12,12)"  stroke="rgb(255,12,12)" stroke-width="1" font-size="16" >OH</text>
<text x="93.999830" y="186.564457" fill="rgb(255,12,12)"  stroke="rgb(255,12,12)" stroke-width="1" font-size="16" >OH</text>
<text x="34.000000" y="151.922130" fill="rgb(255,12,12)"  stroke="rgb(255,12,12)" stroke-width="1" font-size="16" >O</text>
<text font-size="18.000000" fill ="black" font-family="sans-serif"
x="10.000000" y="20.000000" >Serine</text>
<title>Serine - OBDepict</title>
</svg>
