<?xml version="1.0"?>
<svg xmlns="http://www.w3.org/2000/svg"
xmlns:xlink="http://www.w3.org/1999/xlink" xmlns:cml="http://www.xml-cml.org/schema" width="772.821" height="240" x="0" y="0" font-family="sans-serif" stroke="rgb(0,0,0)" stroke-width="1"  stroke-linecap="round">
<rect x="0%" y="0%" width="100%" height="100%" stroke-width="0" fill="rgb(255,255,255)"  />
<line x1="51.3" y1="93.5" x2="74.6" y2="80.0" stroke="rgb(0,0,0)"  stroke-width="1.0"/>
<line x1="74.6" y1="80.0" x2="74.6" y2="53.0" stroke="rgb(0,0,0)"  stroke-width="1.0"/>
<line x1="74.6" y1="80.0" x2="109.3" y2="100.0" stroke="rgb(0,0,0)"  stroke-width="1.0"/>
<line x1="109.3" y1="100.0" x2="143.9" y2="80.0" stroke="rgb(0,0,0)"  stroke-width="1.0"/>
<line x1="143.9" y1="80.0" x2="178.6" y2="100.0" stroke="rgb(0,0,0)"  stroke-width="1.0"/>
<polygon points="213.202820 80.000091 180.565314 103.464153 176.565016 96.536121 " stroke-width="1.000000" fill="rgb(0,0,0)"  stroke="rgb(0,0,0)" />
<line x1="213.2" y1="80.0" x2="213.2" y2="53.0" stroke="rgb(0,0,0)"  stroke-width="1.0"/>
<line x1="213.2" y1="80.0" x2="247.8" y2="100.0" stroke="rgb(0,0,0)"  stroke-width="1.0"/>
<line x1="247.8" y1="100.0" x2="282.5" y2="80.0" stroke="rgb(0,0,0)"  stroke-width="1.0"/>
<line x1="282.5" y1="80.0" x2="317.1" y2="100.0" stroke="rgb(0,0,0)"  stroke-width="1.0"/>
<polygon points="351.767984 80.000091 319.130479 103.464153 315.130181 96.536121 " stroke-width="1.000000" fill="rgb(0,0,0)"  stroke="rgb(0,0,0)" />
<line x1="351.8" y1="80.0" x2="351.8" y2="53.0" stroke="rgb(0,0,0)"  stroke-width="1.0"/>
<line x1="351.8" y1="80.0" x2="386.4" y2="100.0" stroke="rgb(0,0,0)"  stroke-width="1.0"/>
<line x1="386.4" y1="100.0" x2="421.1" y2="80.0" stroke="rgb(0,0,0)"  stroke-width="1.0"/>
<line x1="421.1" y1="80.0" x2="455.7" y2="100.0" stroke="rgb(0,0,0)"  stroke-width="1.0"/>
<line x1="455.7" y1="100.0" x2="490.3" y2="80.0" stroke="rgb(0,0,0)"  stroke-width="1.0"/>
<line x1="490.3" y1="80.0" x2="490.3" y2="53.0" stroke="rgb(0,0,0)"  stroke-width="1.0"/>
<line x1="491.8" y1="77.4" x2="526.5" y2="97.4" stroke="rgb(0,0,0)"  stroke-width="1.0"/>
<line x1="488.8" y1="82.6" x2="523.5" y2="102.6" stroke="rgb(0,0,0)"  stroke-width="1.0"/>
<line x1="525.0" y1="100.0" x2="559.6" y2="80.0" stroke="rgb(0,0,0)"  stroke-width="1.0"/>
<line x1="559.6" y1="80.0" x2="594.3" y2="100.0" stroke="rgb(0,0,0)"  stroke-width="1.0"/>
<line x1="594.3" y1="140.0" x2="570.9" y2="153.5" stroke="rgb(0,0,0)"  stroke-width="1.0"/>
<line x1="631.9" y1="160.0" x2="631.9" y2="187.0" stroke="rgb(0,0,0)"  stroke-width="1.0"/>
<line x1="625.9" y1="160.0" x2="625.9" y2="187.0" stroke="rgb(0,0,0)"  stroke-width="1.0"/>
<line x1="625.9" y1="80.0" x2="625.9" y2="53.0" stroke="rgb(0,0,0)"  stroke-width="1.0"/>
<line x1="631.9" y1="80.0" x2="631.9" y2="53.0" stroke="rgb(0,0,0)"  stroke-width="1.0"/>
<line x1="594.3" y1="100.0" x2="594.3" y2="140.0" stroke="rgb(0,0,0)"  stroke-width="1.0"/>
<line x1="601.5" y1="106.0" x2="601.5" y2="134.0" stroke="rgb(0,0,0)"  stroke-width="1.0"/>
<line x1="594.3" y1="140.0" x2="628.9" y2="160.0" stroke="rgb(0,0,0)"  stroke-width="1.0"/>
<line x1="628.9" y1="160.0" x2="663.5" y2="140.0" stroke="rgb(0,0,0)"  stroke-width="1.0"/>
<line x1="663.5" y1="140.0" x2="663.5" y2="100.0" stroke="rgb(0,0,0)"  stroke-width="1.0"/>
<line x1="656.3" y1="134.0" x2="656.3" y2="106.0" stroke="rgb(0,0,0)"  stroke-width="1.0"/>
<line x1="663.5" y1="100.0" x2="628.9" y2="80.0" stroke="rgb(0,0,0)"  stroke-width="1.0"/>
<line x1="628.9" y1="80.0" x2="594.3" y2="100.0" stroke="rgb(0,0,0)"  stroke-width="1.0"/>
<line x1="698.2" y1="80.0" x2="732.8" y2="100.0" stroke="rgb(0,0,0)"  stroke-width="1.0"/>
<line x1="699.8" y1="89.2" x2="724.0" y2="103.2" stroke="rgb(0,0,0)"  stroke-width="1.0"/>
<line x1="732.8" y1="100.0" x2="732.8" y2="140.0" stroke="rgb(0,0,0)"  stroke-width="1.0"/>
<line x1="732.8" y1="140.0" x2="698.2" y2="160.0" stroke="rgb(0,0,0)"  stroke-width="1.0"/>
<line x1="724.0" y1="136.8" x2="699.8" y2="150.8" stroke="rgb(0,0,0)"  stroke-width="1.0"/>
<line x1="698.2" y1="160.0" x2="663.5" y2="140.0" stroke="rgb(0,0,0)"  stroke-width="1.0"/>
<line x1="663.5" y1="100.0" x2="698.2" y2="80.0" stroke="rgb(0,0,0)"  stroke-width="1.0"/>
<text x="14.000000" y="108.000137" fill="rgb(102,102,102)"  stroke="rgb(102,102,102)" stroke-width="1" font-size="16" >H</text>
<text x="26.000000" y="111.680137" fill="rgb(102,102,102)"  stroke="rgb(102,102,102)" stroke-width="1" font-size="13" >3</text>
<text x="32.500000" y="108.000137" fill="rgb(102,102,102)"  stroke="rgb(102,102,102)" stroke-width="1" font-size="16" >C</text>
<text x="70.642503" y="48.000000" fill="rgb(102,102,102)"  stroke="rgb(102,102,102)" stroke-width="1" font-size="16" >CH</text>
<text x="94.642503" y="51.680000" fill="rgb(102,102,102)"  stroke="rgb(102,102,102)" stroke-width="1" font-size="13" >3</text>
<text x="209.202820" y="48.000000" fill="rgb(102,102,102)"  stroke="rgb(102,102,102)" stroke-width="1" font-size="16" >CH</text>
<text x="233.202820" y="51.680000" fill="rgb(102,102,102)"  stroke="rgb(102,102,102)" stroke-width="1" font-size="13" >3</text>
<text x="347.767984" y="48.000000" fill="rgb(102,102,102)"  stroke="rgb(102,102,102)" stroke-width="1" font-size="16" >CH</text>
<text x="371.767984" y="51.680000" fill="rgb(102,102,102)"  stroke="rgb(102,102,102)" stroke-width="1" font-size="13" >3</text>
<text x="486.333149" y="48.000000" fill="rgb(102,102,102)"  stroke="rgb(102,102,102)" stroke-width="1" font-size="16" >CH</text>
<text x="510.333149" y="51.680000" fill="rgb(102,102,102)"  stroke="rgb(102,102,102)" stroke-width="1" font-size="13" >3</text>
<text x="533.618156" y="168.000274" fill="rgb(102,102,102)"  stroke="rgb(102,102,102)" stroke-width="1" font-size="16" >H</text>
<text x="545.618156" y="171.680274" fill="rgb(102,102,102)"  stroke="rgb(102,102,102)" stroke-width="1" font-size="13" >3</text>
<text x="552.118156" y="168.000274" fill="rgb(102,102,102)"  stroke="rgb(102,102,102)" stroke-width="1" font-size="16" >C</text>
<text x="622.898314" y="208.000365" fill="rgb(255,12,12)"  stroke="rgb(255,12,12)" stroke-width="1" font-size="16" >O</text>
<text x="622.898314" y="48.000000" fill="rgb(255,12,12)"  stroke="rgb(255,12,12)" stroke-width="1" font-size="16" >O</text>
<text font-size="18.000000" fill ="black" font-family="sans-serif"
x="10.000000" y="20.000000" >Phylloquinone</text>
<title>Phylloquinone - OBDepict</title>
</svg>
