<?xml version="1.0"?>
<svg xmlns="http://www.w3.org/2000/svg"
xmlns:xlink="http://www.w3.org/1999/xlink" xmlns:cml="http://www.xml-cml.org/schema" width="218.564" height="259.999" x="0" y="0" font-family="sans-serif" stroke="rgb(0,0,0)" stroke-width="1"  stroke-linecap="round">
<rect x="0%" y="0%" width="100%" height="100%" stroke-width="0" fill="rgb(255,255,255)"  />
<line x1="85.9" y1="46.5" x2="109.3" y2="60.0" stroke="rgb(0,0,0)"  stroke-width="1.0"/>
<polygon points="109.284652 99.999830 105.284652 59.999943 113.284652 59.999943 " stroke-width="1.000000" fill="rgb(0,0,0)"  stroke="rgb(0,0,0)" />
<line x1="143.9" y1="160.0" x2="167.3" y2="173.5" stroke="rgb(0,0,0)"  stroke-width="1.0"/>
<line x1="110.1" y1="185.4" x2="108.5" y2="185.4" stroke="rgb(0,0,0)"  stroke-width="1.0"/>
<line x1="110.7" y1="189.6" x2="107.8" y2="189.6" stroke="rgb(0,0,0)"  stroke-width="1.0"/>
<line x1="111.4" y1="193.9" x2="107.2" y2="193.9" stroke="rgb(0,0,0)"  stroke-width="1.0"/>
<line x1="112.0" y1="198.2" x2="106.6" y2="198.2" stroke="rgb(0,0,0)"  stroke-width="1.0"/>
<line x1="112.6" y1="202.5" x2="105.9" y2="202.5" stroke="rgb(0,0,0)"  stroke-width="1.0"/>
<line x1="113.3" y1="206.8" x2="105.3" y2="206.8" stroke="rgb(0,0,0)"  stroke-width="1.0"/>
<polygon points="74.642326 159.999661 53.431907 176.863759 49.432029 169.935486 " stroke-width="1.000000" fill="rgb(0,0,0)"  stroke="rgb(0,0,0)" />
<line x1="69.6" y1="118.0" x2="70.4" y2="116.6" stroke="rgb(0,0,0)"  stroke-width="1.0"/>
<line x1="65.6" y1="116.4" x2="67.0" y2="113.9" stroke="rgb(0,0,0)"  stroke-width="1.0"/>
<line x1="61.5" y1="114.8" x2="63.6" y2="111.2" stroke="rgb(0,0,0)"  stroke-width="1.0"/>
<line x1="57.5" y1="113.2" x2="60.2" y2="108.5" stroke="rgb(0,0,0)"  stroke-width="1.0"/>
<line x1="53.5" y1="111.7" x2="56.8" y2="105.8" stroke="rgb(0,0,0)"  stroke-width="1.0"/>
<line x1="49.4" y1="110.1" x2="53.4" y2="103.1" stroke="rgb(0,0,0)"  stroke-width="1.0"/>
<line x1="109.3" y1="100.0" x2="132.7" y2="113.5" stroke="rgb(0,0,0)"  stroke-width="1.0"/>
<line x1="143.9" y1="133.0" x2="143.9" y2="160.0" stroke="rgb(0,0,0)"  stroke-width="1.0"/>
<line x1="143.9" y1="160.0" x2="109.3" y2="180.0" stroke="rgb(0,0,0)"  stroke-width="1.0"/>
<line x1="109.3" y1="180.0" x2="74.6" y2="160.0" stroke="rgb(0,0,0)"  stroke-width="1.0"/>
<line x1="74.6" y1="160.0" x2="74.6" y2="120.0" stroke="rgb(0,0,0)"  stroke-width="1.0"/>
<line x1="74.6" y1="120.0" x2="109.3" y2="100.0" stroke="rgb(0,0,0)"  stroke-width="1.0"/>
<text x="56.642326" y="48.000000" fill="rgb(255,12,12)"  stroke="rgb(255,12,12)" stroke-width="1" font-size="16" >HO</text>
<text x="137.922130" y="127.999774" fill="rgb(255,12,12)"  stroke="rgb(255,12,12)" stroke-width="1" font-size="16" >O</text>
<text x="172.564457" y="187.999604" fill="rgb(255,12,12)"  stroke="rgb(255,12,12)" stroke-width="1" font-size="16" >OH</text>
<text x="103.284652" y="227.999491" fill="rgb(255,12,12)"  stroke="rgb(255,12,12)" stroke-width="1" font-size="16" >OH</text>
<text x="22.000000" y="187.999604" fill="rgb(255,12,12)"  stroke="rgb(255,12,12)" stroke-width="1" font-size="16" >HO</text>
<text x="22.000000" y="107.999830" fill="rgb(255,12,12)"  stroke="rgb(255,12,12)" stroke-width="1" font-size="16" >HO</text>
<text font-size="18.000000" fill ="black" font-family="sans-serif"
x="10.000000" y="20.000000" >dextrose</text>
<title>dextrose - OBDepict</title>
</svg>
