<?xml version="1.0"?>
<svg xmlns="http://www.w3.org/2000/svg"
xmlns:xlink="http://www.w3.org/1999/xlink" xmlns:cml="http://www.xml-cml.org/schema" width="280.001" height="426.412" x="0" y="0" font-family="sans-serif" stroke="rgb(0,0,0)" stroke-width="1"  stroke-linecap="round">
<rect x="0%" y="0%" width="100%" height="100%" stroke-width="0" fill="rgb(255,255,255)"  />
<line x1="113.5" y1="375.2" x2="100.0" y2="351.8" stroke="rgb(0,0,0)"  stroke-width="1.0"/>
<line x1="100.0" y1="351.8" x2="120.0" y2="317.1" stroke="rgb(0,0,0)"  stroke-width="1.0"/>
<line x1="117.4" y1="318.6" x2="97.4" y2="284.0" stroke="rgb(0,0,0)"  stroke-width="1.0"/>
<line x1="122.6" y1="315.6" x2="102.6" y2="281.0" stroke="rgb(0,0,0)"  stroke-width="1.0"/>
<line x1="100.0" y1="282.5" x2="60.0" y2="282.5" stroke="rgb(0,0,0)"  stroke-width="1.0"/>
<line x1="60.0" y1="282.5" x2="40.0" y2="247.8" stroke="rgb(0,0,0)"  stroke-width="1.0"/>
<line x1="37.4" y1="246.3" x2="57.4" y2="211.7" stroke="rgb(0,0,0)"  stroke-width="1.0"/>
<line x1="42.6" y1="249.3" x2="62.6" y2="214.7" stroke="rgb(0,0,0)"  stroke-width="1.0"/>
<line x1="60.0" y1="213.2" x2="100.0" y2="213.2" stroke="rgb(0,0,0)"  stroke-width="1.0"/>
<line x1="100.0" y1="213.2" x2="120.0" y2="247.8" stroke="rgb(0,0,0)"  stroke-width="1.0"/>
<line x1="120.0" y1="244.8" x2="160.0" y2="244.8" stroke="rgb(0,0,0)"  stroke-width="1.0"/>
<line x1="120.0" y1="250.8" x2="160.0" y2="250.8" stroke="rgb(0,0,0)"  stroke-width="1.0"/>
<line x1="160.0" y1="247.8" x2="180.0" y2="213.2" stroke="rgb(0,0,0)"  stroke-width="1.0"/>
<line x1="180.0" y1="213.2" x2="220.0" y2="213.2" stroke="rgb(0,0,0)"  stroke-width="1.0"/>
<line x1="217.4" y1="211.7" x2="237.4" y2="177.1" stroke="rgb(0,0,0)"  stroke-width="1.0"/>
<line x1="222.6" y1="214.7" x2="242.6" y2="180.1" stroke="rgb(0,0,0)"  stroke-width="1.0"/>
<line x1="240.0" y1="178.6" x2="220.0" y2="143.9" stroke="rgb(0,0,0)"  stroke-width="1.0"/>
<line x1="220.0" y1="143.9" x2="240.0" y2="109.3" stroke="rgb(0,0,0)"  stroke-width="1.0"/>
<line x1="237.4" y1="110.8" x2="217.4" y2="76.1" stroke="rgb(0,0,0)"  stroke-width="1.0"/>
<line x1="242.6" y1="107.8" x2="222.6" y2="73.1" stroke="rgb(0,0,0)"  stroke-width="1.0"/>
<line x1="220.0" y1="74.6" x2="180.0" y2="74.6" stroke="rgb(0,0,0)"  stroke-width="1.0"/>
<line x1="180.0" y1="74.6" x2="160.0" y2="40.0" stroke="rgb(0,0,0)"  stroke-width="1.0"/>
<line x1="160.0" y1="43.0" x2="120.0" y2="43.0" stroke="rgb(0,0,0)"  stroke-width="1.0"/>
<line x1="160.0" y1="37.0" x2="120.0" y2="37.0" stroke="rgb(0,0,0)"  stroke-width="1.0"/>
<line x1="120.0" y1="40.0" x2="100.0" y2="74.6" stroke="rgb(0,0,0)"  stroke-width="1.0"/>
<line x1="100.0" y1="74.6" x2="120.0" y2="109.3" stroke="rgb(0,0,0)"  stroke-width="1.0"/>
<line x1="120.0" y1="109.3" x2="100.0" y2="143.9" stroke="rgb(0,0,0)"  stroke-width="1.0"/>
<line x1="100.0" y1="143.9" x2="73.0" y2="143.9" stroke="rgb(0,0,0)"  stroke-width="1.0"/>
<line x1="102.6" y1="142.4" x2="116.1" y2="165.8" stroke="rgb(0,0,0)"  stroke-width="1.0"/>
<line x1="97.4" y1="145.4" x2="110.9" y2="168.8" stroke="rgb(0,0,0)"  stroke-width="1.0"/>
<text x="116.000494" y="394.411836" fill="rgb(102,102,102)"  stroke="rgb(102,102,102)" stroke-width="1" font-size="16" >CH</text>
<text x="140.000494" y="398.091836" fill="rgb(102,102,102)"  stroke="rgb(102,102,102)" stroke-width="1" font-size="13" >3</text>
<text x="42.000124" y="151.923066" fill="rgb(255,12,12)"  stroke="rgb(255,12,12)" stroke-width="1" font-size="16" >HO</text>
<text x="114.000494" y="186.565704" fill="rgb(255,12,12)"  stroke="rgb(255,12,12)" stroke-width="1" font-size="16" >O</text>
<text font-size="18.000000" fill ="black" font-family="sans-serif"
x="10.000000" y="20.000000" >DHA</text>
<title>DHA - OBDepict</title>
</svg>
