<?xml version="1.0"?>
<svg xmlns="http://www.w3.org/2000/svg"
xmlns:xlink="http://www.w3.org/1999/xlink" xmlns:cml="http://www.xml-cml.org/schema" width="426.411" height="260.001" x="0" y="0" font-family="sans-serif" stroke="rgb(0,0,0)" stroke-width="1"  stroke-linecap="round">
<rect x="0%" y="0%" width="100%" height="100%" stroke-width="0" fill="rgb(255,255,255)"  />
<line x1="317.1" y1="53.0" x2="317.1" y2="80.0" stroke="rgb(0,0,0)"  stroke-width="1.0"/>
<line x1="317.1" y1="80.0" x2="282.5" y2="100.0" stroke="rgb(0,0,0)"  stroke-width="1.0"/>
<line x1="281.0" y1="102.6" x2="246.3" y2="82.6" stroke="rgb(0,0,0)"  stroke-width="1.0"/>
<line x1="284.0" y1="97.4" x2="249.3" y2="77.4" stroke="rgb(0,0,0)"  stroke-width="1.0"/>
<line x1="247.8" y1="80.0" x2="213.2" y2="100.0" stroke="rgb(0,0,0)"  stroke-width="1.0"/>
<line x1="211.7" y1="102.6" x2="177.1" y2="82.6" stroke="rgb(0,0,0)"  stroke-width="1.0"/>
<line x1="214.7" y1="97.4" x2="180.1" y2="77.4" stroke="rgb(0,0,0)"  stroke-width="1.0"/>
<line x1="178.6" y1="80.0" x2="178.6" y2="53.0" stroke="rgb(0,0,0)"  stroke-width="1.0"/>
<line x1="178.6" y1="80.0" x2="143.9" y2="100.0" stroke="rgb(0,0,0)"  stroke-width="1.0"/>
<line x1="146.9" y1="100.0" x2="146.9" y2="140.0" stroke="rgb(0,0,0)"  stroke-width="1.0"/>
<line x1="140.9" y1="100.0" x2="140.9" y2="140.0" stroke="rgb(0,0,0)"  stroke-width="1.0"/>
<line x1="143.9" y1="140.0" x2="109.3" y2="160.0" stroke="rgb(0,0,0)"  stroke-width="1.0"/>
<line x1="109.3" y1="200.0" x2="132.7" y2="213.5" stroke="rgb(0,0,0)"  stroke-width="1.0"/>
<line x1="74.6" y1="140.0" x2="62.0" y2="116.2" stroke="rgb(0,0,0)"  stroke-width="1.0"/>
<line x1="74.6" y1="140.0" x2="87.3" y2="116.2" stroke="rgb(0,0,0)"  stroke-width="1.0"/>
<line x1="318.6" y1="77.4" x2="353.3" y2="97.4" stroke="rgb(0,0,0)"  stroke-width="1.0"/>
<line x1="315.6" y1="82.6" x2="350.3" y2="102.6" stroke="rgb(0,0,0)"  stroke-width="1.0"/>
<line x1="351.8" y1="100.0" x2="386.4" y2="80.0" stroke="rgb(0,0,0)"  stroke-width="1.0"/>
<line x1="386.4" y1="80.0" x2="386.4" y2="53.0" stroke="rgb(0,0,0)"  stroke-width="1.0"/>
<line x1="109.3" y1="160.0" x2="109.3" y2="200.0" stroke="rgb(0,0,0)"  stroke-width="1.0"/>
<line x1="102.1" y1="166.0" x2="102.1" y2="194.0" stroke="rgb(0,0,0)"  stroke-width="1.0"/>
<line x1="109.3" y1="200.0" x2="74.6" y2="220.0" stroke="rgb(0,0,0)"  stroke-width="1.0"/>
<line x1="74.6" y1="220.0" x2="40.0" y2="200.0" stroke="rgb(0,0,0)"  stroke-width="1.0"/>
<line x1="40.0" y1="200.0" x2="40.0" y2="160.0" stroke="rgb(0,0,0)"  stroke-width="1.0"/>
<line x1="40.0" y1="160.0" x2="74.6" y2="140.0" stroke="rgb(0,0,0)"  stroke-width="1.0"/>
<line x1="74.6" y1="140.0" x2="109.3" y2="160.0" stroke="rgb(0,0,0)"  stroke-width="1.0"/>
<text x="313.131116" y="48.000000" fill="rgb(102,102,102)"  stroke="rgb(102,102,102)" stroke-width="1" font-size="16" >CH</text>
<text x="337.131116" y="51.680000" fill="rgb(102,102,102)"  stroke="rgb(102,102,102)" stroke-width="1" font-size="13" >3</text>
<text x="174.565558" y="48.000000" fill="rgb(102,102,102)"  stroke="rgb(102,102,102)" stroke-width="1" font-size="16" >CH</text>
<text x="198.565558" y="51.680000" fill="rgb(102,102,102)"  stroke="rgb(102,102,102)" stroke-width="1" font-size="13" >3</text>
<text x="139.922956" y="228.000922" fill="rgb(102,102,102)"  stroke="rgb(102,102,102)" stroke-width="1" font-size="16" >CH</text>
<text x="163.922956" y="231.680922" fill="rgb(102,102,102)"  stroke="rgb(102,102,102)" stroke-width="1" font-size="13" >3</text>
<text x="29.864324" y="112.683968" fill="rgb(102,102,102)"  stroke="rgb(102,102,102)" stroke-width="1" font-size="16" >H</text>
<text x="41.864324" y="116.363968" fill="rgb(102,102,102)"  stroke="rgb(102,102,102)" stroke-width="1" font-size="13" >3</text>
<text x="48.364324" y="112.683968" fill="rgb(102,102,102)"  stroke="rgb(102,102,102)" stroke-width="1" font-size="16" >C</text>
<text x="89.420880" y="112.683968" fill="rgb(102,102,102)"  stroke="rgb(102,102,102)" stroke-width="1" font-size="16" >CH</text>
<text x="113.420880" y="116.363968" fill="rgb(102,102,102)"  stroke="rgb(102,102,102)" stroke-width="1" font-size="13" >3</text>
<text x="380.411471" y="48.000000" fill="rgb(255,12,12)"  stroke="rgb(255,12,12)" stroke-width="1" font-size="16" >OH</text>
<text font-size="18.000000" fill ="black" font-family="sans-serif"
x="10.000000" y="20.000000" >Vitamin A</text>
<title>Vitamin A - OBDepict</title>
</svg>
