<?xml version="1.0"?>
<svg xmlns="http://www.w3.org/2000/svg"
xmlns:xlink="http://www.w3.org/1999/xlink" xmlns:cml="http://www.xml-cml.org/schema" width="448.263" height="715.424" x="0" y="0" font-family="sans-serif" stroke="rgb(0,0,0)" stroke-width="1"  stroke-linecap="round">
<rect x="0%" y="0%" width="100%" height="100%" stroke-width="0" fill="rgb(255,255,255)"  />
<line x1="248.0" y1="508.8" x2="274.0" y2="505.1" stroke="rgb(0,0,0)"  stroke-width="1.0"/>
<line x1="274.0" y1="505.1" x2="300.1" y2="501.3" stroke="rgb(0,0,0)"  stroke-width="1.0"/>
<polygon points="268.410506 466.112520 278.007239 504.485512 270.089771 505.631678 " stroke-width="1.000000" fill="rgb(0,0,0)"  stroke="rgb(0,0,0)" />
<line x1="268.4" y1="466.1" x2="243.9" y2="456.3" stroke="rgb(0,0,0)"  stroke-width="1.0"/>
<line x1="268.4" y1="466.1" x2="299.3" y2="441.8" stroke="rgb(0,0,0)"  stroke-width="1.0"/>
<line x1="296.3" y1="442.2" x2="290.7" y2="403.2" stroke="rgb(0,0,0)"  stroke-width="1.0"/>
<line x1="302.3" y1="441.3" x2="296.6" y2="402.4" stroke="rgb(0,0,0)"  stroke-width="1.0"/>
<line x1="318.9" y1="384.0" x2="317.9" y2="382.7" stroke="rgb(0,0,0)"  stroke-width="1.0"/>
<line x1="314.3" y1="388.4" x2="312.6" y2="386.1" stroke="rgb(0,0,0)"  stroke-width="1.0"/>
<line x1="309.8" y1="392.8" x2="307.2" y2="389.5" stroke="rgb(0,0,0)"  stroke-width="1.0"/>
<line x1="305.2" y1="397.1" x2="301.9" y2="392.9" stroke="rgb(0,0,0)"  stroke-width="1.0"/>
<line x1="300.7" y1="401.5" x2="296.5" y2="396.3" stroke="rgb(0,0,0)"  stroke-width="1.0"/>
<line x1="296.1" y1="405.9" x2="291.2" y2="399.7" stroke="rgb(0,0,0)"  stroke-width="1.0"/>
<line x1="324.6" y1="378.5" x2="349.1" y2="388.2" stroke="rgb(0,0,0)"  stroke-width="1.0"/>
<line x1="318.9" y1="339.5" x2="324.6" y2="378.5" stroke="rgb(0,0,0)"  stroke-width="1.0"/>
<polygon points="318.937852 339.505577 282.254777 324.719389 285.980669 317.640002 " stroke-width="1.000000" fill="rgb(0,0,0)"  stroke="rgb(0,0,0)" />
<polygon points="347.127846 312.050144 360.004747 335.401509 352.499079 338.170073 " stroke-width="1.000000" fill="rgb(0,0,0)"  stroke="rgb(0,0,0)" />
<line x1="348.9" y1="245.4" x2="331.5" y2="210.1" stroke="rgb(0,0,0)"  stroke-width="1.0"/>
<line x1="354.3" y1="242.7" x2="336.9" y2="207.4" stroke="rgb(0,0,0)"  stroke-width="1.0"/>
<line x1="334.2" y1="208.7" x2="356.1" y2="176.0" stroke="rgb(0,0,0)"  stroke-width="1.0"/>
<line x1="353.4" y1="177.3" x2="336.0" y2="142.1" stroke="rgb(0,0,0)"  stroke-width="1.0"/>
<line x1="358.8" y1="174.7" x2="341.4" y2="139.4" stroke="rgb(0,0,0)"  stroke-width="1.0"/>
<line x1="345.4" y1="67.9" x2="346.7" y2="68.8" stroke="rgb(0,0,0)"  stroke-width="1.0"/>
<line x1="347.2" y1="64.0" x2="349.6" y2="65.6" stroke="rgb(0,0,0)"  stroke-width="1.0"/>
<line x1="349.0" y1="60.2" x2="352.5" y2="62.5" stroke="rgb(0,0,0)"  stroke-width="1.0"/>
<line x1="350.8" y1="56.3" x2="355.4" y2="59.3" stroke="rgb(0,0,0)"  stroke-width="1.0"/>
<line x1="352.6" y1="52.4" x2="358.2" y2="56.2" stroke="rgb(0,0,0)"  stroke-width="1.0"/>
<line x1="354.5" y1="48.6" x2="361.1" y2="53.0" stroke="rgb(0,0,0)"  stroke-width="1.0"/>
<line x1="301.9" y1="139.8" x2="287.2" y2="161.7" stroke="rgb(0,0,0)"  stroke-width="1.0"/>
<line x1="296.9" y1="136.5" x2="282.3" y2="158.4" stroke="rgb(0,0,0)"  stroke-width="1.0"/>
<line x1="53.0" y1="448.9" x2="79.3" y2="450.6" stroke="rgb(0,0,0)"  stroke-width="1.0"/>
<line x1="79.3" y1="450.6" x2="93.9" y2="428.7" stroke="rgb(0,0,0)"  stroke-width="1.0"/>
<line x1="92.5" y1="479.2" x2="93.9" y2="478.5" stroke="rgb(0,0,0)"  stroke-width="1.0"/>
<line x1="89.1" y1="473.9" x2="91.7" y2="472.6" stroke="rgb(0,0,0)"  stroke-width="1.0"/>
<line x1="85.8" y1="468.5" x2="89.5" y2="466.7" stroke="rgb(0,0,0)"  stroke-width="1.0"/>
<line x1="82.4" y1="463.1" x2="87.3" y2="460.7" stroke="rgb(0,0,0)"  stroke-width="1.0"/>
<line x1="79.0" y1="457.8" x2="85.1" y2="454.8" stroke="rgb(0,0,0)"  stroke-width="1.0"/>
<line x1="75.7" y1="452.4" x2="82.9" y2="448.9" stroke="rgb(0,0,0)"  stroke-width="1.0"/>
<line x1="96.7" y1="485.9" x2="82.0" y2="507.8" stroke="rgb(0,0,0)"  stroke-width="1.0"/>
<line x1="96.7" y1="485.9" x2="135.9" y2="488.5" stroke="rgb(0,0,0)"  stroke-width="1.0"/>
<line x1="138.6" y1="487.2" x2="156.0" y2="522.5" stroke="rgb(0,0,0)"  stroke-width="1.0"/>
<line x1="133.2" y1="489.8" x2="150.6" y2="525.1" stroke="rgb(0,0,0)"  stroke-width="1.0"/>
<polygon points="192.602792 526.394272 153.075307 527.809958 153.598963 519.827114 " stroke-width="1.000000" fill="rgb(0,0,0)"  stroke="rgb(0,0,0)" />
<line x1="192.6" y1="526.4" x2="207.2" y2="504.5" stroke="rgb(0,0,0)"  stroke-width="1.0"/>
<line x1="210.0" y1="561.7" x2="192.6" y2="526.4" stroke="rgb(0,0,0)"  stroke-width="1.0"/>
<line x1="207.0" y1="569.0" x2="205.6" y2="568.3" stroke="rgb(0,0,0)"  stroke-width="1.0"/>
<line x1="204.7" y1="574.9" x2="202.1" y2="573.6" stroke="rgb(0,0,0)"  stroke-width="1.0"/>
<line x1="202.3" y1="580.8" x2="198.6" y2="578.8" stroke="rgb(0,0,0)"  stroke-width="1.0"/>
<line x1="199.9" y1="586.6" x2="195.1" y2="584.1" stroke="rgb(0,0,0)"  stroke-width="1.0"/>
<line x1="197.6" y1="592.5" x2="191.6" y2="589.4" stroke="rgb(0,0,0)"  stroke-width="1.0"/>
<line x1="195.2" y1="598.4" x2="188.1" y2="594.7" stroke="rgb(0,0,0)"  stroke-width="1.0"/>
<line x1="252.4" y1="576.8" x2="254.0" y2="576.3" stroke="rgb(0,0,0)"  stroke-width="1.0"/>
<line x1="250.1" y1="571.2" x2="252.8" y2="570.4" stroke="rgb(0,0,0)"  stroke-width="1.0"/>
<line x1="247.7" y1="565.7" x2="251.7" y2="564.5" stroke="rgb(0,0,0)"  stroke-width="1.0"/>
<line x1="245.4" y1="560.1" x2="250.6" y2="558.5" stroke="rgb(0,0,0)"  stroke-width="1.0"/>
<line x1="243.0" y1="554.6" x2="249.4" y2="552.6" stroke="rgb(0,0,0)"  stroke-width="1.0"/>
<line x1="240.6" y1="549.0" x2="248.3" y2="546.7" stroke="rgb(0,0,0)"  stroke-width="1.0"/>
<line x1="300.6" y1="637.4" x2="299.6" y2="661.0" stroke="rgb(0,0,0)"  stroke-width="1.0"/>
<line x1="294.6" y1="637.1" x2="293.6" y2="660.7" stroke="rgb(0,0,0)"  stroke-width="1.0"/>
<line x1="296.6" y1="660.8" x2="333.2" y2="675.4" stroke="rgb(0,0,0)"  stroke-width="1.0"/>
<line x1="330.2" y1="675.9" x2="318.9" y2="598.0" stroke="rgb(0,0,0)"  stroke-width="1.0"/>
<line x1="336.1" y1="675.0" x2="324.8" y2="597.1" stroke="rgb(0,0,0)"  stroke-width="1.0"/>
<polygon points="254.425216 607.305757 236.195684 626.768227 231.243311 620.485394 " stroke-width="1.000000" fill="rgb(0,0,0)"  stroke="rgb(0,0,0)" />
<line x1="314.4" y1="556.2" x2="335.1" y2="539.9" stroke="rgb(0,0,0)"  stroke-width="1.0"/>
<line x1="318.1" y1="560.9" x2="338.8" y2="544.6" stroke="rgb(0,0,0)"  stroke-width="1.0"/>
<line x1="274.0" y1="505.1" x2="279.7" y2="544.0" stroke="rgb(0,0,0)"  stroke-width="1.0"/>
<line x1="318.9" y1="339.5" x2="284.1" y2="321.2" stroke="rgb(0,0,0)"  stroke-width="1.0"/>
<line x1="284.1" y1="321.2" x2="290.8" y2="282.4" stroke="rgb(0,0,0)"  stroke-width="1.0"/>
<line x1="290.8" y1="282.4" x2="329.7" y2="276.8" stroke="rgb(0,0,0)"  stroke-width="1.0"/>
<line x1="329.7" y1="276.8" x2="347.1" y2="312.1" stroke="rgb(0,0,0)"  stroke-width="1.0"/>
<line x1="347.1" y1="312.1" x2="318.9" y2="339.5" stroke="rgb(0,0,0)"  stroke-width="1.0"/>
<line x1="216.9" y1="619.6" x2="261.0" y2="622.6" stroke="rgb(0,0,0)"  stroke-width="1.0"/>
<line x1="261.0" y1="622.6" x2="255.4" y2="583.7" stroke="rgb(0,0,0)"  stroke-width="1.0"/>
<line x1="255.4" y1="583.7" x2="210.0" y2="561.7" stroke="rgb(0,0,0)"  stroke-width="1.0"/>
<line x1="210.0" y1="561.7" x2="191.7" y2="596.5" stroke="rgb(0,0,0)"  stroke-width="1.0"/>
<line x1="191.7" y1="596.5" x2="216.9" y2="619.6" stroke="rgb(0,0,0)"  stroke-width="1.0"/>
<line x1="351.6" y1="244.0" x2="390.9" y2="246.6" stroke="rgb(0,0,0)"  stroke-width="1.0"/>
<line x1="390.9" y1="246.6" x2="408.3" y2="281.9" stroke="rgb(0,0,0)"  stroke-width="1.0"/>
<line x1="408.3" y1="281.9" x2="386.4" y2="314.6" stroke="rgb(0,0,0)"  stroke-width="1.0"/>
<line x1="386.4" y1="314.6" x2="347.1" y2="312.1" stroke="rgb(0,0,0)"  stroke-width="1.0"/>
<line x1="329.7" y1="276.8" x2="351.6" y2="244.0" stroke="rgb(0,0,0)"  stroke-width="1.0"/>
<line x1="338.7" y1="140.7" x2="360.5" y2="108.0" stroke="rgb(0,0,0)"  stroke-width="1.0"/>
<line x1="360.5" y1="108.0" x2="343.1" y2="72.7" stroke="rgb(0,0,0)"  stroke-width="1.0"/>
<line x1="343.1" y1="72.7" x2="303.9" y2="70.1" stroke="rgb(0,0,0)"  stroke-width="1.0"/>
<line x1="303.9" y1="70.1" x2="282.0" y2="102.9" stroke="rgb(0,0,0)"  stroke-width="1.0"/>
<line x1="282.0" y1="102.9" x2="299.4" y2="138.1" stroke="rgb(0,0,0)"  stroke-width="1.0"/>
<line x1="299.4" y1="138.1" x2="338.7" y2="140.7" stroke="rgb(0,0,0)"  stroke-width="1.0"/>
<line x1="322.8" y1="573.9" x2="286.3" y2="559.3" stroke="rgb(0,0,0)"  stroke-width="1.0"/>
<line x1="286.3" y1="559.3" x2="255.4" y2="583.7" stroke="rgb(0,0,0)"  stroke-width="1.0"/>
<line x1="261.0" y1="622.6" x2="297.6" y2="637.2" stroke="rgb(0,0,0)"  stroke-width="1.0"/>
<line x1="297.6" y1="637.2" x2="306.5" y2="604.1" stroke="rgb(0,0,0)"  stroke-width="1.0"/>
<line x1="306.5" y1="604.1" x2="322.8" y2="573.9" stroke="rgb(0,0,0)"  stroke-width="1.0"/>
<line x1="254.4" y1="607.3" x2="248.8" y2="568.4" stroke="rgb(0,0,0)"  stroke-width="1.0"/>
<line x1="248.8" y1="568.4" x2="279.7" y2="544.0" stroke="rgb(0,0,0)"  stroke-width="1.0"/>
<line x1="279.7" y1="544.0" x2="316.2" y2="558.6" stroke="rgb(0,0,0)"  stroke-width="1.0"/>
<line x1="316.2" y1="558.6" x2="321.9" y2="597.5" stroke="rgb(0,0,0)"  stroke-width="1.0"/>
<line x1="321.9" y1="597.5" x2="291.0" y2="621.9" stroke="rgb(0,0,0)"  stroke-width="1.0"/>
<line x1="291.0" y1="621.9" x2="254.4" y2="607.3" stroke="rgb(0,0,0)"  stroke-width="1.0"/>
<text x="209.107199" y="518.696594" fill="rgb(102,102,102)"  stroke="rgb(102,102,102)" stroke-width="1" font-size="16" >H</text>
<text x="221.107199" y="522.376594" fill="rgb(102,102,102)"  stroke="rgb(102,102,102)" stroke-width="1" font-size="13" >3</text>
<text x="227.607199" y="518.696594" fill="rgb(102,102,102)"  stroke="rgb(102,102,102)" stroke-width="1" font-size="16" >C</text>
<text x="308.994580" y="507.415826" fill="rgb(102,102,102)"  stroke="rgb(102,102,102)" stroke-width="1" font-size="16" >CH</text>
<text x="332.994580" y="511.095826" fill="rgb(102,102,102)"  stroke="rgb(102,102,102)" stroke-width="1" font-size="13" >3</text>
<text x="205.858910" y="459.526225" fill="rgb(102,102,102)"  stroke="rgb(102,102,102)" stroke-width="1" font-size="16" >H</text>
<text x="217.858910" y="463.206225" fill="rgb(102,102,102)"  stroke="rgb(102,102,102)" stroke-width="1" font-size="13" >3</text>
<text x="224.358910" y="459.526225" fill="rgb(102,102,102)"  stroke="rgb(102,102,102)" stroke-width="1" font-size="16" >C</text>
<text x="357.127446" y="401.037948" fill="rgb(102,102,102)"  stroke="rgb(102,102,102)" stroke-width="1" font-size="16" >CH</text>
<text x="381.127446" y="404.717948" fill="rgb(102,102,102)"  stroke="rgb(102,102,102)" stroke-width="1" font-size="13" >3</text>
<text x="356.745856" y="356.969020" fill="rgb(102,102,102)"  stroke="rgb(102,102,102)" stroke-width="1" font-size="16" >CH</text>
<text x="380.745856" y="360.649020" fill="rgb(102,102,102)"  stroke="rgb(102,102,102)" stroke-width="1" font-size="13" >3</text>
<text x="358.995819" y="48.000000" fill="rgb(255,12,12)"  stroke="rgb(255,12,12)" stroke-width="1" font-size="16" >OH</text>
<text x="251.530518" y="178.866446" fill="rgb(102,102,102)"  stroke="rgb(102,102,102)" stroke-width="1" font-size="16" >H</text>
<text x="263.530518" y="182.546446" fill="rgb(102,102,102)"  stroke="rgb(102,102,102)" stroke-width="1" font-size="13" >2</text>
<text x="270.030518" y="178.866446" fill="rgb(102,102,102)"  stroke="rgb(102,102,102)" stroke-width="1" font-size="16" >C</text>
<text x="14.000000" y="456.068061" fill="rgb(102,102,102)"  stroke="rgb(102,102,102)" stroke-width="1" font-size="16" >H</text>
<text x="26.000000" y="459.748061" fill="rgb(102,102,102)"  stroke="rgb(102,102,102)" stroke-width="1" font-size="13" >3</text>
<text x="32.500000" y="456.068061" fill="rgb(102,102,102)"  stroke="rgb(102,102,102)" stroke-width="1" font-size="16" >C</text>
<text x="97.135561" y="425.931955" fill="rgb(102,102,102)"  stroke="rgb(102,102,102)" stroke-width="1" font-size="16" >CH</text>
<text x="121.135561" y="429.611955" fill="rgb(102,102,102)"  stroke="rgb(102,102,102)" stroke-width="1" font-size="13" >3</text>
<text x="48.801049" y="526.657525" fill="rgb(102,102,102)"  stroke="rgb(102,102,102)" stroke-width="1" font-size="16" >H</text>
<text x="60.801049" y="530.337525" fill="rgb(102,102,102)"  stroke="rgb(102,102,102)" stroke-width="1" font-size="13" >3</text>
<text x="67.301049" y="526.657525" fill="rgb(102,102,102)"  stroke="rgb(102,102,102)" stroke-width="1" font-size="16" >C</text>
<text x="210.467925" y="501.677660" fill="rgb(102,102,102)"  stroke="rgb(102,102,102)" stroke-width="1" font-size="16" >CH</text>
<text x="234.467925" y="505.357660" fill="rgb(102,102,102)"  stroke="rgb(102,102,102)" stroke-width="1" font-size="13" >3</text>
<text x="213.104359" y="538.219716" fill="rgb(102,102,102)"  stroke="rgb(102,102,102)" stroke-width="1" font-size="16" >H</text>
<text x="225.104359" y="541.899716" fill="rgb(102,102,102)"  stroke="rgb(102,102,102)" stroke-width="1" font-size="13" >3</text>
<text x="231.604359" y="538.219716" fill="rgb(102,102,102)"  stroke="rgb(102,102,102)" stroke-width="1" font-size="16" >C</text>
<text x="205.521159" y="639.665538" fill="rgb(255,12,12)"  stroke="rgb(255,12,12)" stroke-width="1" font-size="16" >HO</text>
<text x="343.146926" y="542.231185" fill="rgb(102,102,102)"  stroke="rgb(102,102,102)" stroke-width="1" font-size="16" >CH</text>
<text x="367.146926" y="545.911185" fill="rgb(102,102,102)"  stroke="rgb(102,102,102)" stroke-width="1" font-size="13" >2</text>
<text font-size="18.000000" fill ="black" font-family="sans-serif"
x="10.000000" y="20.000000" >25 Vitamin D2 (ergocalciferol)</text>
<title>25 Vitamin D2 (ergocalciferol) - OBDepict</title>
</svg>
