<?xml version="1.0"?>
<svg xmlns="http://www.w3.org/2000/svg"
xmlns:xlink="http://www.w3.org/1999/xlink" xmlns:cml="http://www.xml-cml.org/schema" width="245.475" height="240.001" x="0" y="0" font-family="sans-serif" stroke="rgb(0,0,0)" stroke-width="1"  stroke-linecap="round">
<rect x="0%" y="0%" width="100%" height="100%" stroke-width="0" fill="rgb(255,255,255)"  />
<line x1="55.2" y1="62.0" x2="59.5" y2="75.3" stroke="rgb(0,0,0)"  stroke-width="1.0"/>
<line x1="133.2" y1="80.0" x2="133.2" y2="53.0" stroke="rgb(0,0,0)"  stroke-width="1.0"/>
<line x1="139.2" y1="80.0" x2="139.2" y2="53.0" stroke="rgb(0,0,0)"  stroke-width="1.0"/>
<line x1="182.1" y1="93.5" x2="194.2" y2="86.5" stroke="rgb(0,0,0)"  stroke-width="1.0"/>
<line x1="172.3" y1="137.4" x2="195.7" y2="150.9" stroke="rgb(0,0,0)"  stroke-width="1.0"/>
<line x1="169.3" y1="142.6" x2="192.7" y2="156.1" stroke="rgb(0,0,0)"  stroke-width="1.0"/>
<line x1="136.2" y1="173.0" x2="136.2" y2="187.0" stroke="rgb(0,0,0)"  stroke-width="1.0"/>
<line x1="55.9" y1="98.2" x2="40.0" y2="120.0" stroke="rgb(0,0,0)"  stroke-width="1.0"/>
<line x1="40.0" y1="120.0" x2="55.8" y2="141.7" stroke="rgb(0,0,0)"  stroke-width="1.0"/>
<line x1="49.4" y1="120.6" x2="60.4" y2="135.8" stroke="rgb(0,0,0)"  stroke-width="1.0"/>
<line x1="75.9" y1="148.3" x2="101.6" y2="140.0" stroke="rgb(0,0,0)"  stroke-width="1.0"/>
<line x1="101.6" y1="140.0" x2="101.6" y2="100.0" stroke="rgb(0,0,0)"  stroke-width="1.0"/>
<line x1="94.4" y1="134.0" x2="94.4" y2="106.0" stroke="rgb(0,0,0)"  stroke-width="1.0"/>
<line x1="101.6" y1="100.0" x2="75.9" y2="91.7" stroke="rgb(0,0,0)"  stroke-width="1.0"/>
<line x1="170.8" y1="140.0" x2="170.8" y2="113.0" stroke="rgb(0,0,0)"  stroke-width="1.0"/>
<line x1="159.6" y1="93.5" x2="136.2" y2="80.0" stroke="rgb(0,0,0)"  stroke-width="1.0"/>
<line x1="136.2" y1="80.0" x2="101.6" y2="100.0" stroke="rgb(0,0,0)"  stroke-width="1.0"/>
<line x1="101.6" y1="140.0" x2="124.9" y2="153.5" stroke="rgb(0,0,0)"  stroke-width="1.0"/>
<line x1="147.5" y1="153.5" x2="170.8" y2="140.0" stroke="rgb(0,0,0)"  stroke-width="1.0"/>
<text x="25.151604" y="57.600076" fill="rgb(102,102,102)"  stroke="rgb(102,102,102)" stroke-width="1" font-size="16" >H</text>
<text x="37.151604" y="61.280076" fill="rgb(102,102,102)"  stroke="rgb(102,102,102)" stroke-width="1" font-size="13" >3</text>
<text x="43.651604" y="57.600076" fill="rgb(102,102,102)"  stroke="rgb(102,102,102)" stroke-width="1" font-size="16" >C</text>
<text x="57.510490" y="95.641591" fill="rgb(12,12,255)"  stroke="rgb(12,12,255)" stroke-width="1" font-size="16" >N</text>
<text x="57.510490" y="160.364529" fill="rgb(12,12,255)"  stroke="rgb(12,12,255)" stroke-width="1" font-size="16" >N</text>
<text x="130.194704" y="48.000000" fill="rgb(255,12,12)"  stroke="rgb(255,12,12)" stroke-width="1" font-size="16" >O</text>
<text x="164.837403" y="108.000477" fill="rgb(12,12,255)"  stroke="rgb(12,12,255)" stroke-width="1" font-size="16" >N</text>
<text x="201.475254" y="88.000318" fill="rgb(102,102,102)"  stroke="rgb(102,102,102)" stroke-width="1" font-size="16" >CH</text>
<text x="225.475254" y="91.680318" fill="rgb(102,102,102)"  stroke="rgb(102,102,102)" stroke-width="1" font-size="13" >3</text>
<text x="199.475254" y="168.000954" fill="rgb(255,12,12)"  stroke="rgb(255,12,12)" stroke-width="1" font-size="16" >O</text>
<text x="130.194704" y="168.000954" fill="rgb(12,12,255)"  stroke="rgb(12,12,255)" stroke-width="1" font-size="16" >N</text>
<text x="132.194704" y="208.001272" fill="rgb(102,102,102)"  stroke="rgb(102,102,102)" stroke-width="1" font-size="16" >CH</text>
<text x="156.194704" y="211.681272" fill="rgb(102,102,102)"  stroke="rgb(102,102,102)" stroke-width="1" font-size="13" >3</text>
<text font-size="18.000000" fill ="black" font-family="sans-serif"
x="10.000000" y="20.000000" >Caffeine</text>
<title>Caffeine - OBDepict</title>
</svg>
