<?xml version="1.0"?>
<svg xmlns="http://www.w3.org/2000/svg"
xmlns:xlink="http://www.w3.org/1999/xlink" xmlns:cml="http://www.xml-cml.org/schema" width="308.096" height="420.58" x="0" y="0" font-family="sans-serif" stroke="rgb(0,0,0)" stroke-width="1"  stroke-linecap="round">
<rect x="0%" y="0%" width="100%" height="100%" stroke-width="0" fill="rgb(255,255,255)"  />
<line x1="255.1" y1="276.7" x2="228.1" y2="276.7" stroke="rgb(0,0,0)"  stroke-width="1.0"/>
<polygon points="208.096010 311.295421 224.631881 274.657894 231.559912 278.658192 " stroke-width="1.000000" fill="rgb(0,0,0)"  stroke="rgb(0,0,0)" />
<line x1="208.1" y1="311.3" x2="168.1" y2="311.3" stroke="rgb(0,0,0)"  stroke-width="1.0"/>
<line x1="168.1" y1="311.3" x2="148.1" y2="345.9" stroke="rgb(0,0,0)"  stroke-width="1.0"/>
<polygon points="108.096581 345.937648 148.096353 341.937648 148.096353 349.937648 " stroke-width="1.000000" fill="rgb(0,0,0)"  stroke="rgb(0,0,0)" />
<line x1="108.1" y1="345.9" x2="94.6" y2="369.3" stroke="rgb(0,0,0)"  stroke-width="1.0"/>
<line x1="88.1" y1="311.3" x2="108.1" y2="345.9" stroke="rgb(0,0,0)"  stroke-width="1.0"/>
<polygon points="88.096695 311.295421 47.897173 311.094158 48.733036 303.137945 " stroke-width="1.000000" fill="rgb(0,0,0)"  stroke="rgb(0,0,0)" />
<polygon points="74.642227 247.989116 41.999939 271.453139 38.000061 264.524865 " stroke-width="1.000000" fill="rgb(0,0,0)"  stroke="rgb(0,0,0)" />
<line x1="76.5" y1="204.1" x2="77.5" y2="202.9" stroke="rgb(0,0,0)"  stroke-width="1.0"/>
<line x1="71.3" y1="200.3" x2="73.2" y2="198.2" stroke="rgb(0,0,0)"  stroke-width="1.0"/>
<line x1="66.1" y1="196.5" x2="68.9" y2="193.4" stroke="rgb(0,0,0)"  stroke-width="1.0"/>
<line x1="60.9" y1="192.7" x2="64.6" y2="188.6" stroke="rgb(0,0,0)"  stroke-width="1.0"/>
<line x1="55.7" y1="188.9" x2="60.2" y2="183.9" stroke="rgb(0,0,0)"  stroke-width="1.0"/>
<line x1="50.6" y1="185.1" x2="55.9" y2="179.1" stroke="rgb(0,0,0)"  stroke-width="1.0"/>
<polygon points="145.948486 79.127049 147.606983 52.080433 155.432229 53.743419 " stroke-width="1.000000" fill="rgb(0,0,0)"  stroke="rgb(0,0,0)" />
<polygon points="129.318278 157.376300 151.911314 172.338653 146.557936 178.283512 " stroke-width="1.000000" fill="rgb(0,0,0)"  stroke="rgb(0,0,0)" />
<polygon points="120.998326 196.503349 153.400638 220.294163 148.047795 226.239503 " stroke-width="1.000000" fill="rgb(0,0,0)"  stroke="rgb(0,0,0)" />
<polygon points="104.368118 274.757448 125.272322 291.997374 119.326981 297.350217 " stroke-width="1.000000" fill="rgb(0,0,0)"  stroke="rgb(0,0,0)" />
<line x1="208.1" y1="311.3" x2="228.1" y2="345.9" stroke="rgb(0,0,0)"  stroke-width="1.0"/>
<line x1="228.1" y1="345.9" x2="255.1" y2="345.9" stroke="rgb(0,0,0)"  stroke-width="1.0"/>
<line x1="228.1" y1="345.9" x2="214.6" y2="369.3" stroke="rgb(0,0,0)"  stroke-width="1.0"/>
<line x1="88.1" y1="311.3" x2="104.4" y2="274.8" stroke="rgb(0,0,0)"  stroke-width="1.0"/>
<line x1="104.4" y1="274.8" x2="74.6" y2="248.0" stroke="rgb(0,0,0)"  stroke-width="1.0"/>
<line x1="74.6" y1="248.0" x2="40.0" y2="268.0" stroke="rgb(0,0,0)"  stroke-width="1.0"/>
<line x1="40.0" y1="268.0" x2="48.3" y2="307.1" stroke="rgb(0,0,0)"  stroke-width="1.0"/>
<line x1="48.3" y1="307.1" x2="88.1" y2="311.3" stroke="rgb(0,0,0)"  stroke-width="1.0"/>
<line x1="83.0" y1="208.9" x2="74.6" y2="248.0" stroke="rgb(0,0,0)"  stroke-width="1.0"/>
<line x1="104.4" y1="274.8" x2="142.4" y2="262.4" stroke="rgb(0,0,0)"  stroke-width="1.0"/>
<line x1="142.4" y1="262.4" x2="150.7" y2="223.3" stroke="rgb(0,0,0)"  stroke-width="1.0"/>
<line x1="150.7" y1="223.3" x2="121.0" y2="196.5" stroke="rgb(0,0,0)"  stroke-width="1.0"/>
<line x1="121.0" y1="196.5" x2="83.0" y2="208.9" stroke="rgb(0,0,0)"  stroke-width="1.0"/>
<line x1="99.6" y1="130.6" x2="61.5" y2="143.0" stroke="rgb(0,0,0)"  stroke-width="1.0"/>
<line x1="96.1" y1="139.3" x2="69.5" y2="148.0" stroke="rgb(0,0,0)"  stroke-width="1.0"/>
<line x1="61.5" y1="143.0" x2="53.2" y2="182.1" stroke="rgb(0,0,0)"  stroke-width="1.0"/>
<line x1="53.2" y1="182.1" x2="83.0" y2="208.9" stroke="rgb(0,0,0)"  stroke-width="1.0"/>
<line x1="121.0" y1="196.5" x2="129.3" y2="157.4" stroke="rgb(0,0,0)"  stroke-width="1.0"/>
<line x1="129.3" y1="157.4" x2="99.6" y2="130.6" stroke="rgb(0,0,0)"  stroke-width="1.0"/>
<line x1="107.9" y1="91.5" x2="145.9" y2="79.1" stroke="rgb(0,0,0)"  stroke-width="1.0"/>
<line x1="145.9" y1="79.1" x2="175.7" y2="105.9" stroke="rgb(0,0,0)"  stroke-width="1.0"/>
<line x1="175.7" y1="105.9" x2="167.4" y2="145.0" stroke="rgb(0,0,0)"  stroke-width="1.0"/>
<line x1="167.4" y1="145.0" x2="129.3" y2="157.4" stroke="rgb(0,0,0)"  stroke-width="1.0"/>
<line x1="99.6" y1="130.6" x2="107.9" y2="91.5" stroke="rgb(0,0,0)"  stroke-width="1.0"/>
<text x="264.095668" y="284.658043" fill="rgb(102,102,102)"  stroke="rgb(102,102,102)" stroke-width="1" font-size="16" >CH</text>
<text x="288.095668" y="288.338043" fill="rgb(102,102,102)"  stroke="rgb(102,102,102)" stroke-width="1" font-size="13" >3</text>
<text x="62.096695" y="388.579875" fill="rgb(102,102,102)"  stroke="rgb(102,102,102)" stroke-width="1" font-size="16" >H</text>
<text x="74.096695" y="392.259875" fill="rgb(102,102,102)"  stroke="rgb(102,102,102)" stroke-width="1" font-size="13" >3</text>
<text x="80.596695" y="388.579875" fill="rgb(102,102,102)"  stroke="rgb(102,102,102)" stroke-width="1" font-size="16" >C</text>
<text x="148.263590" y="48.000000" fill="rgb(255,12,12)"  stroke="rgb(255,12,12)" stroke-width="1" font-size="16" >OH</text>
<text x="155.044169" y="192.144632" fill="rgb(102,102,102)"  stroke="rgb(102,102,102)" stroke-width="1" font-size="16" >CH</text>
<text x="179.044169" y="195.824632" fill="rgb(102,102,102)"  stroke="rgb(102,102,102)" stroke-width="1" font-size="13" >3</text>
<text x="127.131601" y="312.483339" fill="rgb(102,102,102)"  stroke="rgb(102,102,102)" stroke-width="1" font-size="16" >CH</text>
<text x="151.131601" y="316.163339" fill="rgb(102,102,102)"  stroke="rgb(102,102,102)" stroke-width="1" font-size="13" >3</text>
<text x="264.095668" y="353.937648" fill="rgb(102,102,102)"  stroke="rgb(102,102,102)" stroke-width="1" font-size="16" >CH</text>
<text x="288.095668" y="357.617648" fill="rgb(102,102,102)"  stroke="rgb(102,102,102)" stroke-width="1" font-size="13" >3</text>
<text x="182.096010" y="388.579875" fill="rgb(102,102,102)"  stroke="rgb(102,102,102)" stroke-width="1" font-size="16" >H</text>
<text x="194.096010" y="392.259875" fill="rgb(102,102,102)"  stroke="rgb(102,102,102)" stroke-width="1" font-size="13" >3</text>
<text x="200.596010" y="388.579875" fill="rgb(102,102,102)"  stroke="rgb(102,102,102)" stroke-width="1" font-size="16" >C</text>
<text font-size="18.000000" fill ="black" font-family="sans-serif"
x="10.000000" y="20.000000" >?-sitosterol</text>
<title>?-sitosterol - OBDepict</title>
</svg>
