<?xml version="1.0"?>
<svg xmlns="http://www.w3.org/2000/svg"
xmlns:xlink="http://www.w3.org/1999/xlink" xmlns:cml="http://www.xml-cml.org/schema" width="250.911" height="392.352" x="0" y="0" font-family="sans-serif" stroke="rgb(0,0,0)" stroke-width="1"  stroke-linecap="round">
<rect x="0%" y="0%" width="100%" height="100%" stroke-width="0" fill="rgb(255,255,255)"  />
<line x1="167.2" y1="340.5" x2="178.2" y2="315.8" stroke="rgb(0,0,0)"  stroke-width="1.0"/>
<line x1="160.1" y1="289.5" x2="158.8" y2="290.4" stroke="rgb(0,0,0)"  stroke-width="1.0"/>
<line x1="164.3" y1="294.3" x2="162.0" y2="295.9" stroke="rgb(0,0,0)"  stroke-width="1.0"/>
<line x1="168.6" y1="299.1" x2="165.2" y2="301.5" stroke="rgb(0,0,0)"  stroke-width="1.0"/>
<line x1="172.9" y1="303.9" x2="168.5" y2="307.1" stroke="rgb(0,0,0)"  stroke-width="1.0"/>
<line x1="177.2" y1="308.7" x2="171.7" y2="312.6" stroke="rgb(0,0,0)"  stroke-width="1.0"/>
<line x1="181.4" y1="313.5" x2="175.0" y2="318.2" stroke="rgb(0,0,0)"  stroke-width="1.0"/>
<polygon points="134.701391 221.897265 158.492579 189.494537 164.437919 194.847380 " stroke-width="1.000000" fill="rgb(0,0,0)"  stroke="rgb(0,0,0)" />
<line x1="161.5" y1="192.2" x2="187.9" y2="197.8" stroke="rgb(0,0,0)"  stroke-width="1.0"/>
<line x1="134.7" y1="221.9" x2="116.6" y2="201.8" stroke="rgb(0,0,0)"  stroke-width="1.0"/>
<polygon points="120.296423 154.124582 115.820284 180.851439 108.211649 178.379869 " stroke-width="1.000000" fill="rgb(0,0,0)"  stroke="rgb(0,0,0)" />
<line x1="99.9" y1="80.9" x2="101.1" y2="79.9" stroke="rgb(0,0,0)"  stroke-width="1.0"/>
<line x1="95.2" y1="76.6" x2="97.3" y2="74.7" stroke="rgb(0,0,0)"  stroke-width="1.0"/>
<line x1="90.4" y1="72.3" x2="93.5" y2="69.5" stroke="rgb(0,0,0)"  stroke-width="1.0"/>
<line x1="85.7" y1="68.0" x2="89.7" y2="64.3" stroke="rgb(0,0,0)"  stroke-width="1.0"/>
<line x1="80.9" y1="63.6" x2="85.9" y2="59.1" stroke="rgb(0,0,0)"  stroke-width="1.0"/>
<line x1="76.2" y1="59.3" x2="82.1" y2="54.0" stroke="rgb(0,0,0)"  stroke-width="1.0"/>
<line x1="79.1" y1="56.6" x2="52.7" y2="62.2" stroke="rgb(0,0,0)"  stroke-width="1.0"/>
<polygon points="145.019052 78.041527 149.495237 51.317776 157.103780 53.789632 " stroke-width="1.000000" fill="rgb(0,0,0)"  stroke="rgb(0,0,0)" />
<line x1="176.9" y1="105.9" x2="177.2" y2="107.4" stroke="rgb(0,0,0)"  stroke-width="1.0"/>
<line x1="180.9" y1="104.4" x2="181.5" y2="107.2" stroke="rgb(0,0,0)"  stroke-width="1.0"/>
<line x1="185.0" y1="102.8" x2="185.8" y2="106.9" stroke="rgb(0,0,0)"  stroke-width="1.0"/>
<line x1="189.0" y1="101.3" x2="190.2" y2="106.6" stroke="rgb(0,0,0)"  stroke-width="1.0"/>
<line x1="193.1" y1="99.8" x2="194.5" y2="106.4" stroke="rgb(0,0,0)"  stroke-width="1.0"/>
<line x1="197.2" y1="98.3" x2="198.8" y2="106.1" stroke="rgb(0,0,0)"  stroke-width="1.0"/>
<polygon points="159.424020 145.809362 180.328475 163.049566 174.383135 168.402409 " stroke-width="1.000000" fill="rgb(0,0,0)"  stroke="rgb(0,0,0)" />
<line x1="97.0" y1="244.5" x2="97.5" y2="243.0" stroke="rgb(0,0,0)"  stroke-width="1.0"/>
<line x1="92.7" y1="243.8" x2="93.6" y2="241.1" stroke="rgb(0,0,0)"  stroke-width="1.0"/>
<line x1="88.4" y1="243.1" x2="89.7" y2="239.1" stroke="rgb(0,0,0)"  stroke-width="1.0"/>
<line x1="84.2" y1="242.4" x2="85.8" y2="237.2" stroke="rgb(0,0,0)"  stroke-width="1.0"/>
<line x1="79.9" y1="241.6" x2="82.0" y2="235.3" stroke="rgb(0,0,0)"  stroke-width="1.0"/>
<line x1="75.6" y1="240.9" x2="78.1" y2="233.3" stroke="rgb(0,0,0)"  stroke-width="1.0"/>
<polygon points="114.701225 283.449290 102.185247 307.481016 95.713136 302.778699 " stroke-width="1.000000" fill="rgb(0,0,0)"  stroke="rgb(0,0,0)" />
<line x1="154.7" y1="283.4" x2="163.0" y2="257.8" stroke="rgb(0,0,0)"  stroke-width="1.0"/>
<line x1="156.5" y1="237.8" x2="134.7" y2="221.9" stroke="rgb(0,0,0)"  stroke-width="1.0"/>
<line x1="134.7" y1="221.9" x2="102.3" y2="245.4" stroke="rgb(0,0,0)"  stroke-width="1.0"/>
<line x1="102.3" y1="245.4" x2="114.7" y2="283.4" stroke="rgb(0,0,0)"  stroke-width="1.0"/>
<line x1="114.7" y1="283.4" x2="154.7" y2="283.4" stroke="rgb(0,0,0)"  stroke-width="1.0"/>
<line x1="120.3" y1="154.1" x2="102.2" y2="134.1" stroke="rgb(0,0,0)"  stroke-width="1.0"/>
<line x1="97.5" y1="112.0" x2="105.9" y2="86.4" stroke="rgb(0,0,0)"  stroke-width="1.0"/>
<line x1="105.9" y1="86.4" x2="145.0" y2="78.0" stroke="rgb(0,0,0)"  stroke-width="1.0"/>
<line x1="145.0" y1="78.0" x2="171.8" y2="107.8" stroke="rgb(0,0,0)"  stroke-width="1.0"/>
<line x1="171.8" y1="107.8" x2="159.4" y2="145.8" stroke="rgb(0,0,0)"  stroke-width="1.0"/>
<line x1="159.4" y1="145.8" x2="120.3" y2="154.1" stroke="rgb(0,0,0)"  stroke-width="1.0"/>
<text x="143.945253" y="360.351680" fill="rgb(255,12,12)"  stroke="rgb(255,12,12)" stroke-width="1" font-size="16" >HO</text>
<text x="161.060447" y="253.407763" fill="rgb(255,12,12)"  stroke="rgb(255,12,12)" stroke-width="1" font-size="16" >O</text>
<text x="194.592846" y="208.486179" fill="rgb(255,12,12)"  stroke="rgb(255,12,12)" stroke-width="1" font-size="16" >OH</text>
<text x="101.937533" y="200.170958" fill="rgb(255,12,12)"  stroke="rgb(255,12,12)" stroke-width="1" font-size="16" >O</text>
<text x="87.532565" y="132.398275" fill="rgb(255,12,12)"  stroke="rgb(255,12,12)" stroke-width="1" font-size="16" >O</text>
<text x="22.000000" y="72.950510" fill="rgb(255,12,12)"  stroke="rgb(255,12,12)" stroke-width="1" font-size="16" >HO</text>
<text x="151.377942" y="48.000000" fill="rgb(255,12,12)"  stroke="rgb(255,12,12)" stroke-width="1" font-size="16" >OH</text>
<text x="204.910507" y="107.452614" fill="rgb(255,12,12)"  stroke="rgb(255,12,12)" stroke-width="1" font-size="16" >OH</text>
<text x="180.187878" y="183.535669" fill="rgb(255,12,12)"  stroke="rgb(255,12,12)" stroke-width="1" font-size="16" >OH</text>
<text x="46.295959" y="241.044024" fill="rgb(255,12,12)"  stroke="rgb(255,12,12)" stroke-width="1" font-size="16" >HO</text>
<text x="73.190727" y="323.808346" fill="rgb(255,12,12)"  stroke="rgb(255,12,12)" stroke-width="1" font-size="16" >HO</text>
<text font-size="18.000000" fill ="black" font-family="sans-serif"
x="10.000000" y="20.000000" >sucrose</text>
<title>sucrose - OBDepict</title>
</svg>
