<?xml version="1.0"?>
<svg xmlns="http://www.w3.org/2000/svg"
xmlns:xlink="http://www.w3.org/1999/xlink" xmlns:cml="http://www.xml-cml.org/schema" width="287.848" height="179.999" x="0" y="0" font-family="sans-serif" stroke="rgb(0,0,0)" stroke-width="1"  stroke-linecap="round">
<rect x="0%" y="0%" width="100%" height="100%" stroke-width="0" fill="rgb(255,255,255)"  />
<line x1="177.8" y1="74.6" x2="179.4" y2="74.6" stroke="rgb(0,0,0)"  stroke-width="1.0"/>
<line x1="177.1" y1="70.4" x2="180.0" y2="70.4" stroke="rgb(0,0,0)"  stroke-width="1.0"/>
<line x1="176.5" y1="66.1" x2="180.6" y2="66.1" stroke="rgb(0,0,0)"  stroke-width="1.0"/>
<line x1="175.8" y1="61.8" x2="181.3" y2="61.8" stroke="rgb(0,0,0)"  stroke-width="1.0"/>
<line x1="175.2" y1="57.5" x2="181.9" y2="57.5" stroke="rgb(0,0,0)"  stroke-width="1.0"/>
<line x1="174.6" y1="53.2" x2="182.6" y2="53.2" stroke="rgb(0,0,0)"  stroke-width="1.0"/>
<line x1="178.6" y1="80.0" x2="143.9" y2="100.0" stroke="rgb(0,0,0)"  stroke-width="1.0"/>
<line x1="143.9" y1="100.0" x2="109.3" y2="80.0" stroke="rgb(0,0,0)"  stroke-width="1.0"/>
<line x1="109.3" y1="80.0" x2="74.6" y2="100.0" stroke="rgb(0,0,0)"  stroke-width="1.0"/>
<line x1="74.6" y1="100.0" x2="51.3" y2="86.5" stroke="rgb(0,0,0)"  stroke-width="1.0"/>
<line x1="77.6" y1="100.0" x2="77.6" y2="127.0" stroke="rgb(0,0,0)"  stroke-width="1.0"/>
<line x1="71.6" y1="100.0" x2="71.6" y2="127.0" stroke="rgb(0,0,0)"  stroke-width="1.0"/>
<line x1="178.6" y1="80.0" x2="213.2" y2="100.0" stroke="rgb(0,0,0)"  stroke-width="1.0"/>
<line x1="213.2" y1="100.0" x2="236.6" y2="86.5" stroke="rgb(0,0,0)"  stroke-width="1.0"/>
<line x1="216.2" y1="100.0" x2="216.2" y2="127.0" stroke="rgb(0,0,0)"  stroke-width="1.0"/>
<line x1="210.2" y1="100.0" x2="210.2" y2="127.0" stroke="rgb(0,0,0)"  stroke-width="1.0"/>
<text x="174.563648" y="48.000000" fill="rgb(12,12,255)"  stroke="rgb(12,12,255)" stroke-width="1" font-size="16" >NH</text>
<text x="198.563648" y="51.680000" fill="rgb(12,12,255)"  stroke="rgb(12,12,255)" stroke-width="1" font-size="13" >2</text>
<text x="22.000000" y="87.999654" fill="rgb(255,12,12)"  stroke="rgb(255,12,12)" stroke-width="1" font-size="16" >HO</text>
<text x="68.642124" y="147.999134" fill="rgb(255,12,12)"  stroke="rgb(255,12,12)" stroke-width="1" font-size="16" >O</text>
<text x="241.847897" y="87.999654" fill="rgb(255,12,12)"  stroke="rgb(255,12,12)" stroke-width="1" font-size="16" >OH</text>
<text x="207.205773" y="147.999134" fill="rgb(255,12,12)"  stroke="rgb(255,12,12)" stroke-width="1" font-size="16" >O</text>
<text font-size="18.000000" fill ="black" font-family="sans-serif"
x="10.000000" y="20.000000" >Glutamic acid</text>
<title>Glutamic acid - OBDepict</title>
</svg>
