<?xml version="1.0"?>
<svg xmlns="http://www.w3.org/2000/svg"
xmlns:xlink="http://www.w3.org/1999/xlink" xmlns:cml="http://www.xml-cml.org/schema" width="253.204" height="180.001" x="0" y="0" font-family="sans-serif" stroke="rgb(0,0,0)" stroke-width="1"  stroke-linecap="round">
<rect x="0%" y="0%" width="100%" height="100%" stroke-width="0" fill="rgb(255,255,255)"  />
<line x1="51.3" y1="93.5" x2="74.6" y2="80.0" stroke="rgb(0,0,0)"  stroke-width="1.0"/>
<polygon points="109.280498 100.000431 72.637886 83.464424 76.637764 76.536151 " stroke-width="1.000000" fill="rgb(0,0,0)"  stroke="rgb(0,0,0)" />
<line x1="109.3" y1="100.0" x2="109.3" y2="127.0" stroke="rgb(0,0,0)"  stroke-width="1.0"/>
<line x1="109.3" y1="100.0" x2="143.9" y2="80.0" stroke="rgb(0,0,0)"  stroke-width="1.0"/>
<line x1="143.1" y1="74.6" x2="144.7" y2="74.6" stroke="rgb(0,0,0)"  stroke-width="1.0"/>
<line x1="142.5" y1="70.4" x2="145.4" y2="70.4" stroke="rgb(0,0,0)"  stroke-width="1.0"/>
<line x1="141.8" y1="66.1" x2="146.0" y2="66.1" stroke="rgb(0,0,0)"  stroke-width="1.0"/>
<line x1="141.2" y1="61.8" x2="146.6" y2="61.8" stroke="rgb(0,0,0)"  stroke-width="1.0"/>
<line x1="140.6" y1="57.5" x2="147.3" y2="57.5" stroke="rgb(0,0,0)"  stroke-width="1.0"/>
<line x1="139.9" y1="53.2" x2="147.9" y2="53.2" stroke="rgb(0,0,0)"  stroke-width="1.0"/>
<line x1="143.9" y1="80.0" x2="178.6" y2="100.0" stroke="rgb(0,0,0)"  stroke-width="1.0"/>
<line x1="178.6" y1="100.0" x2="201.9" y2="86.5" stroke="rgb(0,0,0)"  stroke-width="1.0"/>
<line x1="181.6" y1="100.0" x2="181.6" y2="127.0" stroke="rgb(0,0,0)"  stroke-width="1.0"/>
<line x1="175.6" y1="100.0" x2="175.6" y2="127.0" stroke="rgb(0,0,0)"  stroke-width="1.0"/>
<text x="14.000000" y="108.000431" fill="rgb(102,102,102)"  stroke="rgb(102,102,102)" stroke-width="1" font-size="16" >H</text>
<text x="26.000000" y="111.680431" fill="rgb(102,102,102)"  stroke="rgb(102,102,102)" stroke-width="1" font-size="13" >3</text>
<text x="32.500000" y="108.000431" fill="rgb(102,102,102)"  stroke="rgb(102,102,102)" stroke-width="1" font-size="16" >C</text>
<text x="105.280498" y="148.000719" fill="rgb(102,102,102)"  stroke="rgb(102,102,102)" stroke-width="1" font-size="16" >CH</text>
<text x="129.280498" y="151.680719" fill="rgb(102,102,102)"  stroke="rgb(102,102,102)" stroke-width="1" font-size="13" >3</text>
<text x="139.923171" y="48.000000" fill="rgb(12,12,255)"  stroke="rgb(12,12,255)" stroke-width="1" font-size="16" >NH</text>
<text x="163.923171" y="51.680000" fill="rgb(12,12,255)"  stroke="rgb(12,12,255)" stroke-width="1" font-size="13" >2</text>
<text x="207.203669" y="88.000288" fill="rgb(255,12,12)"  stroke="rgb(255,12,12)" stroke-width="1" font-size="16" >OH</text>
<text x="172.560996" y="148.000719" fill="rgb(255,12,12)"  stroke="rgb(255,12,12)" stroke-width="1" font-size="16" >O</text>
<text font-size="18.000000" fill ="black" font-family="sans-serif"
x="10.000000" y="20.000000" >isoleucine</text>
<title>isoleucine - OBDepict</title>
</svg>
