<?xml version="1.0"?>
<svg xmlns="http://www.w3.org/2000/svg"
xmlns:xlink="http://www.w3.org/1999/xlink" xmlns:cml="http://www.xml-cml.org/schema" width="559.142" height="215.675" x="0" y="0" font-family="sans-serif" stroke="rgb(0,0,0)" stroke-width="1"  stroke-linecap="round">
<rect x="0%" y="0%" width="100%" height="100%" stroke-width="0" fill="rgb(255,255,255)"  />
<line x1="51.3" y1="94.6" x2="74.6" y2="108.1" stroke="rgb(0,0,0)"  stroke-width="1.0"/>
<line x1="74.6" y1="108.1" x2="74.6" y2="135.1" stroke="rgb(0,0,0)"  stroke-width="1.0"/>
<line x1="74.6" y1="108.1" x2="109.3" y2="88.1" stroke="rgb(0,0,0)"  stroke-width="1.0"/>
<line x1="109.3" y1="88.1" x2="143.9" y2="108.1" stroke="rgb(0,0,0)"  stroke-width="1.0"/>
<line x1="143.9" y1="108.1" x2="178.6" y2="88.1" stroke="rgb(0,0,0)"  stroke-width="1.0"/>
<line x1="205.9" y1="104.8" x2="206.7" y2="103.4" stroke="rgb(0,0,0)"  stroke-width="1.0"/>
<line x1="200.0" y1="102.1" x2="201.5" y2="99.6" stroke="rgb(0,0,0)"  stroke-width="1.0"/>
<line x1="194.1" y1="99.5" x2="196.2" y2="95.9" stroke="rgb(0,0,0)"  stroke-width="1.0"/>
<line x1="188.3" y1="96.9" x2="191.0" y2="92.1" stroke="rgb(0,0,0)"  stroke-width="1.0"/>
<line x1="182.4" y1="94.2" x2="185.8" y2="88.4" stroke="rgb(0,0,0)"  stroke-width="1.0"/>
<line x1="176.6" y1="91.6" x2="180.6" y2="84.6" stroke="rgb(0,0,0)"  stroke-width="1.0"/>
<line x1="213.2" y1="108.1" x2="213.2" y2="135.1" stroke="rgb(0,0,0)"  stroke-width="1.0"/>
<line x1="247.8" y1="88.1" x2="213.2" y2="108.1" stroke="rgb(0,0,0)"  stroke-width="1.0"/>
<polygon points="247.844873 88.096975 248.046166 47.902019 256.002368 48.737983 " stroke-width="1.000000" fill="rgb(0,0,0)"  stroke="rgb(0,0,0)" />
<polygon points="311.151547 74.642428 287.687407 41.999939 294.615681 38.000061 " stroke-width="1.000000" fill="rgb(0,0,0)"  stroke="rgb(0,0,0)" />
<line x1="355.0" y1="76.5" x2="356.2" y2="77.5" stroke="rgb(0,0,0)"  stroke-width="1.0"/>
<line x1="358.8" y1="71.3" x2="361.0" y2="73.2" stroke="rgb(0,0,0)"  stroke-width="1.0"/>
<line x1="362.7" y1="66.1" x2="365.7" y2="68.9" stroke="rgb(0,0,0)"  stroke-width="1.0"/>
<line x1="366.5" y1="60.9" x2="370.5" y2="64.6" stroke="rgb(0,0,0)"  stroke-width="1.0"/>
<line x1="370.3" y1="55.7" x2="375.3" y2="60.2" stroke="rgb(0,0,0)"  stroke-width="1.0"/>
<line x1="374.1" y1="50.6" x2="380.0" y2="55.9" stroke="rgb(0,0,0)"  stroke-width="1.0"/>
<polygon points="480.014597 145.949103 507.061829 147.610979 505.397915 155.436028 " stroke-width="1.000000" fill="rgb(0,0,0)"  stroke="rgb(0,0,0)" />
<polygon points="401.764890 129.318798 386.802433 151.911950 380.857574 146.558572 " stroke-width="1.000000" fill="rgb(0,0,0)"  stroke="rgb(0,0,0)" />
<polygon points="362.637613 121.003646 338.846427 153.401524 332.901521 148.048199 " stroke-width="1.000000" fill="rgb(0,0,0)"  stroke="rgb(0,0,0)" />
<polygon points="284.387907 104.368492 267.147866 125.272801 261.795023 119.327461 " stroke-width="1.000000" fill="rgb(0,0,0)"  stroke="rgb(0,0,0)" />
<line x1="247.8" y1="88.1" x2="284.4" y2="104.4" stroke="rgb(0,0,0)"  stroke-width="1.0"/>
<line x1="284.4" y1="104.4" x2="311.2" y2="74.6" stroke="rgb(0,0,0)"  stroke-width="1.0"/>
<line x1="311.2" y1="74.6" x2="291.2" y2="40.0" stroke="rgb(0,0,0)"  stroke-width="1.0"/>
<line x1="291.2" y1="40.0" x2="252.0" y2="48.3" stroke="rgb(0,0,0)"  stroke-width="1.0"/>
<line x1="252.0" y1="48.3" x2="247.8" y2="88.1" stroke="rgb(0,0,0)"  stroke-width="1.0"/>
<line x1="350.3" y1="83.0" x2="311.2" y2="74.6" stroke="rgb(0,0,0)"  stroke-width="1.0"/>
<line x1="284.4" y1="104.4" x2="296.7" y2="142.4" stroke="rgb(0,0,0)"  stroke-width="1.0"/>
<line x1="296.7" y1="142.4" x2="335.9" y2="150.7" stroke="rgb(0,0,0)"  stroke-width="1.0"/>
<line x1="335.9" y1="150.7" x2="362.6" y2="121.0" stroke="rgb(0,0,0)"  stroke-width="1.0"/>
<line x1="362.6" y1="121.0" x2="350.3" y2="83.0" stroke="rgb(0,0,0)"  stroke-width="1.0"/>
<line x1="428.5" y1="99.6" x2="416.2" y2="61.6" stroke="rgb(0,0,0)"  stroke-width="1.0"/>
<line x1="419.8" y1="96.1" x2="411.2" y2="69.5" stroke="rgb(0,0,0)"  stroke-width="1.0"/>
<line x1="416.2" y1="61.6" x2="377.0" y2="53.2" stroke="rgb(0,0,0)"  stroke-width="1.0"/>
<line x1="377.0" y1="53.2" x2="350.3" y2="83.0" stroke="rgb(0,0,0)"  stroke-width="1.0"/>
<line x1="362.6" y1="121.0" x2="401.8" y2="129.3" stroke="rgb(0,0,0)"  stroke-width="1.0"/>
<line x1="401.8" y1="129.3" x2="428.5" y2="99.6" stroke="rgb(0,0,0)"  stroke-width="1.0"/>
<line x1="467.7" y1="107.9" x2="480.0" y2="145.9" stroke="rgb(0,0,0)"  stroke-width="1.0"/>
<line x1="480.0" y1="145.9" x2="453.3" y2="175.7" stroke="rgb(0,0,0)"  stroke-width="1.0"/>
<line x1="453.3" y1="175.7" x2="414.1" y2="167.4" stroke="rgb(0,0,0)"  stroke-width="1.0"/>
<line x1="414.1" y1="167.4" x2="401.8" y2="129.3" stroke="rgb(0,0,0)"  stroke-width="1.0"/>
<line x1="428.5" y1="99.6" x2="467.7" y2="107.9" stroke="rgb(0,0,0)"  stroke-width="1.0"/>
<text x="14.000000" y="96.096975" fill="rgb(102,102,102)"  stroke="rgb(102,102,102)" stroke-width="1" font-size="16" >H</text>
<text x="26.000000" y="99.776975" fill="rgb(102,102,102)"  stroke="rgb(102,102,102)" stroke-width="1" font-size="13" >3</text>
<text x="32.500000" y="96.096975" fill="rgb(102,102,102)"  stroke="rgb(102,102,102)" stroke-width="1" font-size="16" >C</text>
<text x="70.637580" y="156.096982" fill="rgb(102,102,102)"  stroke="rgb(102,102,102)" stroke-width="1" font-size="16" >CH</text>
<text x="94.637580" y="159.776982" fill="rgb(102,102,102)"  stroke="rgb(102,102,102)" stroke-width="1" font-size="13" >3</text>
<text x="209.202444" y="156.096982" fill="rgb(102,102,102)"  stroke="rgb(102,102,102)" stroke-width="1" font-size="16" >CH</text>
<text x="233.202444" y="159.776982" fill="rgb(102,102,102)"  stroke="rgb(102,102,102)" stroke-width="1" font-size="13" >3</text>
<text x="513.141874" y="162.269104" fill="rgb(255,12,12)"  stroke="rgb(255,12,12)" stroke-width="1" font-size="16" >OH</text>
<text x="348.996403" y="167.044862" fill="rgb(102,102,102)"  stroke="rgb(102,102,102)" stroke-width="1" font-size="16" >H</text>
<text x="360.996403" y="170.724862" fill="rgb(102,102,102)"  stroke="rgb(102,102,102)" stroke-width="1" font-size="13" >3</text>
<text x="367.496403" y="167.044862" fill="rgb(102,102,102)"  stroke="rgb(102,102,102)" stroke-width="1" font-size="16" >C</text>
<text x="228.661843" y="139.132132" fill="rgb(102,102,102)"  stroke="rgb(102,102,102)" stroke-width="1" font-size="16" >H</text>
<text x="240.661843" y="142.812132" fill="rgb(102,102,102)"  stroke="rgb(102,102,102)" stroke-width="1" font-size="13" >3</text>
<text x="247.161843" y="139.132132" fill="rgb(102,102,102)"  stroke="rgb(102,102,102)" stroke-width="1" font-size="16" >C</text>
<text font-size="18.000000" fill ="black" font-family="sans-serif"
x="10.000000" y="20.000000" >cholesterol</text>
<title>cholesterol - OBDepict</title>
</svg>
