<?xml version="1.0"?>
<svg xmlns="http://www.w3.org/2000/svg"
xmlns:xlink="http://www.w3.org/1999/xlink" xmlns:cml="http://www.xml-cml.org/schema" width="599.615" height="400.002" x="0" y="0" font-family="sans-serif" stroke="rgb(0,0,0)" stroke-width="1"  stroke-linecap="round">
<rect x="0%" y="0%" width="100%" height="100%" stroke-width="0" fill="rgb(255,255,255)"  />
<line x1="51.3" y1="353.5" x2="74.6" y2="340.0" stroke="rgb(0,0,0)"  stroke-width="1.0"/>
<line x1="145.4" y1="337.4" x2="168.8" y2="350.9" stroke="rgb(0,0,0)"  stroke-width="1.0"/>
<line x1="142.4" y1="342.6" x2="165.8" y2="356.1" stroke="rgb(0,0,0)"  stroke-width="1.0"/>
<line x1="178.6" y1="240.0" x2="213.2" y2="220.0" stroke="rgb(0,0,0)"  stroke-width="1.0"/>
<line x1="213.2" y1="220.0" x2="213.2" y2="193.0" stroke="rgb(0,0,0)"  stroke-width="1.0"/>
<line x1="224.5" y1="173.5" x2="247.8" y2="160.0" stroke="rgb(0,0,0)"  stroke-width="1.0"/>
<line x1="317.1" y1="120.0" x2="351.8" y2="100.0" stroke="rgb(0,0,0)"  stroke-width="1.0"/>
<line x1="348.8" y1="100.0" x2="348.8" y2="73.0" stroke="rgb(0,0,0)"  stroke-width="1.0"/>
<line x1="354.8" y1="100.0" x2="354.8" y2="73.0" stroke="rgb(0,0,0)"  stroke-width="1.0"/>
<line x1="351.8" y1="100.0" x2="375.2" y2="113.5" stroke="rgb(0,0,0)"  stroke-width="1.0"/>
<line x1="416.8" y1="103.4" x2="416.0" y2="102.0" stroke="rgb(0,0,0)"  stroke-width="1.0"/>
<line x1="413.4" y1="106.1" x2="412.0" y2="103.6" stroke="rgb(0,0,0)"  stroke-width="1.0"/>
<line x1="410.0" y1="108.8" x2="407.9" y2="105.2" stroke="rgb(0,0,0)"  stroke-width="1.0"/>
<line x1="406.6" y1="111.5" x2="403.9" y2="106.8" stroke="rgb(0,0,0)"  stroke-width="1.0"/>
<line x1="403.2" y1="114.2" x2="399.9" y2="108.3" stroke="rgb(0,0,0)"  stroke-width="1.0"/>
<line x1="399.8" y1="116.9" x2="395.8" y2="109.9" stroke="rgb(0,0,0)"  stroke-width="1.0"/>
<line x1="421.0" y1="100.0" x2="455.7" y2="120.0" stroke="rgb(0,0,0)"  stroke-width="1.0"/>
<line x1="455.7" y1="120.0" x2="490.3" y2="100.0" stroke="rgb(0,0,0)"  stroke-width="1.0"/>
<line x1="490.3" y1="100.0" x2="525.0" y2="120.0" stroke="rgb(0,0,0)"  stroke-width="1.0"/>
<line x1="525.0" y1="120.0" x2="548.4" y2="106.5" stroke="rgb(0,0,0)"  stroke-width="1.0"/>
<line x1="528.0" y1="120.0" x2="528.0" y2="147.0" stroke="rgb(0,0,0)"  stroke-width="1.0"/>
<line x1="522.0" y1="120.0" x2="522.0" y2="147.0" stroke="rgb(0,0,0)"  stroke-width="1.0"/>
<line x1="421.0" y1="100.0" x2="421.0" y2="60.0" stroke="rgb(0,0,0)"  stroke-width="1.0"/>
<line x1="421.0" y1="60.0" x2="444.4" y2="46.5" stroke="rgb(0,0,0)"  stroke-width="1.0"/>
<line x1="419.5" y1="62.6" x2="396.2" y2="49.1" stroke="rgb(0,0,0)"  stroke-width="1.0"/>
<line x1="422.5" y1="57.4" x2="399.2" y2="43.9" stroke="rgb(0,0,0)"  stroke-width="1.0"/>
<line x1="74.6" y1="340.0" x2="97.8" y2="353.4" stroke="rgb(0,0,0)"  stroke-width="1.0"/>
<line x1="83.4" y1="336.8" x2="99.7" y2="346.2" stroke="rgb(0,0,0)"  stroke-width="1.0"/>
<line x1="120.5" y1="353.5" x2="143.9" y2="340.0" stroke="rgb(0,0,0)"  stroke-width="1.0"/>
<line x1="143.9" y1="340.0" x2="143.9" y2="300.0" stroke="rgb(0,0,0)"  stroke-width="1.0"/>
<line x1="143.9" y1="300.0" x2="109.3" y2="280.0" stroke="rgb(0,0,0)"  stroke-width="1.0"/>
<line x1="135.1" y1="303.2" x2="110.9" y2="289.2" stroke="rgb(0,0,0)"  stroke-width="1.0"/>
<line x1="109.3" y1="280.0" x2="85.9" y2="293.5" stroke="rgb(0,0,0)"  stroke-width="1.0"/>
<line x1="74.6" y1="313.0" x2="74.6" y2="340.0" stroke="rgb(0,0,0)"  stroke-width="1.0"/>
<line x1="120.7" y1="233.4" x2="143.9" y2="220.0" stroke="rgb(0,0,0)"  stroke-width="1.0"/>
<line x1="126.0" y1="238.6" x2="142.3" y2="229.2" stroke="rgb(0,0,0)"  stroke-width="1.0"/>
<line x1="143.9" y1="220.0" x2="178.6" y2="240.0" stroke="rgb(0,0,0)"  stroke-width="1.0"/>
<line x1="178.6" y1="240.0" x2="178.6" y2="266.8" stroke="rgb(0,0,0)"  stroke-width="1.0"/>
<line x1="171.4" y1="246.0" x2="171.4" y2="264.8" stroke="rgb(0,0,0)"  stroke-width="1.0"/>
<line x1="167.3" y1="286.5" x2="143.9" y2="300.0" stroke="rgb(0,0,0)"  stroke-width="1.0"/>
<line x1="109.3" y1="280.0" x2="109.3" y2="253.0" stroke="rgb(0,0,0)"  stroke-width="1.0"/>
<line x1="247.8" y1="160.0" x2="247.8" y2="120.0" stroke="rgb(0,0,0)"  stroke-width="1.0"/>
<line x1="255.0" y1="154.0" x2="255.0" y2="126.0" stroke="rgb(0,0,0)"  stroke-width="1.0"/>
<line x1="247.8" y1="120.0" x2="282.5" y2="100.0" stroke="rgb(0,0,0)"  stroke-width="1.0"/>
<line x1="282.5" y1="100.0" x2="317.1" y2="120.0" stroke="rgb(0,0,0)"  stroke-width="1.0"/>
<line x1="284.1" y1="109.2" x2="308.3" y2="123.2" stroke="rgb(0,0,0)"  stroke-width="1.0"/>
<line x1="317.1" y1="120.0" x2="317.1" y2="160.0" stroke="rgb(0,0,0)"  stroke-width="1.0"/>
<line x1="317.1" y1="160.0" x2="282.5" y2="180.0" stroke="rgb(0,0,0)"  stroke-width="1.0"/>
<line x1="308.3" y1="156.8" x2="284.1" y2="170.8" stroke="rgb(0,0,0)"  stroke-width="1.0"/>
<line x1="282.5" y1="180.0" x2="247.8" y2="160.0" stroke="rgb(0,0,0)"  stroke-width="1.0"/>
<text x="14.000000" y="368.002005" fill="rgb(12,12,255)"  stroke="rgb(12,12,255)" stroke-width="1" font-size="16" >H</text>
<text x="26.000000" y="371.682005" fill="rgb(12,12,255)"  stroke="rgb(12,12,255)" stroke-width="1" font-size="13" >2</text>
<text x="32.500000" y="368.002005" fill="rgb(12,12,255)"  stroke="rgb(12,12,255)" stroke-width="1" font-size="16" >N</text>
<text x="103.280434" y="368.002005" fill="rgb(12,12,255)"  stroke="rgb(12,12,255)" stroke-width="1" font-size="16" >N</text>
<text x="172.560868" y="368.002005" fill="rgb(255,12,12)"  stroke="rgb(255,12,12)" stroke-width="1" font-size="16" >O</text>
<text x="56.637793" y="308.001629" fill="rgb(12,12,255)"  stroke="rgb(12,12,255)" stroke-width="1" font-size="16" >HN</text>
<text x="103.280434" y="248.001253" fill="rgb(12,12,255)"  stroke="rgb(12,12,255)" stroke-width="1" font-size="16" >N</text>
<text x="195.203510" y="188.000877" fill="rgb(12,12,255)"  stroke="rgb(12,12,255)" stroke-width="1" font-size="16" >HN</text>
<text x="345.769227" y="68.000125" fill="rgb(255,12,12)"  stroke="rgb(255,12,12)" stroke-width="1" font-size="16" >O</text>
<text x="380.411868" y="128.000501" fill="rgb(12,12,255)"  stroke="rgb(12,12,255)" stroke-width="1" font-size="16" >N</text>
<text x="380.411868" y="144.000501" fill="rgb(12,12,255)"  stroke="rgb(12,12,255)" stroke-width="1" font-size="16" >H</text>
<text x="553.615378" y="108.000376" fill="rgb(255,12,12)"  stroke="rgb(255,12,12)" stroke-width="1" font-size="16" >OH</text>
<text x="518.977585" y="168.000752" fill="rgb(255,12,12)"  stroke="rgb(255,12,12)" stroke-width="1" font-size="16" >O</text>
<text x="449.692302" y="48.000000" fill="rgb(255,12,12)"  stroke="rgb(255,12,12)" stroke-width="1" font-size="16" >OH</text>
<text x="380.411868" y="48.000000" fill="rgb(255,12,12)"  stroke="rgb(255,12,12)" stroke-width="1" font-size="16" >O</text>
<text x="172.560868" y="288.001504" fill="rgb(12,12,255)"  stroke="rgb(12,12,255)" stroke-width="1" font-size="16" >N</text>
<text font-size="18.000000" fill ="black" font-family="sans-serif"
x="10.000000" y="20.000000" >Folic Acid</text>
<title>Folic Acid - OBDepict</title>
</svg>
